<svg xmlns="http://www.w3.org/2000/svg" viewBox="0 0 1100 650" width="1100" height="650">
<style>
  text { font-family: system-ui, -apple-system, sans-serif; }
  .title { font-size: 16px; font-weight: bold; fill: #111827; }
  .axis-label { font-size: 13px; font-weight: 600; fill: #374151; }
  .tick-text { font-size: 11px; fill: #4b5563; }
  .grid { stroke: #e5e7eb; stroke-width: 1; stroke-dasharray: 4,4; }
  .axis { stroke: #9ca3af; stroke-width: 1.5; }
  .legend-text { font-size: 11px; fill: #1f2937; }
</style>
<rect width="1100" height="650" fill="#ffffff"/>
<text x="435.0" y="35" text-anchor="middle" class="title">Variance of Access Probabilities vs. Seed Set Size (k) - ca-HepTh.txt (alpha=0.01)</text>
<line x1="90" y1="570.0" x2="780" y2="570.0" class="grid"/>
<text x="80" y="574.0" text-anchor="end" class="tick-text">0.0000</text>
<line x1="90" y1="486.6666666666667" x2="780" y2="486.6666666666667" class="grid"/>
<text x="80" y="490.6666666666667" text-anchor="end" class="tick-text">0.0003</text>
<line x1="90" y1="403.33333333333337" x2="780" y2="403.33333333333337" class="grid"/>
<text x="80" y="407.33333333333337" text-anchor="end" class="tick-text">0.0006</text>
<line x1="90" y1="320.0" x2="780" y2="320.0" class="grid"/>
<text x="80" y="324.0" text-anchor="end" class="tick-text">0.0009</text>
<line x1="90" y1="236.66666666666669" x2="780" y2="236.66666666666669" class="grid"/>
<text x="80" y="240.66666666666669" text-anchor="end" class="tick-text">0.0012</text>
<line x1="90" y1="153.33333333333331" x2="780" y2="153.33333333333331" class="grid"/>
<text x="80" y="157.33333333333331" text-anchor="end" class="tick-text">0.0015</text>
<line x1="90" y1="70.0" x2="780" y2="70.0" class="grid"/>
<text x="80" y="74.0" text-anchor="end" class="tick-text">0.0018</text>
<line x1="90.0" y1="70" x2="90.0" y2="570" class="grid"/>
<text x="90.0" y="590" text-anchor="middle" class="tick-text">1</text>
<line x1="166.66666666666666" y1="70" x2="166.66666666666666" y2="570" class="grid"/>
<text x="166.66666666666666" y="590" text-anchor="middle" class="tick-text">2</text>
<line x1="243.33333333333331" y1="70" x2="243.33333333333331" y2="570" class="grid"/>
<text x="243.33333333333331" y="590" text-anchor="middle" class="tick-text">3</text>
<line x1="320.0" y1="70" x2="320.0" y2="570" class="grid"/>
<text x="320.0" y="590" text-anchor="middle" class="tick-text">4</text>
<line x1="396.66666666666663" y1="70" x2="396.66666666666663" y2="570" class="grid"/>
<text x="396.66666666666663" y="590" text-anchor="middle" class="tick-text">5</text>
<line x1="473.33333333333337" y1="70" x2="473.33333333333337" y2="570" class="grid"/>
<text x="473.33333333333337" y="590" text-anchor="middle" class="tick-text">6</text>
<line x1="550.0" y1="70" x2="550.0" y2="570" class="grid"/>
<text x="550.0" y="590" text-anchor="middle" class="tick-text">7</text>
<line x1="626.6666666666666" y1="70" x2="626.6666666666666" y2="570" class="grid"/>
<text x="626.6666666666666" y="590" text-anchor="middle" class="tick-text">8</text>
<line x1="703.3333333333333" y1="70" x2="703.3333333333333" y2="570" class="grid"/>
<text x="703.3333333333333" y="590" text-anchor="middle" class="tick-text">9</text>
<line x1="780.0" y1="70" x2="780.0" y2="570" class="grid"/>
<text x="780.0" y="590" text-anchor="middle" class="tick-text">10</text>
<line x1="90" y1="70" x2="90" y2="570" class="axis"/>
<line x1="90" y1="570" x2="780" y2="570" class="axis"/>
<text x="435.0" y="620" text-anchor="middle" class="axis-label">Seed Set Size (k)</text>
<text x="25" y="320.0" text-anchor="middle" transform="rotate(-90 25 320.0)" class="axis-label">Variance of Access Probabilities</text>
<path d="M 90.0,542.1 L 166.7,507.3 L 243.3,479.5 L 320.0,442.5 L 396.7,417.0 L 473.3,388.1 L 550.0,350.5 L 626.7,303.6 L 703.3,293.8 L 780.0,245.8" fill="none" stroke="#9467bd" stroke-width="1.8" stroke-dasharray="6,4" opacity="0.8"/>
<circle cx="90.0" cy="542.1" r="3" fill="#9467bd" opacity="0.9"/>
<circle cx="166.7" cy="507.3" r="3" fill="#9467bd" opacity="0.9"/>
<circle cx="243.3" cy="479.5" r="3" fill="#9467bd" opacity="0.9"/>
<circle cx="320.0" cy="442.5" r="3" fill="#9467bd" opacity="0.9"/>
<circle cx="396.7" cy="417.0" r="3" fill="#9467bd" opacity="0.9"/>
<circle cx="473.3" cy="388.1" r="3" fill="#9467bd" opacity="0.9"/>
<circle cx="550.0" cy="350.5" r="3" fill="#9467bd" opacity="0.9"/>
<circle cx="626.7" cy="303.6" r="3" fill="#9467bd" opacity="0.9"/>
<circle cx="703.3" cy="293.8" r="3" fill="#9467bd" opacity="0.9"/>
<circle cx="780.0" cy="245.8" r="3" fill="#9467bd" opacity="0.9"/>
<path d="M 90.0,526.4 L 166.7,475.5 L 243.3,422.8 L 320.0,381.1 L 396.7,328.5 L 473.3,292.1 L 550.0,240.6 L 626.7,224.4 L 703.3,152.2 L 780.0,92.7" fill="none" stroke="#8c564b" stroke-width="1.8" stroke-dasharray="3,3" opacity="0.8"/>
<circle cx="90.0" cy="526.4" r="3" fill="#8c564b" opacity="0.9"/>
<circle cx="166.7" cy="475.5" r="3" fill="#8c564b" opacity="0.9"/>
<circle cx="243.3" cy="422.8" r="3" fill="#8c564b" opacity="0.9"/>
<circle cx="320.0" cy="381.1" r="3" fill="#8c564b" opacity="0.9"/>
<circle cx="396.7" cy="328.5" r="3" fill="#8c564b" opacity="0.9"/>
<circle cx="473.3" cy="292.1" r="3" fill="#8c564b" opacity="0.9"/>
<circle cx="550.0" cy="240.6" r="3" fill="#8c564b" opacity="0.9"/>
<circle cx="626.7" cy="224.4" r="3" fill="#8c564b" opacity="0.9"/>
<circle cx="703.3" cy="152.2" r="3" fill="#8c564b" opacity="0.9"/>
<circle cx="780.0" cy="92.7" r="3" fill="#8c564b" opacity="0.9"/>
<path d="M 90.0,524.1 L 166.7,495.7 L 243.3,467.9 L 320.0,437.8 L 396.7,402.5 L 473.3,380.0 L 550.0,344.1 L 626.7,311.7 L 703.3,290.9 L 780.0,254.5" fill="none" stroke="#e377c2" stroke-width="1.8" stroke-dasharray="6,4" opacity="0.8"/>
<circle cx="90.0" cy="524.1" r="3" fill="#e377c2" opacity="0.9"/>
<circle cx="166.7" cy="495.7" r="3" fill="#e377c2" opacity="0.9"/>
<circle cx="243.3" cy="467.9" r="3" fill="#e377c2" opacity="0.9"/>
<circle cx="320.0" cy="437.8" r="3" fill="#e377c2" opacity="0.9"/>
<circle cx="396.7" cy="402.5" r="3" fill="#e377c2" opacity="0.9"/>
<circle cx="473.3" cy="380.0" r="3" fill="#e377c2" opacity="0.9"/>
<circle cx="550.0" cy="344.1" r="3" fill="#e377c2" opacity="0.9"/>
<circle cx="626.7" cy="311.7" r="3" fill="#e377c2" opacity="0.9"/>
<circle cx="703.3" cy="290.9" r="3" fill="#e377c2" opacity="0.9"/>
<circle cx="780.0" cy="254.5" r="3" fill="#e377c2" opacity="0.9"/>
<path d="M 90.0,525.3 L 166.7,491.7 L 243.3,463.3 L 320.0,437.3 L 396.7,410.6 L 473.3,387.5 L 550.0,348.1 L 626.7,315.2 L 703.3,288.0 L 780.0,262.6" fill="none" stroke="#7f7f7f" stroke-width="1.8" stroke-dasharray="3,3" opacity="0.8"/>
<circle cx="90.0" cy="525.3" r="3" fill="#7f7f7f" opacity="0.9"/>
<circle cx="166.7" cy="491.7" r="3" fill="#7f7f7f" opacity="0.9"/>
<circle cx="243.3" cy="463.3" r="3" fill="#7f7f7f" opacity="0.9"/>
<circle cx="320.0" cy="437.3" r="3" fill="#7f7f7f" opacity="0.9"/>
<circle cx="396.7" cy="410.6" r="3" fill="#7f7f7f" opacity="0.9"/>
<circle cx="473.3" cy="387.5" r="3" fill="#7f7f7f" opacity="0.9"/>
<circle cx="550.0" cy="348.1" r="3" fill="#7f7f7f" opacity="0.9"/>
<circle cx="626.7" cy="315.2" r="3" fill="#7f7f7f" opacity="0.9"/>
<circle cx="703.3" cy="288.0" r="3" fill="#7f7f7f" opacity="0.9"/>
<circle cx="780.0" cy="262.6" r="3" fill="#7f7f7f" opacity="0.9"/>
<path d="M 90.0,546.1 L 166.7,516.0 L 243.3,484.7 L 320.0,458.7 L 396.7,425.1 L 473.3,398.5 L 550.0,367.2 L 626.7,340.6 L 703.3,310.6 L 780.0,278.2" fill="none" stroke="#bcbd22" stroke-width="1.8" stroke-dasharray="6,4" opacity="0.8"/>
<circle cx="90.0" cy="546.1" r="3" fill="#bcbd22" opacity="0.9"/>
<circle cx="166.7" cy="516.0" r="3" fill="#bcbd22" opacity="0.9"/>
<circle cx="243.3" cy="484.7" r="3" fill="#bcbd22" opacity="0.9"/>
<circle cx="320.0" cy="458.7" r="3" fill="#bcbd22" opacity="0.9"/>
<circle cx="396.7" cy="425.1" r="3" fill="#bcbd22" opacity="0.9"/>
<circle cx="473.3" cy="398.5" r="3" fill="#bcbd22" opacity="0.9"/>
<circle cx="550.0" cy="367.2" r="3" fill="#bcbd22" opacity="0.9"/>
<circle cx="626.7" cy="340.6" r="3" fill="#bcbd22" opacity="0.9"/>
<circle cx="703.3" cy="310.6" r="3" fill="#bcbd22" opacity="0.9"/>
<circle cx="780.0" cy="278.2" r="3" fill="#bcbd22" opacity="0.9"/>
<path d="M 90.0,547.3 L 166.7,516.6 L 243.3,487.6 L 320.0,454.6 L 396.7,423.9 L 473.3,391.5 L 550.0,364.9 L 626.7,340.6 L 703.3,311.1 L 780.0,281.6" fill="none" stroke="#17becf" stroke-width="1.8" stroke-dasharray="3,3" opacity="0.8"/>
<circle cx="90.0" cy="547.3" r="3" fill="#17becf" opacity="0.9"/>
<circle cx="166.7" cy="516.6" r="3" fill="#17becf" opacity="0.9"/>
<circle cx="243.3" cy="487.6" r="3" fill="#17becf" opacity="0.9"/>
<circle cx="320.0" cy="454.6" r="3" fill="#17becf" opacity="0.9"/>
<circle cx="396.7" cy="423.9" r="3" fill="#17becf" opacity="0.9"/>
<circle cx="473.3" cy="391.5" r="3" fill="#17becf" opacity="0.9"/>
<circle cx="550.0" cy="364.9" r="3" fill="#17becf" opacity="0.9"/>
<circle cx="626.7" cy="340.6" r="3" fill="#17becf" opacity="0.9"/>
<circle cx="703.3" cy="311.1" r="3" fill="#17becf" opacity="0.9"/>
<circle cx="780.0" cy="281.6" r="3" fill="#17becf" opacity="0.9"/>
<path d="M 90.0,546.1 L 166.7,518.3 L 243.3,489.4 L 320.0,460.4 L 396.7,430.9 L 473.3,400.2 L 550.0,370.1 L 626.7,344.1 L 703.3,315.2 L 780.0,285.7" fill="none" stroke="#aec7e8" stroke-width="1.8" stroke-dasharray="6,4" opacity="0.8"/>
<circle cx="90.0" cy="546.1" r="3" fill="#aec7e8" opacity="0.9"/>
<circle cx="166.7" cy="518.3" r="3" fill="#aec7e8" opacity="0.9"/>
<circle cx="243.3" cy="489.4" r="3" fill="#aec7e8" opacity="0.9"/>
<circle cx="320.0" cy="460.4" r="3" fill="#aec7e8" opacity="0.9"/>
<circle cx="396.7" cy="430.9" r="3" fill="#aec7e8" opacity="0.9"/>
<circle cx="473.3" cy="400.2" r="3" fill="#aec7e8" opacity="0.9"/>
<circle cx="550.0" cy="370.1" r="3" fill="#aec7e8" opacity="0.9"/>
<circle cx="626.7" cy="344.1" r="3" fill="#aec7e8" opacity="0.9"/>
<circle cx="703.3" cy="315.2" r="3" fill="#aec7e8" opacity="0.9"/>
<circle cx="780.0" cy="285.7" r="3" fill="#aec7e8" opacity="0.9"/>
<path d="M 90.0,542.1 L 166.7,515.4 L 243.3,487.6 L 320.0,458.7 L 396.7,428.0 L 473.3,396.2 L 550.0,371.3 L 626.7,342.9 L 703.3,311.1 L 780.0,283.4" fill="none" stroke="#ffbb78" stroke-width="1.8" stroke-dasharray="3,3" opacity="0.8"/>
<circle cx="90.0" cy="542.1" r="3" fill="#ffbb78" opacity="0.9"/>
<circle cx="166.7" cy="515.4" r="3" fill="#ffbb78" opacity="0.9"/>
<circle cx="243.3" cy="487.6" r="3" fill="#ffbb78" opacity="0.9"/>
<circle cx="320.0" cy="458.7" r="3" fill="#ffbb78" opacity="0.9"/>
<circle cx="396.7" cy="428.0" r="3" fill="#ffbb78" opacity="0.9"/>
<circle cx="473.3" cy="396.2" r="3" fill="#ffbb78" opacity="0.9"/>
<circle cx="550.0" cy="371.3" r="3" fill="#ffbb78" opacity="0.9"/>
<circle cx="626.7" cy="342.9" r="3" fill="#ffbb78" opacity="0.9"/>
<circle cx="703.3" cy="311.1" r="3" fill="#ffbb78" opacity="0.9"/>
<circle cx="780.0" cy="283.4" r="3" fill="#ffbb78" opacity="0.9"/>
<path d="M 90.0,547.3 L 166.7,514.8 L 243.3,488.8 L 320.0,458.7 L 396.7,427.4 L 473.3,402.0 L 550.0,370.1 L 626.7,341.2 L 703.3,310.0 L 780.0,282.8" fill="none" stroke="#98df8a" stroke-width="1.8" stroke-dasharray="6,4" opacity="0.8"/>
<circle cx="90.0" cy="547.3" r="3" fill="#98df8a" opacity="0.9"/>
<circle cx="166.7" cy="514.8" r="3" fill="#98df8a" opacity="0.9"/>
<circle cx="243.3" cy="488.8" r="3" fill="#98df8a" opacity="0.9"/>
<circle cx="320.0" cy="458.7" r="3" fill="#98df8a" opacity="0.9"/>
<circle cx="396.7" cy="427.4" r="3" fill="#98df8a" opacity="0.9"/>
<circle cx="473.3" cy="402.0" r="3" fill="#98df8a" opacity="0.9"/>
<circle cx="550.0" cy="370.1" r="3" fill="#98df8a" opacity="0.9"/>
<circle cx="626.7" cy="341.2" r="3" fill="#98df8a" opacity="0.9"/>
<circle cx="703.3" cy="310.0" r="3" fill="#98df8a" opacity="0.9"/>
<circle cx="780.0" cy="282.8" r="3" fill="#98df8a" opacity="0.9"/>
<path d="M 90.0,543.8 L 166.7,516.0 L 243.3,486.5 L 320.0,455.8 L 396.7,420.5 L 473.3,381.7 L 550.0,347.6 L 626.7,310.6 L 703.3,292.6 L 780.0,247.0" fill="none" stroke="#ff9896" stroke-width="1.8" stroke-dasharray="3,3" opacity="0.8"/>
<circle cx="90.0" cy="543.8" r="3" fill="#ff9896" opacity="0.9"/>
<circle cx="166.7" cy="516.0" r="3" fill="#ff9896" opacity="0.9"/>
<circle cx="243.3" cy="486.5" r="3" fill="#ff9896" opacity="0.9"/>
<circle cx="320.0" cy="455.8" r="3" fill="#ff9896" opacity="0.9"/>
<circle cx="396.7" cy="420.5" r="3" fill="#ff9896" opacity="0.9"/>
<circle cx="473.3" cy="381.7" r="3" fill="#ff9896" opacity="0.9"/>
<circle cx="550.0" cy="347.6" r="3" fill="#ff9896" opacity="0.9"/>
<circle cx="626.7" cy="310.6" r="3" fill="#ff9896" opacity="0.9"/>
<circle cx="703.3" cy="292.6" r="3" fill="#ff9896" opacity="0.9"/>
<circle cx="780.0" cy="247.0" r="3" fill="#ff9896" opacity="0.9"/>
<path d="M 90.0,547.3 L 166.7,518.3 L 243.3,489.4 L 320.0,460.4 L 396.7,430.9 L 473.3,401.4 L 550.0,371.9 L 626.7,342.4 L 703.3,314.0 L 780.0,286.3" fill="none" stroke="#c5b0d5" stroke-width="1.8" stroke-dasharray="6,4" opacity="0.8"/>
<circle cx="90.0" cy="547.3" r="3" fill="#c5b0d5" opacity="0.9"/>
<circle cx="166.7" cy="518.3" r="3" fill="#c5b0d5" opacity="0.9"/>
<circle cx="243.3" cy="489.4" r="3" fill="#c5b0d5" opacity="0.9"/>
<circle cx="320.0" cy="460.4" r="3" fill="#c5b0d5" opacity="0.9"/>
<circle cx="396.7" cy="430.9" r="3" fill="#c5b0d5" opacity="0.9"/>
<circle cx="473.3" cy="401.4" r="3" fill="#c5b0d5" opacity="0.9"/>
<circle cx="550.0" cy="371.9" r="3" fill="#c5b0d5" opacity="0.9"/>
<circle cx="626.7" cy="342.4" r="3" fill="#c5b0d5" opacity="0.9"/>
<circle cx="703.3" cy="314.0" r="3" fill="#c5b0d5" opacity="0.9"/>
<circle cx="780.0" cy="286.3" r="3" fill="#c5b0d5" opacity="0.9"/>
<path d="M 90.0,540.3 L 166.7,512.5 L 243.3,481.8 L 320.0,443.0 L 396.7,407.7 L 473.3,377.1 L 550.0,351.6 L 626.7,316.9 L 703.3,280.5 L 780.0,248.7" fill="none" stroke="#c49c94" stroke-width="1.8" stroke-dasharray="3,3" opacity="0.8"/>
<circle cx="90.0" cy="540.3" r="3" fill="#c49c94" opacity="0.9"/>
<circle cx="166.7" cy="512.5" r="3" fill="#c49c94" opacity="0.9"/>
<circle cx="243.3" cy="481.8" r="3" fill="#c49c94" opacity="0.9"/>
<circle cx="320.0" cy="443.0" r="3" fill="#c49c94" opacity="0.9"/>
<circle cx="396.7" cy="407.7" r="3" fill="#c49c94" opacity="0.9"/>
<circle cx="473.3" cy="377.1" r="3" fill="#c49c94" opacity="0.9"/>
<circle cx="550.0" cy="351.6" r="3" fill="#c49c94" opacity="0.9"/>
<circle cx="626.7" cy="316.9" r="3" fill="#c49c94" opacity="0.9"/>
<circle cx="703.3" cy="280.5" r="3" fill="#c49c94" opacity="0.9"/>
<circle cx="780.0" cy="248.7" r="3" fill="#c49c94" opacity="0.9"/>
<path d="M 90.0,539.7 L 166.7,517.7 L 243.3,487.6 L 320.0,456.4 L 396.7,427.4 L 473.3,399.6 L 550.0,371.3 L 626.7,342.4 L 703.3,311.1 L 780.0,280.5" fill="none" stroke="#f7b6d2" stroke-width="1.8" stroke-dasharray="6,4" opacity="0.8"/>
<circle cx="90.0" cy="539.7" r="3" fill="#f7b6d2" opacity="0.9"/>
<circle cx="166.7" cy="517.7" r="3" fill="#f7b6d2" opacity="0.9"/>
<circle cx="243.3" cy="487.6" r="3" fill="#f7b6d2" opacity="0.9"/>
<circle cx="320.0" cy="456.4" r="3" fill="#f7b6d2" opacity="0.9"/>
<circle cx="396.7" cy="427.4" r="3" fill="#f7b6d2" opacity="0.9"/>
<circle cx="473.3" cy="399.6" r="3" fill="#f7b6d2" opacity="0.9"/>
<circle cx="550.0" cy="371.3" r="3" fill="#f7b6d2" opacity="0.9"/>
<circle cx="626.7" cy="342.4" r="3" fill="#f7b6d2" opacity="0.9"/>
<circle cx="703.3" cy="311.1" r="3" fill="#f7b6d2" opacity="0.9"/>
<circle cx="780.0" cy="280.5" r="3" fill="#f7b6d2" opacity="0.9"/>
<path d="M 90.0,547.3 L 166.7,516.6 L 243.3,485.3 L 320.0,452.3 L 396.7,423.9 L 473.3,392.1 L 550.0,363.8 L 626.7,335.4 L 703.3,308.2 L 780.0,276.4" fill="none" stroke="#c7c7c7" stroke-width="1.8" stroke-dasharray="3,3" opacity="0.8"/>
<circle cx="90.0" cy="547.3" r="3" fill="#c7c7c7" opacity="0.9"/>
<circle cx="166.7" cy="516.6" r="3" fill="#c7c7c7" opacity="0.9"/>
<circle cx="243.3" cy="485.3" r="3" fill="#c7c7c7" opacity="0.9"/>
<circle cx="320.0" cy="452.3" r="3" fill="#c7c7c7" opacity="0.9"/>
<circle cx="396.7" cy="423.9" r="3" fill="#c7c7c7" opacity="0.9"/>
<circle cx="473.3" cy="392.1" r="3" fill="#c7c7c7" opacity="0.9"/>
<circle cx="550.0" cy="363.8" r="3" fill="#c7c7c7" opacity="0.9"/>
<circle cx="626.7" cy="335.4" r="3" fill="#c7c7c7" opacity="0.9"/>
<circle cx="703.3" cy="308.2" r="3" fill="#c7c7c7" opacity="0.9"/>
<circle cx="780.0" cy="276.4" r="3" fill="#c7c7c7" opacity="0.9"/>
<path d="M 90.0,532.8 L 166.7,489.9 L 243.3,436.1 L 320.0,395.0 L 396.7,356.2 L 473.3,296.7 L 550.0,264.3 L 626.7,215.2 L 703.3,166.1 L 780.0,121.0" fill="none" stroke="#1f77b4" stroke-width="3.5"/>
<circle cx="90.0" cy="532.8" r="5.5" fill="#1f77b4" stroke="#ffffff" stroke-width="1.5"/>
<circle cx="166.7" cy="489.9" r="5.5" fill="#1f77b4" stroke="#ffffff" stroke-width="1.5"/>
<circle cx="243.3" cy="436.1" r="5.5" fill="#1f77b4" stroke="#ffffff" stroke-width="1.5"/>
<circle cx="320.0" cy="395.0" r="5.5" fill="#1f77b4" stroke="#ffffff" stroke-width="1.5"/>
<circle cx="396.7" cy="356.2" r="5.5" fill="#1f77b4" stroke="#ffffff" stroke-width="1.5"/>
<circle cx="473.3" cy="296.7" r="5.5" fill="#1f77b4" stroke="#ffffff" stroke-width="1.5"/>
<circle cx="550.0" cy="264.3" r="5.5" fill="#1f77b4" stroke="#ffffff" stroke-width="1.5"/>
<circle cx="626.7" cy="215.2" r="5.5" fill="#1f77b4" stroke="#ffffff" stroke-width="1.5"/>
<circle cx="703.3" cy="166.1" r="5.5" fill="#1f77b4" stroke="#ffffff" stroke-width="1.5"/>
<circle cx="780.0" cy="121.0" r="5.5" fill="#1f77b4" stroke="#ffffff" stroke-width="1.5"/>
<path d="M 90.0,533.4 L 166.7,487.0 L 243.3,435.5 L 320.0,397.3 L 396.7,353.9 L 473.3,301.9 L 550.0,267.8 L 626.7,216.9 L 703.3,170.1 L 780.0,134.9" fill="none" stroke="#ff7f0e" stroke-width="3.5"/>
<circle cx="90.0" cy="533.4" r="5.5" fill="#ff7f0e" stroke="#ffffff" stroke-width="1.5"/>
<circle cx="166.7" cy="487.0" r="5.5" fill="#ff7f0e" stroke="#ffffff" stroke-width="1.5"/>
<circle cx="243.3" cy="435.5" r="5.5" fill="#ff7f0e" stroke="#ffffff" stroke-width="1.5"/>
<circle cx="320.0" cy="397.3" r="5.5" fill="#ff7f0e" stroke="#ffffff" stroke-width="1.5"/>
<circle cx="396.7" cy="353.9" r="5.5" fill="#ff7f0e" stroke="#ffffff" stroke-width="1.5"/>
<circle cx="473.3" cy="301.9" r="5.5" fill="#ff7f0e" stroke="#ffffff" stroke-width="1.5"/>
<circle cx="550.0" cy="267.8" r="5.5" fill="#ff7f0e" stroke="#ffffff" stroke-width="1.5"/>
<circle cx="626.7" cy="216.9" r="5.5" fill="#ff7f0e" stroke="#ffffff" stroke-width="1.5"/>
<circle cx="703.3" cy="170.1" r="5.5" fill="#ff7f0e" stroke="#ffffff" stroke-width="1.5"/>
<circle cx="780.0" cy="134.9" r="5.5" fill="#ff7f0e" stroke="#ffffff" stroke-width="1.5"/>
<path d="M 90.0,537.4 L 166.7,490.5 L 243.3,440.2 L 320.0,390.4 L 396.7,358.0 L 473.3,301.9 L 550.0,265.5 L 626.7,218.1 L 703.3,174.2 L 780.0,122.8" fill="none" stroke="#2ca02c" stroke-width="3.5"/>
<circle cx="90.0" cy="537.4" r="5.5" fill="#2ca02c" stroke="#ffffff" stroke-width="1.5"/>
<circle cx="166.7" cy="490.5" r="5.5" fill="#2ca02c" stroke="#ffffff" stroke-width="1.5"/>
<circle cx="243.3" cy="440.2" r="5.5" fill="#2ca02c" stroke="#ffffff" stroke-width="1.5"/>
<circle cx="320.0" cy="390.4" r="5.5" fill="#2ca02c" stroke="#ffffff" stroke-width="1.5"/>
<circle cx="396.7" cy="358.0" r="5.5" fill="#2ca02c" stroke="#ffffff" stroke-width="1.5"/>
<circle cx="473.3" cy="301.9" r="5.5" fill="#2ca02c" stroke="#ffffff" stroke-width="1.5"/>
<circle cx="550.0" cy="265.5" r="5.5" fill="#2ca02c" stroke="#ffffff" stroke-width="1.5"/>
<circle cx="626.7" cy="218.1" r="5.5" fill="#2ca02c" stroke="#ffffff" stroke-width="1.5"/>
<circle cx="703.3" cy="174.2" r="5.5" fill="#2ca02c" stroke="#ffffff" stroke-width="1.5"/>
<circle cx="780.0" cy="122.8" r="5.5" fill="#2ca02c" stroke="#ffffff" stroke-width="1.5"/>
<path d="M 90.0,538.6 L 166.7,495.2 L 243.3,441.9 L 320.0,396.2 L 396.7,361.5 L 473.3,305.4 L 550.0,266.6 L 626.7,211.7 L 703.3,171.8 L 780.0,126.2" fill="none" stroke="#d62728" stroke-width="3.5"/>
<circle cx="90.0" cy="538.6" r="5.5" fill="#d62728" stroke="#ffffff" stroke-width="1.5"/>
<circle cx="166.7" cy="495.2" r="5.5" fill="#d62728" stroke="#ffffff" stroke-width="1.5"/>
<circle cx="243.3" cy="441.9" r="5.5" fill="#d62728" stroke="#ffffff" stroke-width="1.5"/>
<circle cx="320.0" cy="396.2" r="5.5" fill="#d62728" stroke="#ffffff" stroke-width="1.5"/>
<circle cx="396.7" cy="361.5" r="5.5" fill="#d62728" stroke="#ffffff" stroke-width="1.5"/>
<circle cx="473.3" cy="305.4" r="5.5" fill="#d62728" stroke="#ffffff" stroke-width="1.5"/>
<circle cx="550.0" cy="266.6" r="5.5" fill="#d62728" stroke="#ffffff" stroke-width="1.5"/>
<circle cx="626.7" cy="211.7" r="5.5" fill="#d62728" stroke="#ffffff" stroke-width="1.5"/>
<circle cx="703.3" cy="171.8" r="5.5" fill="#d62728" stroke="#ffffff" stroke-width="1.5"/>
<circle cx="780.0" cy="126.2" r="5.5" fill="#d62728" stroke="#ffffff" stroke-width="1.5"/>
<rect x="800" y="65" width="280" height="520" fill="#f9fafb" stroke="#e5e7eb" rx="6"/>
<text x="810" y="85" font-weight="bold" class="legend-text">Propagation-Aware Envelopes (Min Var/k):</text>
<line x1="810" y1="105" x2="835" y2="105" stroke="#1f77b4" stroke-width="3.5"/>
<circle cx="822.5" cy="105" r="4" fill="#1f77b4"/>
<text x="842" y="109" class="legend-text" font-weight="600">Prop-Aware Additive</text>
<line x1="810" y1="127" x2="835" y2="127" stroke="#ff7f0e" stroke-width="3.5"/>
<circle cx="822.5" cy="127" r="4" fill="#ff7f0e"/>
<text x="842" y="131" class="legend-text" font-weight="600">Prop-Aware Multiplicative</text>
<line x1="810" y1="149" x2="835" y2="149" stroke="#2ca02c" stroke-width="3.5"/>
<circle cx="822.5" cy="149" r="4" fill="#2ca02c"/>
<text x="842" y="153" class="legend-text" font-weight="600">Prop-Aware Additive KCore</text>
<line x1="810" y1="171" x2="835" y2="171" stroke="#d62728" stroke-width="3.5"/>
<circle cx="822.5" cy="171" r="4" fill="#d62728"/>
<text x="842" y="175" class="legend-text" font-weight="600">Prop-Aware Multiplicative KCore</text>
<text x="810" y="203" font-weight="bold" class="legend-text">Baseline / Existing Algorithms:</text>
<line x1="810" y1="223" x2="835" y2="223" stroke="#9467bd" stroke-width="1.8" stroke-dasharray="6,4"/>
<circle cx="822.5" cy="223" r="3" fill="#9467bd"/>
<text x="842" y="227" class="legend-text">Random</text>
<line x1="810" y1="243" x2="835" y2="243" stroke="#8c564b" stroke-width="1.8" stroke-dasharray="3,3"/>
<circle cx="822.5" cy="243" r="3" fill="#8c564b"/>
<text x="842" y="247" class="legend-text">Myopic</text>
<line x1="810" y1="263" x2="835" y2="263" stroke="#e377c2" stroke-width="1.8" stroke-dasharray="6,4"/>
<circle cx="822.5" cy="263" r="3" fill="#e377c2"/>
<text x="842" y="267" class="legend-text">Naive Myopic</text>
<line x1="810" y1="283" x2="835" y2="283" stroke="#7f7f7f" stroke-width="1.8" stroke-dasharray="3,3"/>
<circle cx="822.5" cy="283" r="3" fill="#7f7f7f"/>
<text x="842" y="287" class="legend-text">Gonzalez</text>
<line x1="810" y1="303" x2="835" y2="303" stroke="#bcbd22" stroke-width="1.8" stroke-dasharray="6,4"/>
<circle cx="822.5" cy="303" r="3" fill="#bcbd22"/>
<text x="842" y="307" class="legend-text">Myopic BFS</text>
<line x1="810" y1="323" x2="835" y2="323" stroke="#17becf" stroke-width="1.8" stroke-dasharray="3,3"/>
<circle cx="822.5" cy="323" r="3" fill="#17becf"/>
<text x="842" y="327" class="legend-text">Naive Myopic BFS</text>
<line x1="810" y1="343" x2="835" y2="343" stroke="#aec7e8" stroke-width="1.8" stroke-dasharray="6,4"/>
<circle cx="822.5" cy="343" r="3" fill="#aec7e8"/>
<text x="842" y="347" class="legend-text">Myopic PPR</text>
<line x1="810" y1="363" x2="835" y2="363" stroke="#ffbb78" stroke-width="1.8" stroke-dasharray="3,3"/>
<circle cx="822.5" cy="363" r="3" fill="#ffbb78"/>
<text x="842" y="367" class="legend-text">Naive Myopic PPR</text>
<line x1="810" y1="383" x2="835" y2="383" stroke="#98df8a" stroke-width="1.8" stroke-dasharray="6,4"/>
<circle cx="822.5" cy="383" r="3" fill="#98df8a"/>
<text x="842" y="387" class="legend-text">LeastCentral</text>
<line x1="810" y1="403" x2="835" y2="403" stroke="#ff9896" stroke-width="1.8" stroke-dasharray="3,3"/>
<circle cx="822.5" cy="403" r="3" fill="#ff9896"/>
<text x="842" y="407" class="legend-text">LeastCentral_n</text>
<line x1="810" y1="423" x2="835" y2="423" stroke="#c5b0d5" stroke-width="1.8" stroke-dasharray="6,4"/>
<circle cx="822.5" cy="423" r="3" fill="#c5b0d5"/>
<text x="842" y="427" class="legend-text">MinDegree_hc</text>
<line x1="810" y1="443" x2="835" y2="443" stroke="#c49c94" stroke-width="1.8" stroke-dasharray="3,3"/>
<circle cx="822.5" cy="443" r="3" fill="#c49c94"/>
<text x="842" y="447" class="legend-text">MinDegree_hcn</text>
<line x1="810" y1="463" x2="835" y2="463" stroke="#f7b6d2" stroke-width="1.8" stroke-dasharray="6,4"/>
<circle cx="822.5" cy="463" r="3" fill="#f7b6d2"/>
<text x="842" y="467" class="legend-text">MinDegree_nd</text>
<line x1="810" y1="483" x2="835" y2="483" stroke="#c7c7c7" stroke-width="1.8" stroke-dasharray="3,3"/>
<circle cx="822.5" cy="483" r="3" fill="#c7c7c7"/>
<text x="842" y="487" class="legend-text">MinDegree_ndn</text>
</svg>