<svg xmlns="http://www.w3.org/2000/svg" viewBox="0 0 1250 720" width="1250" height="720">
<style>
  text { font-family: system-ui, -apple-system, sans-serif; }
  .title { font-size: 16px; font-weight: bold; fill: #111827; }
  .axis-label { font-size: 13px; font-weight: 600; fill: #374151; }
  .tick-text { font-size: 11px; fill: #4b5563; }
  .grid { stroke: #e5e7eb; stroke-width: 1; stroke-dasharray: 4,4; }
  .axis { stroke: #9ca3af; stroke-width: 1.5; }
  .legend-text { font-size: 11px; fill: #1f2937; }
  .param-tag { font-size: 9px; font-weight: 600; fill: #111827; }
</style>
<rect width="1250" height="720" fill="#ffffff"/>
<text x="455.0" y="35" text-anchor="middle" class="title">Variance of Access Probabilities vs. Seed Set Size (k) - ca-GrQc.txt (alpha=0.06)</text>
<line x1="90" y1="640.0" x2="820" y2="640.0" class="grid"/>
<text x="80" y="644.0" text-anchor="end" class="tick-text">0.0000</text>
<line x1="90" y1="545.0" x2="820" y2="545.0" class="grid"/>
<text x="80" y="549.0" text-anchor="end" class="tick-text">0.0058</text>
<line x1="90" y1="450.0" x2="820" y2="450.0" class="grid"/>
<text x="80" y="454.0" text-anchor="end" class="tick-text">0.0116</text>
<line x1="90" y1="355.0" x2="820" y2="355.0" class="grid"/>
<text x="80" y="359.0" text-anchor="end" class="tick-text">0.0175</text>
<line x1="90" y1="260.0" x2="820" y2="260.0" class="grid"/>
<text x="80" y="264.0" text-anchor="end" class="tick-text">0.0233</text>
<line x1="90" y1="165.0" x2="820" y2="165.0" class="grid"/>
<text x="80" y="169.0" text-anchor="end" class="tick-text">0.0291</text>
<line x1="90" y1="70.0" x2="820" y2="70.0" class="grid"/>
<text x="80" y="74.0" text-anchor="end" class="tick-text">0.0349</text>
<line x1="90.0" y1="70" x2="90.0" y2="640" class="grid"/>
<text x="90.0" y="660" text-anchor="middle" class="tick-text">1</text>
<line x1="171.1111111111111" y1="70" x2="171.1111111111111" y2="640" class="grid"/>
<text x="171.1111111111111" y="660" text-anchor="middle" class="tick-text">2</text>
<line x1="252.2222222222222" y1="70" x2="252.2222222222222" y2="640" class="grid"/>
<text x="252.2222222222222" y="660" text-anchor="middle" class="tick-text">3</text>
<line x1="333.3333333333333" y1="70" x2="333.3333333333333" y2="640" class="grid"/>
<text x="333.3333333333333" y="660" text-anchor="middle" class="tick-text">4</text>
<line x1="414.4444444444444" y1="70" x2="414.4444444444444" y2="640" class="grid"/>
<text x="414.4444444444444" y="660" text-anchor="middle" class="tick-text">5</text>
<line x1="495.5555555555556" y1="70" x2="495.5555555555556" y2="640" class="grid"/>
<text x="495.5555555555556" y="660" text-anchor="middle" class="tick-text">6</text>
<line x1="576.6666666666666" y1="70" x2="576.6666666666666" y2="640" class="grid"/>
<text x="576.6666666666666" y="660" text-anchor="middle" class="tick-text">7</text>
<line x1="657.7777777777778" y1="70" x2="657.7777777777778" y2="640" class="grid"/>
<text x="657.7777777777778" y="660" text-anchor="middle" class="tick-text">8</text>
<line x1="738.8888888888888" y1="70" x2="738.8888888888888" y2="640" class="grid"/>
<text x="738.8888888888888" y="660" text-anchor="middle" class="tick-text">9</text>
<line x1="820.0" y1="70" x2="820.0" y2="640" class="grid"/>
<text x="820.0" y="660" text-anchor="middle" class="tick-text">10</text>
<line x1="90" y1="70" x2="90" y2="640" class="axis"/>
<line x1="90" y1="640" x2="820" y2="640" class="axis"/>
<text x="455.0" y="690" text-anchor="middle" class="axis-label">Seed Set Size (k)</text>
<text x="25" y="355.0" text-anchor="middle" transform="rotate(-90 25 355.0)" class="axis-label">Variance of Access Probabilities</text>
<path d="M 90.0,626.9 L 171.1,610.0 L 252.2,583.1 L 333.3,612.3 L 414.4,607.0 L 495.6,579.0 L 576.7,598.5 L 657.8,580.1 L 738.9,482.9 L 820.0,458.5" fill="none" stroke="#9467bd" stroke-width="2.0"/>
<circle cx="90.0" cy="626.9" r="3.0" fill="#9467bd"/>
<circle cx="171.1" cy="610.0" r="3.0" fill="#9467bd"/>
<circle cx="252.2" cy="583.1" r="3.0" fill="#9467bd"/>
<circle cx="333.3" cy="612.3" r="3.0" fill="#9467bd"/>
<circle cx="414.4" cy="607.0" r="3.0" fill="#9467bd"/>
<circle cx="495.6" cy="579.0" r="3.0" fill="#9467bd"/>
<circle cx="576.7" cy="598.5" r="3.0" fill="#9467bd"/>
<circle cx="657.8" cy="580.1" r="3.0" fill="#9467bd"/>
<circle cx="738.9" cy="482.9" r="3.0" fill="#9467bd"/>
<circle cx="820.0" cy="458.5" r="3.0" fill="#9467bd"/>
<path d="M 90.0,383.4 L 171.1,270.5 L 252.2,197.7 L 333.3,180.6 L 414.4,150.5 L 495.6,144.6 L 576.7,163.0 L 657.8,132.2 L 738.9,97.0 L 820.0,104.5" fill="none" stroke="#8c564b" stroke-width="2.0"/>
<circle cx="90.0" cy="383.4" r="3.0" fill="#8c564b"/>
<circle cx="171.1" cy="270.5" r="3.0" fill="#8c564b"/>
<circle cx="252.2" cy="197.7" r="3.0" fill="#8c564b"/>
<circle cx="333.3" cy="180.6" r="3.0" fill="#8c564b"/>
<circle cx="414.4" cy="150.5" r="3.0" fill="#8c564b"/>
<circle cx="495.6" cy="144.6" r="3.0" fill="#8c564b"/>
<circle cx="576.7" cy="163.0" r="3.0" fill="#8c564b"/>
<circle cx="657.8" cy="132.2" r="3.0" fill="#8c564b"/>
<circle cx="738.9" cy="97.0" r="3.0" fill="#8c564b"/>
<circle cx="820.0" cy="104.5" r="3.0" fill="#8c564b"/>
<path d="M 90.0,387.8 L 171.1,393.8 L 252.2,371.6 L 333.3,354.8 L 414.4,363.5 L 495.6,360.8 L 576.7,365.5 L 657.8,366.4 L 738.9,345.3 L 820.0,344.0" fill="none" stroke="#e377c2" stroke-width="2.0"/>
<circle cx="90.0" cy="387.8" r="3.0" fill="#e377c2"/>
<circle cx="171.1" cy="393.8" r="3.0" fill="#e377c2"/>
<circle cx="252.2" cy="371.6" r="3.0" fill="#e377c2"/>
<circle cx="333.3" cy="354.8" r="3.0" fill="#e377c2"/>
<circle cx="414.4" cy="363.5" r="3.0" fill="#e377c2"/>
<circle cx="495.6" cy="360.8" r="3.0" fill="#e377c2"/>
<circle cx="576.7" cy="365.5" r="3.0" fill="#e377c2"/>
<circle cx="657.8" cy="366.4" r="3.0" fill="#e377c2"/>
<circle cx="738.9" cy="345.3" r="3.0" fill="#e377c2"/>
<circle cx="820.0" cy="344.0" r="3.0" fill="#e377c2"/>
<path d="M 90.0,388.9 L 171.1,387.9 L 252.2,384.5 L 333.3,354.6 L 414.4,376.2 L 495.6,366.0 L 576.7,364.6 L 657.8,334.3 L 738.9,349.4 L 820.0,353.2" fill="none" stroke="#7f7f7f" stroke-width="2.0"/>
<circle cx="90.0" cy="388.9" r="3.0" fill="#7f7f7f"/>
<circle cx="171.1" cy="387.9" r="3.0" fill="#7f7f7f"/>
<circle cx="252.2" cy="384.5" r="3.0" fill="#7f7f7f"/>
<circle cx="333.3" cy="354.6" r="3.0" fill="#7f7f7f"/>
<circle cx="414.4" cy="376.2" r="3.0" fill="#7f7f7f"/>
<circle cx="495.6" cy="366.0" r="3.0" fill="#7f7f7f"/>
<circle cx="576.7" cy="364.6" r="3.0" fill="#7f7f7f"/>
<circle cx="657.8" cy="334.3" r="3.0" fill="#7f7f7f"/>
<circle cx="738.9" cy="349.4" r="3.0" fill="#7f7f7f"/>
<circle cx="820.0" cy="353.2" r="3.0" fill="#7f7f7f"/>
<path d="M 90.0,636.3 L 171.1,632.6 L 252.2,628.8 L 333.3,625.1 L 414.4,622.0 L 495.6,615.0 L 576.7,615.1 L 657.8,613.1 L 738.9,609.4 L 820.0,605.8" fill="none" stroke="#bcbd22" stroke-width="2.0"/>
<circle cx="90.0" cy="636.3" r="3.0" fill="#bcbd22"/>
<circle cx="171.1" cy="632.6" r="3.0" fill="#bcbd22"/>
<circle cx="252.2" cy="628.8" r="3.0" fill="#bcbd22"/>
<circle cx="333.3" cy="625.1" r="3.0" fill="#bcbd22"/>
<circle cx="414.4" cy="622.0" r="3.0" fill="#bcbd22"/>
<circle cx="495.6" cy="615.0" r="3.0" fill="#bcbd22"/>
<circle cx="576.7" cy="615.1" r="3.0" fill="#bcbd22"/>
<circle cx="657.8" cy="613.1" r="3.0" fill="#bcbd22"/>
<circle cx="738.9" cy="609.4" r="3.0" fill="#bcbd22"/>
<circle cx="820.0" cy="605.8" r="3.0" fill="#bcbd22"/>
<path d="M 90.0,635.6 L 171.1,632.3 L 252.2,629.2 L 333.3,626.1 L 414.4,622.5 L 495.6,619.2 L 576.7,616.5 L 657.8,612.2 L 738.9,609.1 L 820.0,599.9" fill="none" stroke="#17becf" stroke-width="2.0"/>
<circle cx="90.0" cy="635.6" r="3.0" fill="#17becf"/>
<circle cx="171.1" cy="632.3" r="3.0" fill="#17becf"/>
<circle cx="252.2" cy="629.2" r="3.0" fill="#17becf"/>
<circle cx="333.3" cy="626.1" r="3.0" fill="#17becf"/>
<circle cx="414.4" cy="622.5" r="3.0" fill="#17becf"/>
<circle cx="495.6" cy="619.2" r="3.0" fill="#17becf"/>
<circle cx="576.7" cy="616.5" r="3.0" fill="#17becf"/>
<circle cx="657.8" cy="612.2" r="3.0" fill="#17becf"/>
<circle cx="738.9" cy="609.1" r="3.0" fill="#17becf"/>
<circle cx="820.0" cy="599.9" r="3.0" fill="#17becf"/>
<path d="M 90.0,635.9 L 171.1,633.5 L 252.2,625.7 L 333.3,608.6 L 414.4,616.3 L 495.6,613.3 L 576.7,612.4 L 657.8,608.5 L 738.9,606.8 L 820.0,602.1" fill="none" stroke="#008080" stroke-width="2.0"/>
<circle cx="90.0" cy="635.9" r="3.0" fill="#008080"/>
<circle cx="171.1" cy="633.5" r="3.0" fill="#008080"/>
<circle cx="252.2" cy="625.7" r="3.0" fill="#008080"/>
<circle cx="333.3" cy="608.6" r="3.0" fill="#008080"/>
<circle cx="414.4" cy="616.3" r="3.0" fill="#008080"/>
<circle cx="495.6" cy="613.3" r="3.0" fill="#008080"/>
<circle cx="576.7" cy="612.4" r="3.0" fill="#008080"/>
<circle cx="657.8" cy="608.5" r="3.0" fill="#008080"/>
<circle cx="738.9" cy="606.8" r="3.0" fill="#008080"/>
<circle cx="820.0" cy="602.1" r="3.0" fill="#008080"/>
<path d="M 90.0,524.2 L 171.1,529.0 L 252.2,518.0 L 333.3,517.2 L 414.4,492.7 L 495.6,518.2 L 576.7,496.5 L 657.8,484.7 L 738.9,473.8 L 820.0,466.4" fill="none" stroke="#b8860b" stroke-width="2.0"/>
<circle cx="90.0" cy="524.2" r="3.0" fill="#b8860b"/>
<circle cx="171.1" cy="529.0" r="3.0" fill="#b8860b"/>
<circle cx="252.2" cy="518.0" r="3.0" fill="#b8860b"/>
<circle cx="333.3" cy="517.2" r="3.0" fill="#b8860b"/>
<circle cx="414.4" cy="492.7" r="3.0" fill="#b8860b"/>
<circle cx="495.6" cy="518.2" r="3.0" fill="#b8860b"/>
<circle cx="576.7" cy="496.5" r="3.0" fill="#b8860b"/>
<circle cx="657.8" cy="484.7" r="3.0" fill="#b8860b"/>
<circle cx="738.9" cy="473.8" r="3.0" fill="#b8860b"/>
<circle cx="820.0" cy="466.4" r="3.0" fill="#b8860b"/>
<path d="M 90.0,636.7 L 171.1,633.5 L 252.2,630.5 L 333.3,627.3 L 414.4,623.7 L 495.6,619.9 L 576.7,617.2 L 657.8,614.2 L 738.9,610.5 L 820.0,607.1" fill="none" stroke="#4b0082" stroke-width="2.0"/>
<circle cx="90.0" cy="636.7" r="3.0" fill="#4b0082"/>
<circle cx="171.1" cy="633.5" r="3.0" fill="#4b0082"/>
<circle cx="252.2" cy="630.5" r="3.0" fill="#4b0082"/>
<circle cx="333.3" cy="627.3" r="3.0" fill="#4b0082"/>
<circle cx="414.4" cy="623.7" r="3.0" fill="#4b0082"/>
<circle cx="495.6" cy="619.9" r="3.0" fill="#4b0082"/>
<circle cx="576.7" cy="617.2" r="3.0" fill="#4b0082"/>
<circle cx="657.8" cy="614.2" r="3.0" fill="#4b0082"/>
<circle cx="738.9" cy="610.5" r="3.0" fill="#4b0082"/>
<circle cx="820.0" cy="607.1" r="3.0" fill="#4b0082"/>
<path d="M 90.0,635.4 L 171.1,631.2 L 252.2,626.9 L 333.3,622.5 L 414.4,619.3 L 495.6,617.6 L 576.7,613.5 L 657.8,608.5 L 738.9,601.7 L 820.0,593.0" fill="none" stroke="#ff1493" stroke-width="2.0"/>
<circle cx="90.0" cy="635.4" r="3.0" fill="#ff1493"/>
<circle cx="171.1" cy="631.2" r="3.0" fill="#ff1493"/>
<circle cx="252.2" cy="626.9" r="3.0" fill="#ff1493"/>
<circle cx="333.3" cy="622.5" r="3.0" fill="#ff1493"/>
<circle cx="414.4" cy="619.3" r="3.0" fill="#ff1493"/>
<circle cx="495.6" cy="617.6" r="3.0" fill="#ff1493"/>
<circle cx="576.7" cy="613.5" r="3.0" fill="#ff1493"/>
<circle cx="657.8" cy="608.5" r="3.0" fill="#ff1493"/>
<circle cx="738.9" cy="601.7" r="3.0" fill="#ff1493"/>
<circle cx="820.0" cy="593.0" r="3.0" fill="#ff1493"/>
<path d="M 90.0,631.0 L 171.1,625.2 L 252.2,622.7 L 333.3,617.5 L 414.4,612.6 L 495.6,611.3 L 576.7,605.8 L 657.8,605.3 L 738.9,605.5 L 820.0,601.7" fill="none" stroke="#2e8b57" stroke-width="2.0"/>
<circle cx="90.0" cy="631.0" r="3.0" fill="#2e8b57"/>
<circle cx="171.1" cy="625.2" r="3.0" fill="#2e8b57"/>
<circle cx="252.2" cy="622.7" r="3.0" fill="#2e8b57"/>
<circle cx="333.3" cy="617.5" r="3.0" fill="#2e8b57"/>
<circle cx="414.4" cy="612.6" r="3.0" fill="#2e8b57"/>
<circle cx="495.6" cy="611.3" r="3.0" fill="#2e8b57"/>
<circle cx="576.7" cy="605.8" r="3.0" fill="#2e8b57"/>
<circle cx="657.8" cy="605.3" r="3.0" fill="#2e8b57"/>
<circle cx="738.9" cy="605.5" r="3.0" fill="#2e8b57"/>
<circle cx="820.0" cy="601.7" r="3.0" fill="#2e8b57"/>
<path d="M 90.0,634.6 L 171.1,630.2 L 252.2,626.2 L 333.3,622.0 L 414.4,615.7 L 495.6,608.7 L 576.7,611.0 L 657.8,591.3 L 738.9,577.4 L 820.0,593.3" fill="none" stroke="#d2691e" stroke-width="2.0"/>
<circle cx="90.0" cy="634.6" r="3.0" fill="#d2691e"/>
<circle cx="171.1" cy="630.2" r="3.0" fill="#d2691e"/>
<circle cx="252.2" cy="626.2" r="3.0" fill="#d2691e"/>
<circle cx="333.3" cy="622.0" r="3.0" fill="#d2691e"/>
<circle cx="414.4" cy="615.7" r="3.0" fill="#d2691e"/>
<circle cx="495.6" cy="608.7" r="3.0" fill="#d2691e"/>
<circle cx="576.7" cy="611.0" r="3.0" fill="#d2691e"/>
<circle cx="657.8" cy="591.3" r="3.0" fill="#d2691e"/>
<circle cx="738.9" cy="577.4" r="3.0" fill="#d2691e"/>
<circle cx="820.0" cy="593.3" r="3.0" fill="#d2691e"/>
<path d="M 90.0,636.7 L 171.1,633.7 L 252.2,617.1 L 333.3,568.8 L 414.4,566.6 L 495.6,574.8 L 576.7,533.6 L 657.8,543.6 L 738.9,497.6 L 820.0,480.3" fill="none" stroke="#4169e1" stroke-width="2.0"/>
<circle cx="90.0" cy="636.7" r="3.0" fill="#4169e1"/>
<circle cx="171.1" cy="633.7" r="3.0" fill="#4169e1"/>
<circle cx="252.2" cy="617.1" r="3.0" fill="#4169e1"/>
<circle cx="333.3" cy="568.8" r="3.0" fill="#4169e1"/>
<circle cx="414.4" cy="566.6" r="3.0" fill="#4169e1"/>
<circle cx="495.6" cy="574.8" r="3.0" fill="#4169e1"/>
<circle cx="576.7" cy="533.6" r="3.0" fill="#4169e1"/>
<circle cx="657.8" cy="543.6" r="3.0" fill="#4169e1"/>
<circle cx="738.9" cy="497.6" r="3.0" fill="#4169e1"/>
<circle cx="820.0" cy="480.3" r="3.0" fill="#4169e1"/>
<path d="M 90.0,636.5 L 171.1,632.0 L 252.2,628.3 L 333.3,622.2 L 414.4,618.2 L 495.6,616.4 L 576.7,511.6 L 657.8,489.6 L 738.9,487.6 L 820.0,493.8" fill="none" stroke="#dc143c" stroke-width="2.0"/>
<circle cx="90.0" cy="636.5" r="3.0" fill="#dc143c"/>
<circle cx="171.1" cy="632.0" r="3.0" fill="#dc143c"/>
<circle cx="252.2" cy="628.3" r="3.0" fill="#dc143c"/>
<circle cx="333.3" cy="622.2" r="3.0" fill="#dc143c"/>
<circle cx="414.4" cy="618.2" r="3.0" fill="#dc143c"/>
<circle cx="495.6" cy="616.4" r="3.0" fill="#dc143c"/>
<circle cx="576.7" cy="511.6" r="3.0" fill="#dc143c"/>
<circle cx="657.8" cy="489.6" r="3.0" fill="#dc143c"/>
<circle cx="738.9" cy="487.6" r="3.0" fill="#dc143c"/>
<circle cx="820.0" cy="493.8" r="3.0" fill="#dc143c"/>
<path d="M 90.0,626.6 L 171.1,393.5 L 252.2,280.8 L 333.3,271.8 L 414.4,240.6 L 495.6,235.5 L 576.7,204.6 L 657.8,203.4 L 738.9,168.9 L 820.0,162.6" fill="none" stroke="#1f77b4" stroke-width="2.0" stroke-dasharray="3,3"/>
<circle cx="90.0" cy="626.6" r="4.5" fill="#1f77b4" stroke="#ffffff" stroke-width="1.0"/>
<text x="90.0" y="616.6" text-anchor="middle" class="param-tag">L3,λ0.6</text>
<circle cx="171.1" cy="393.5" r="4.5" fill="#1f77b4" stroke="#ffffff" stroke-width="1.0"/>
<text x="171.1" y="383.5" text-anchor="middle" class="param-tag">L1,λ0.2</text>
<circle cx="252.2" cy="280.8" r="4.5" fill="#1f77b4" stroke="#ffffff" stroke-width="1.0"/>
<text x="252.2" y="270.8" text-anchor="middle" class="param-tag">L1,λ0.7</text>
<circle cx="333.3" cy="271.8" r="4.5" fill="#1f77b4" stroke="#ffffff" stroke-width="1.0"/>
<text x="333.3" y="261.8" text-anchor="middle" class="param-tag">L1,λ0.8</text>
<circle cx="414.4" cy="240.6" r="4.5" fill="#1f77b4" stroke="#ffffff" stroke-width="1.0"/>
<text x="414.4" y="230.6" text-anchor="middle" class="param-tag">L1,λ0.6</text>
<circle cx="495.6" cy="235.5" r="4.5" fill="#1f77b4" stroke="#ffffff" stroke-width="1.0"/>
<text x="495.6" y="225.5" text-anchor="middle" class="param-tag">L3,λ0.7</text>
<circle cx="576.7" cy="204.6" r="4.5" fill="#1f77b4" stroke="#ffffff" stroke-width="1.0"/>
<text x="576.7" y="194.6" text-anchor="middle" class="param-tag">L2,λ0.6</text>
<circle cx="657.8" cy="203.4" r="4.5" fill="#1f77b4" stroke="#ffffff" stroke-width="1.0"/>
<text x="657.8" y="193.4" text-anchor="middle" class="param-tag">L3,λ0.6</text>
<circle cx="738.9" cy="168.9" r="4.5" fill="#1f77b4" stroke="#ffffff" stroke-width="1.0"/>
<text x="738.9" y="158.9" text-anchor="middle" class="param-tag">L2,λ0.1</text>
<circle cx="820.0" cy="162.6" r="4.5" fill="#1f77b4" stroke="#ffffff" stroke-width="1.0"/>
<text x="820.0" y="152.6" text-anchor="middle" class="param-tag">L3,λ0.1</text>
<path d="M 90.0,628.2 L 171.1,384.8 L 252.2,281.6 L 333.3,253.8 L 414.4,236.5 L 495.6,230.4 L 576.7,212.0 L 657.8,186.3 L 738.9,178.5 L 820.0,181.6" fill="none" stroke="#ff7f0e" stroke-width="2.0" stroke-dasharray="3,3"/>
<rect x="86.0" y="624.2" width="8" height="8" fill="#ff7f0e" stroke="#ffffff" stroke-width="1.0"/>
<text x="90.0" y="644.2" text-anchor="middle" class="param-tag">L2,λ0.4</text>
<rect x="167.1" y="380.8" width="8" height="8" fill="#ff7f0e" stroke="#ffffff" stroke-width="1.0"/>
<text x="171.1" y="400.8" text-anchor="middle" class="param-tag">L1,λ0.6</text>
<rect x="248.2" y="277.6" width="8" height="8" fill="#ff7f0e" stroke="#ffffff" stroke-width="1.0"/>
<text x="252.2" y="297.6" text-anchor="middle" class="param-tag">L2,λ0.1</text>
<rect x="329.3" y="249.8" width="8" height="8" fill="#ff7f0e" stroke="#ffffff" stroke-width="1.0"/>
<text x="333.3" y="269.8" text-anchor="middle" class="param-tag">L3,λ0.7</text>
<rect x="410.4" y="232.5" width="8" height="8" fill="#ff7f0e" stroke="#ffffff" stroke-width="1.0"/>
<text x="414.4" y="252.5" text-anchor="middle" class="param-tag">L3,λ0.8</text>
<rect x="491.6" y="226.4" width="8" height="8" fill="#ff7f0e" stroke="#ffffff" stroke-width="1.0"/>
<text x="495.6" y="246.4" text-anchor="middle" class="param-tag">L3,λ0.6</text>
<rect x="572.7" y="208.0" width="8" height="8" fill="#ff7f0e" stroke="#ffffff" stroke-width="1.0"/>
<text x="576.7" y="228.0" text-anchor="middle" class="param-tag">L3,λ0.4</text>
<rect x="653.8" y="182.3" width="8" height="8" fill="#ff7f0e" stroke="#ffffff" stroke-width="1.0"/>
<text x="657.8" y="202.3" text-anchor="middle" class="param-tag">L3,λ0.6</text>
<rect x="734.9" y="174.5" width="8" height="8" fill="#ff7f0e" stroke="#ffffff" stroke-width="1.0"/>
<text x="738.9" y="194.5" text-anchor="middle" class="param-tag">L3,λ0.1</text>
<rect x="816.0" y="177.6" width="8" height="8" fill="#ff7f0e" stroke="#ffffff" stroke-width="1.0"/>
<text x="820.0" y="197.6" text-anchor="middle" class="param-tag">L3,λ0.5</text>
<path d="M 90.0,402.6 L 171.1,298.7 L 252.2,279.8 L 333.3,254.8 L 414.4,234.0 L 495.6,221.3 L 576.7,199.8 L 657.8,203.6 L 738.9,185.5 L 820.0,169.3" fill="none" stroke="#2ca02c" stroke-width="2.0" stroke-dasharray="3,3"/>
<polygon points="90.0,397.1 85.0,407.1 95.0,407.1" fill="#2ca02c" stroke="#ffffff" stroke-width="1.0"/>
<text x="90.0" y="388.6" text-anchor="middle" class="param-tag">L3,λ0.3</text>
<polygon points="171.1,293.2 166.1,303.2 176.1,303.2" fill="#2ca02c" stroke="#ffffff" stroke-width="1.0"/>
<text x="171.1" y="284.7" text-anchor="middle" class="param-tag">L3,λ0.6</text>
<polygon points="252.2,274.3 247.2,284.3 257.2,284.3" fill="#2ca02c" stroke="#ffffff" stroke-width="1.0"/>
<text x="252.2" y="265.8" text-anchor="middle" class="param-tag">L2,λ0.8</text>
<polygon points="333.3,249.3 328.3,259.3 338.3,259.3" fill="#2ca02c" stroke="#ffffff" stroke-width="1.0"/>
<text x="333.3" y="240.8" text-anchor="middle" class="param-tag">L1,λ0.8</text>
<polygon points="414.4,228.5 409.4,238.5 419.4,238.5" fill="#2ca02c" stroke="#ffffff" stroke-width="1.0"/>
<text x="414.4" y="220.0" text-anchor="middle" class="param-tag">L3,λ0.9</text>
<polygon points="495.6,215.8 490.6,225.8 500.6,225.8" fill="#2ca02c" stroke="#ffffff" stroke-width="1.0"/>
<text x="495.6" y="207.3" text-anchor="middle" class="param-tag">L3,λ0.6</text>
<polygon points="576.7,194.3 571.7,204.3 581.7,204.3" fill="#2ca02c" stroke="#ffffff" stroke-width="1.0"/>
<text x="576.7" y="185.8" text-anchor="middle" class="param-tag">L2,λ0.7</text>
<polygon points="657.8,198.1 652.8,208.1 662.8,208.1" fill="#2ca02c" stroke="#ffffff" stroke-width="1.0"/>
<text x="657.8" y="189.6" text-anchor="middle" class="param-tag">L2,λ0.2</text>
<polygon points="738.9,180.0 733.9,190.0 743.9,190.0" fill="#2ca02c" stroke="#ffffff" stroke-width="1.0"/>
<text x="738.9" y="171.5" text-anchor="middle" class="param-tag">L3,λ0.2</text>
<polygon points="820.0,163.8 815.0,173.8 825.0,173.8" fill="#2ca02c" stroke="#ffffff" stroke-width="1.0"/>
<text x="820.0" y="155.3" text-anchor="middle" class="param-tag">L3,λ0.4</text>
<path d="M 90.0,397.7 L 171.1,286.9 L 252.2,263.5 L 333.3,257.1 L 414.4,244.7 L 495.6,218.8 L 576.7,212.1 L 657.8,185.1 L 738.9,168.7 L 820.0,168.6" fill="none" stroke="#d62728" stroke-width="2.0" stroke-dasharray="3,3"/>
<polygon points="90.0,392.2 84.5,397.7 90.0,403.2 95.5,397.7" fill="#d62728" stroke="#ffffff" stroke-width="1.0"/>
<text x="90.0" y="417.7" text-anchor="middle" class="param-tag">L1,λ0.2</text>
<polygon points="171.1,281.4 165.6,286.9 171.1,292.4 176.6,286.9" fill="#d62728" stroke="#ffffff" stroke-width="1.0"/>
<text x="171.1" y="306.9" text-anchor="middle" class="param-tag">L2,λ0.8</text>
<polygon points="252.2,258.0 246.7,263.5 252.2,269.0 257.7,263.5" fill="#d62728" stroke="#ffffff" stroke-width="1.0"/>
<text x="252.2" y="283.5" text-anchor="middle" class="param-tag">L1,λ0.8</text>
<polygon points="333.3,251.6 327.8,257.1 333.3,262.6 338.8,257.1" fill="#d62728" stroke="#ffffff" stroke-width="1.0"/>
<text x="333.3" y="277.1" text-anchor="middle" class="param-tag">L2,λ0.4</text>
<polygon points="414.4,239.2 408.9,244.7 414.4,250.2 419.9,244.7" fill="#d62728" stroke="#ffffff" stroke-width="1.0"/>
<text x="414.4" y="264.7" text-anchor="middle" class="param-tag">L3,λ0.9</text>
<polygon points="495.6,213.3 490.1,218.8 495.6,224.3 501.1,218.8" fill="#d62728" stroke="#ffffff" stroke-width="1.0"/>
<text x="495.6" y="238.8" text-anchor="middle" class="param-tag">L2,λ0.6</text>
<polygon points="576.7,206.6 571.2,212.1 576.7,217.6 582.2,212.1" fill="#d62728" stroke="#ffffff" stroke-width="1.0"/>
<text x="576.7" y="232.1" text-anchor="middle" class="param-tag">L3,λ0.3</text>
<polygon points="657.8,179.6 652.3,185.1 657.8,190.6 663.3,185.1" fill="#d62728" stroke="#ffffff" stroke-width="1.0"/>
<text x="657.8" y="205.1" text-anchor="middle" class="param-tag">L2,λ0.1</text>
<polygon points="738.9,163.2 733.4,168.7 738.9,174.2 744.4,168.7" fill="#d62728" stroke="#ffffff" stroke-width="1.0"/>
<text x="738.9" y="188.7" text-anchor="middle" class="param-tag">L3,λ0.1</text>
<polygon points="820.0,163.1 814.5,168.6 820.0,174.1 825.5,168.6" fill="#d62728" stroke="#ffffff" stroke-width="1.0"/>
<text x="820.0" y="188.6" text-anchor="middle" class="param-tag">L2,λ0.1</text>
<rect x="840" y="65" width="390" height="590" fill="#f9fafb" stroke="#e5e7eb" rx="6"/>
<text x="850" y="85" font-weight="bold" class="legend-text">Propagation-Aware Envelopes (Dotted + Symbols):</text>
<line x1="850" y1="103" x2="875" y2="103" stroke="#1f77b4" stroke-width="2.0" stroke-dasharray="3,3"/>
<circle cx="862.5" cy="103.0" r="4.5" fill="#1f77b4" stroke="#ffffff" stroke-width="1.0"/>
<text x="882" y="107" class="legend-text" font-weight="600">Prop-Aware Additive</text>
<text x="882" y="119" font-size="8.5px" fill="#4b5563">k1:L3,λ0.6 k2:L1,λ0.2 k3:L1,λ0.7 k4:L1,λ0.8 k5:L1,λ0.6</text>
<line x1="850" y1="135" x2="875" y2="135" stroke="#ff7f0e" stroke-width="2.0" stroke-dasharray="3,3"/>
<rect x="858.5" y="131.0" width="8" height="8" fill="#ff7f0e" stroke="#ffffff" stroke-width="1.0"/>
<text x="882" y="139" class="legend-text" font-weight="600">Prop-Aware Multiplicative</text>
<text x="882" y="151" font-size="8.5px" fill="#4b5563">k1:L2,λ0.4 k2:L1,λ0.6 k3:L2,λ0.1 k4:L3,λ0.7 k5:L3,λ0.8</text>
<line x1="850" y1="167" x2="875" y2="167" stroke="#2ca02c" stroke-width="2.0" stroke-dasharray="3,3"/>
<polygon points="862.5,161.5 857.5,171.5 867.5,171.5" fill="#2ca02c" stroke="#ffffff" stroke-width="1.0"/>
<text x="882" y="171" class="legend-text" font-weight="600">Prop-Aware Additive KCore</text>
<text x="882" y="183" font-size="8.5px" fill="#4b5563">k1:L3,λ0.3 k2:L3,λ0.6 k3:L2,λ0.8 k4:L1,λ0.8 k5:L3,λ0.9</text>
<line x1="850" y1="199" x2="875" y2="199" stroke="#d62728" stroke-width="2.0" stroke-dasharray="3,3"/>
<polygon points="862.5,193.5 857.0,199.0 862.5,204.5 868.0,199.0" fill="#d62728" stroke="#ffffff" stroke-width="1.0"/>
<text x="882" y="203" class="legend-text" font-weight="600">Prop-Aware Multiplicative KCore</text>
<text x="882" y="215" font-size="8.5px" fill="#4b5563">k1:L1,λ0.2 k2:L2,λ0.8 k3:L1,λ0.8 k4:L2,λ0.4 k5:L3,λ0.9</text>
<text x="850" y="236" font-weight="bold" class="legend-text">Baseline Algorithms (Solid Lines):</text>
<line x1="850" y1="256" x2="875" y2="256" stroke="#9467bd" stroke-width="2.0"/>
<circle cx="862.5" cy="256" r="3" fill="#9467bd"/>
<text x="882" y="260" class="legend-text">Random</text>
<line x1="850" y1="274" x2="875" y2="274" stroke="#8c564b" stroke-width="2.0"/>
<circle cx="862.5" cy="274" r="3" fill="#8c564b"/>
<text x="882" y="278" class="legend-text">Myopic</text>
<line x1="850" y1="292" x2="875" y2="292" stroke="#e377c2" stroke-width="2.0"/>
<circle cx="862.5" cy="292" r="3" fill="#e377c2"/>
<text x="882" y="296" class="legend-text">Naive Myopic</text>
<line x1="850" y1="310" x2="875" y2="310" stroke="#7f7f7f" stroke-width="2.0"/>
<circle cx="862.5" cy="310" r="3" fill="#7f7f7f"/>
<text x="882" y="314" class="legend-text">Gonzalez</text>
<line x1="850" y1="328" x2="875" y2="328" stroke="#bcbd22" stroke-width="2.0"/>
<circle cx="862.5" cy="328" r="3" fill="#bcbd22"/>
<text x="882" y="332" class="legend-text">Myopic BFS</text>
<line x1="850" y1="346" x2="875" y2="346" stroke="#17becf" stroke-width="2.0"/>
<circle cx="862.5" cy="346" r="3" fill="#17becf"/>
<text x="882" y="350" class="legend-text">Naive Myopic BFS</text>
<line x1="850" y1="364" x2="875" y2="364" stroke="#008080" stroke-width="2.0"/>
<circle cx="862.5" cy="364" r="3" fill="#008080"/>
<text x="882" y="368" class="legend-text">Myopic PPR</text>
<line x1="850" y1="382" x2="875" y2="382" stroke="#b8860b" stroke-width="2.0"/>
<circle cx="862.5" cy="382" r="3" fill="#b8860b"/>
<text x="882" y="386" class="legend-text">Naive Myopic PPR</text>
<line x1="850" y1="400" x2="875" y2="400" stroke="#4b0082" stroke-width="2.0"/>
<circle cx="862.5" cy="400" r="3" fill="#4b0082"/>
<text x="882" y="404" class="legend-text">LeastCentral</text>
<line x1="850" y1="418" x2="875" y2="418" stroke="#ff1493" stroke-width="2.0"/>
<circle cx="862.5" cy="418" r="3" fill="#ff1493"/>
<text x="882" y="422" class="legend-text">LeastCentral_n</text>
<line x1="850" y1="436" x2="875" y2="436" stroke="#2e8b57" stroke-width="2.0"/>
<circle cx="862.5" cy="436" r="3" fill="#2e8b57"/>
<text x="882" y="440" class="legend-text">MinDegree_hc</text>
<line x1="850" y1="454" x2="875" y2="454" stroke="#d2691e" stroke-width="2.0"/>
<circle cx="862.5" cy="454" r="3" fill="#d2691e"/>
<text x="882" y="458" class="legend-text">MinDegree_hcn</text>
<line x1="850" y1="472" x2="875" y2="472" stroke="#4169e1" stroke-width="2.0"/>
<circle cx="862.5" cy="472" r="3" fill="#4169e1"/>
<text x="882" y="476" class="legend-text">MinDegree_nd</text>
<line x1="850" y1="490" x2="875" y2="490" stroke="#dc143c" stroke-width="2.0"/>
<circle cx="862.5" cy="490" r="3" fill="#dc143c"/>
<text x="882" y="494" class="legend-text">MinDegree_ndn</text>
</svg>