<svg xmlns="http://www.w3.org/2000/svg" viewBox="0 0 1250 720" width="1250" height="720">
<style>
  text { font-family: system-ui, -apple-system, sans-serif; }
  .title { font-size: 16px; font-weight: bold; fill: #111827; }
  .axis-label { font-size: 13px; font-weight: 600; fill: #374151; }
  .tick-text { font-size: 11px; fill: #4b5563; }
  .grid { stroke: #e5e7eb; stroke-width: 1; stroke-dasharray: 4,4; }
  .axis { stroke: #9ca3af; stroke-width: 1.5; }
  .legend-text { font-size: 11px; fill: #1f2937; }
  .param-tag { font-size: 9px; font-weight: 600; fill: #111827; }
</style>
<rect width="1250" height="720" fill="#ffffff"/>
<text x="455.0" y="35" text-anchor="middle" class="title">Variance of Access Probabilities vs. Seed Set Size (k) - Irvine.txt (alpha=0.30)</text>
<line x1="90" y1="640.0" x2="820" y2="640.0" class="grid"/>
<text x="80" y="644.0" text-anchor="end" class="tick-text">0.0393</text>
<line x1="90" y1="545.0" x2="820" y2="545.0" class="grid"/>
<text x="80" y="549.0" text-anchor="end" class="tick-text">0.0672</text>
<line x1="90" y1="450.0" x2="820" y2="450.0" class="grid"/>
<text x="80" y="454.0" text-anchor="end" class="tick-text">0.0950</text>
<line x1="90" y1="354.99999999999994" x2="820" y2="354.99999999999994" class="grid"/>
<text x="80" y="358.99999999999994" text-anchor="end" class="tick-text">0.1228</text>
<line x1="90" y1="260.0" x2="820" y2="260.0" class="grid"/>
<text x="80" y="264.0" text-anchor="end" class="tick-text">0.1507</text>
<line x1="90" y1="165.00000000000006" x2="820" y2="165.00000000000006" class="grid"/>
<text x="80" y="169.00000000000006" text-anchor="end" class="tick-text">0.1785</text>
<line x1="90" y1="70.0" x2="820" y2="70.0" class="grid"/>
<text x="80" y="74.0" text-anchor="end" class="tick-text">0.2063</text>
<line x1="90.0" y1="70" x2="90.0" y2="640" class="grid"/>
<text x="90.0" y="660" text-anchor="middle" class="tick-text">1</text>
<line x1="171.1111111111111" y1="70" x2="171.1111111111111" y2="640" class="grid"/>
<text x="171.1111111111111" y="660" text-anchor="middle" class="tick-text">2</text>
<line x1="252.2222222222222" y1="70" x2="252.2222222222222" y2="640" class="grid"/>
<text x="252.2222222222222" y="660" text-anchor="middle" class="tick-text">3</text>
<line x1="333.3333333333333" y1="70" x2="333.3333333333333" y2="640" class="grid"/>
<text x="333.3333333333333" y="660" text-anchor="middle" class="tick-text">4</text>
<line x1="414.4444444444444" y1="70" x2="414.4444444444444" y2="640" class="grid"/>
<text x="414.4444444444444" y="660" text-anchor="middle" class="tick-text">5</text>
<line x1="495.5555555555556" y1="70" x2="495.5555555555556" y2="640" class="grid"/>
<text x="495.5555555555556" y="660" text-anchor="middle" class="tick-text">6</text>
<line x1="576.6666666666666" y1="70" x2="576.6666666666666" y2="640" class="grid"/>
<text x="576.6666666666666" y="660" text-anchor="middle" class="tick-text">7</text>
<line x1="657.7777777777778" y1="70" x2="657.7777777777778" y2="640" class="grid"/>
<text x="657.7777777777778" y="660" text-anchor="middle" class="tick-text">8</text>
<line x1="738.8888888888888" y1="70" x2="738.8888888888888" y2="640" class="grid"/>
<text x="738.8888888888888" y="660" text-anchor="middle" class="tick-text">9</text>
<line x1="820.0" y1="70" x2="820.0" y2="640" class="grid"/>
<text x="820.0" y="660" text-anchor="middle" class="tick-text">10</text>
<line x1="90" y1="70" x2="90" y2="640" class="axis"/>
<line x1="90" y1="640" x2="820" y2="640" class="axis"/>
<text x="455.0" y="690" text-anchor="middle" class="axis-label">Seed Set Size (k)</text>
<text x="25" y="355.0" text-anchor="middle" transform="rotate(-90 25 355.0)" class="axis-label">Variance of Access Probabilities</text>
<path d="M 90.0,125.9 L 171.1,100.1 L 252.2,96.7 L 333.3,96.9 L 414.4,98.7 L 495.6,103.2 L 576.7,100.6 L 657.8,103.4 L 738.9,101.5 L 820.0,101.9" fill="none" stroke="#9467bd" stroke-width="2.0"/>
<circle cx="90.0" cy="125.9" r="3.0" fill="#9467bd"/>
<circle cx="171.1" cy="100.1" r="3.0" fill="#9467bd"/>
<circle cx="252.2" cy="96.7" r="3.0" fill="#9467bd"/>
<circle cx="333.3" cy="96.9" r="3.0" fill="#9467bd"/>
<circle cx="414.4" cy="98.7" r="3.0" fill="#9467bd"/>
<circle cx="495.6" cy="103.2" r="3.0" fill="#9467bd"/>
<circle cx="576.7" cy="100.6" r="3.0" fill="#9467bd"/>
<circle cx="657.8" cy="103.4" r="3.0" fill="#9467bd"/>
<circle cx="738.9" cy="101.5" r="3.0" fill="#9467bd"/>
<circle cx="820.0" cy="101.9" r="3.0" fill="#9467bd"/>
<path d="M 90.0,101.5 L 171.1,101.2 L 252.2,101.6 L 333.3,103.1 L 414.4,101.5 L 495.6,102.1 L 576.7,103.7 L 657.8,106.6 L 738.9,110.6 L 820.0,109.3" fill="none" stroke="#8c564b" stroke-width="2.0"/>
<circle cx="90.0" cy="101.5" r="3.0" fill="#8c564b"/>
<circle cx="171.1" cy="101.2" r="3.0" fill="#8c564b"/>
<circle cx="252.2" cy="101.6" r="3.0" fill="#8c564b"/>
<circle cx="333.3" cy="103.1" r="3.0" fill="#8c564b"/>
<circle cx="414.4" cy="101.5" r="3.0" fill="#8c564b"/>
<circle cx="495.6" cy="102.1" r="3.0" fill="#8c564b"/>
<circle cx="576.7" cy="103.7" r="3.0" fill="#8c564b"/>
<circle cx="657.8" cy="106.6" r="3.0" fill="#8c564b"/>
<circle cx="738.9" cy="110.6" r="3.0" fill="#8c564b"/>
<circle cx="820.0" cy="109.3" r="3.0" fill="#8c564b"/>
<path d="M 90.0,95.9 L 171.1,102.2 L 252.2,98.6 L 333.3,104.9 L 414.4,104.2 L 495.6,104.3 L 576.7,106.1 L 657.8,107.1 L 738.9,107.5 L 820.0,107.2" fill="none" stroke="#e377c2" stroke-width="2.0"/>
<circle cx="90.0" cy="95.9" r="3.0" fill="#e377c2"/>
<circle cx="171.1" cy="102.2" r="3.0" fill="#e377c2"/>
<circle cx="252.2" cy="98.6" r="3.0" fill="#e377c2"/>
<circle cx="333.3" cy="104.9" r="3.0" fill="#e377c2"/>
<circle cx="414.4" cy="104.2" r="3.0" fill="#e377c2"/>
<circle cx="495.6" cy="104.3" r="3.0" fill="#e377c2"/>
<circle cx="576.7" cy="106.1" r="3.0" fill="#e377c2"/>
<circle cx="657.8" cy="107.1" r="3.0" fill="#e377c2"/>
<circle cx="738.9" cy="107.5" r="3.0" fill="#e377c2"/>
<circle cx="820.0" cy="107.2" r="3.0" fill="#e377c2"/>
<path d="M 90.0,97.6 L 171.1,103.2 L 252.2,103.7 L 333.3,102.6 L 414.4,104.9 L 495.6,106.3 L 576.7,108.4 L 657.8,103.3 L 738.9,107.6 L 820.0,108.4" fill="none" stroke="#7f7f7f" stroke-width="2.0"/>
<circle cx="90.0" cy="97.6" r="3.0" fill="#7f7f7f"/>
<circle cx="171.1" cy="103.2" r="3.0" fill="#7f7f7f"/>
<circle cx="252.2" cy="103.7" r="3.0" fill="#7f7f7f"/>
<circle cx="333.3" cy="102.6" r="3.0" fill="#7f7f7f"/>
<circle cx="414.4" cy="104.9" r="3.0" fill="#7f7f7f"/>
<circle cx="495.6" cy="106.3" r="3.0" fill="#7f7f7f"/>
<circle cx="576.7" cy="108.4" r="3.0" fill="#7f7f7f"/>
<circle cx="657.8" cy="103.3" r="3.0" fill="#7f7f7f"/>
<circle cx="738.9" cy="107.6" r="3.0" fill="#7f7f7f"/>
<circle cx="820.0" cy="108.4" r="3.0" fill="#7f7f7f"/>
<path d="M 90.0,384.4 L 171.1,436.4 L 252.2,407.4 L 333.3,447.8 L 414.4,394.6 L 495.6,302.0 L 576.7,263.1 L 657.8,220.8 L 738.9,263.9 L 820.0,261.8" fill="none" stroke="#bcbd22" stroke-width="2.0"/>
<circle cx="90.0" cy="384.4" r="3.0" fill="#bcbd22"/>
<circle cx="171.1" cy="436.4" r="3.0" fill="#bcbd22"/>
<circle cx="252.2" cy="407.4" r="3.0" fill="#bcbd22"/>
<circle cx="333.3" cy="447.8" r="3.0" fill="#bcbd22"/>
<circle cx="414.4" cy="394.6" r="3.0" fill="#bcbd22"/>
<circle cx="495.6" cy="302.0" r="3.0" fill="#bcbd22"/>
<circle cx="576.7" cy="263.1" r="3.0" fill="#bcbd22"/>
<circle cx="657.8" cy="220.8" r="3.0" fill="#bcbd22"/>
<circle cx="738.9" cy="263.9" r="3.0" fill="#bcbd22"/>
<circle cx="820.0" cy="261.8" r="3.0" fill="#bcbd22"/>
<path d="M 90.0,101.2 L 171.1,115.9 L 252.2,112.0 L 333.3,142.2 L 414.4,104.1 L 495.6,118.5 L 576.7,116.5 L 657.8,119.5 L 738.9,107.6 L 820.0,109.3" fill="none" stroke="#17becf" stroke-width="2.0"/>
<circle cx="90.0" cy="101.2" r="3.0" fill="#17becf"/>
<circle cx="171.1" cy="115.9" r="3.0" fill="#17becf"/>
<circle cx="252.2" cy="112.0" r="3.0" fill="#17becf"/>
<circle cx="333.3" cy="142.2" r="3.0" fill="#17becf"/>
<circle cx="414.4" cy="104.1" r="3.0" fill="#17becf"/>
<circle cx="495.6" cy="118.5" r="3.0" fill="#17becf"/>
<circle cx="576.7" cy="116.5" r="3.0" fill="#17becf"/>
<circle cx="657.8" cy="119.5" r="3.0" fill="#17becf"/>
<circle cx="738.9" cy="107.6" r="3.0" fill="#17becf"/>
<circle cx="820.0" cy="109.3" r="3.0" fill="#17becf"/>
<path d="M 90.0,113.8 L 171.1,140.1 L 252.2,142.3 L 333.3,167.8 L 414.4,156.0 L 495.6,143.1 L 576.7,143.9 L 657.8,106.9 L 738.9,120.5 L 820.0,108.6" fill="none" stroke="#008080" stroke-width="2.0"/>
<circle cx="90.0" cy="113.8" r="3.0" fill="#008080"/>
<circle cx="171.1" cy="140.1" r="3.0" fill="#008080"/>
<circle cx="252.2" cy="142.3" r="3.0" fill="#008080"/>
<circle cx="333.3" cy="167.8" r="3.0" fill="#008080"/>
<circle cx="414.4" cy="156.0" r="3.0" fill="#008080"/>
<circle cx="495.6" cy="143.1" r="3.0" fill="#008080"/>
<circle cx="576.7" cy="143.9" r="3.0" fill="#008080"/>
<circle cx="657.8" cy="106.9" r="3.0" fill="#008080"/>
<circle cx="738.9" cy="120.5" r="3.0" fill="#008080"/>
<circle cx="820.0" cy="108.6" r="3.0" fill="#008080"/>
<path d="M 90.0,236.2 L 171.1,343.2 L 252.2,258.4 L 333.3,244.8 L 414.4,166.9 L 495.6,183.3 L 576.7,129.1 L 657.8,133.6 L 738.9,131.8 L 820.0,133.7" fill="none" stroke="#b8860b" stroke-width="2.0"/>
<circle cx="90.0" cy="236.2" r="3.0" fill="#b8860b"/>
<circle cx="171.1" cy="343.2" r="3.0" fill="#b8860b"/>
<circle cx="252.2" cy="258.4" r="3.0" fill="#b8860b"/>
<circle cx="333.3" cy="244.8" r="3.0" fill="#b8860b"/>
<circle cx="414.4" cy="166.9" r="3.0" fill="#b8860b"/>
<circle cx="495.6" cy="183.3" r="3.0" fill="#b8860b"/>
<circle cx="576.7" cy="129.1" r="3.0" fill="#b8860b"/>
<circle cx="657.8" cy="133.6" r="3.0" fill="#b8860b"/>
<circle cx="738.9" cy="131.8" r="3.0" fill="#b8860b"/>
<circle cx="820.0" cy="133.7" r="3.0" fill="#b8860b"/>
<path d="M 90.0,517.9 L 171.1,582.4 L 252.2,609.0 L 333.3,513.4 L 414.4,500.0 L 495.6,553.1 L 576.7,592.6 L 657.8,589.0 L 738.9,614.1 L 820.0,484.9" fill="none" stroke="#4b0082" stroke-width="2.0"/>
<circle cx="90.0" cy="517.9" r="3.0" fill="#4b0082"/>
<circle cx="171.1" cy="582.4" r="3.0" fill="#4b0082"/>
<circle cx="252.2" cy="609.0" r="3.0" fill="#4b0082"/>
<circle cx="333.3" cy="513.4" r="3.0" fill="#4b0082"/>
<circle cx="414.4" cy="500.0" r="3.0" fill="#4b0082"/>
<circle cx="495.6" cy="553.1" r="3.0" fill="#4b0082"/>
<circle cx="576.7" cy="592.6" r="3.0" fill="#4b0082"/>
<circle cx="657.8" cy="589.0" r="3.0" fill="#4b0082"/>
<circle cx="738.9" cy="614.1" r="3.0" fill="#4b0082"/>
<circle cx="820.0" cy="484.9" r="3.0" fill="#4b0082"/>
<path d="M 90.0,111.5 L 171.1,102.7 L 252.2,103.1 L 333.3,113.1 L 414.4,114.2 L 495.6,116.4 L 576.7,101.1 L 657.8,102.6 L 738.9,99.4 L 820.0,102.2" fill="none" stroke="#ff1493" stroke-width="2.0"/>
<circle cx="90.0" cy="111.5" r="3.0" fill="#ff1493"/>
<circle cx="171.1" cy="102.7" r="3.0" fill="#ff1493"/>
<circle cx="252.2" cy="103.1" r="3.0" fill="#ff1493"/>
<circle cx="333.3" cy="113.1" r="3.0" fill="#ff1493"/>
<circle cx="414.4" cy="114.2" r="3.0" fill="#ff1493"/>
<circle cx="495.6" cy="116.4" r="3.0" fill="#ff1493"/>
<circle cx="576.7" cy="101.1" r="3.0" fill="#ff1493"/>
<circle cx="657.8" cy="102.6" r="3.0" fill="#ff1493"/>
<circle cx="738.9" cy="99.4" r="3.0" fill="#ff1493"/>
<circle cx="820.0" cy="102.2" r="3.0" fill="#ff1493"/>
<path d="M 90.0,102.8 L 171.1,103.6 L 252.2,102.8 L 333.3,103.7 L 414.4,103.3 L 495.6,103.3 L 576.7,104.1 L 657.8,108.1 L 738.9,107.0 L 820.0,106.6" fill="none" stroke="#2e8b57" stroke-width="2.0"/>
<circle cx="90.0" cy="102.8" r="3.0" fill="#2e8b57"/>
<circle cx="171.1" cy="103.6" r="3.0" fill="#2e8b57"/>
<circle cx="252.2" cy="102.8" r="3.0" fill="#2e8b57"/>
<circle cx="333.3" cy="103.7" r="3.0" fill="#2e8b57"/>
<circle cx="414.4" cy="103.3" r="3.0" fill="#2e8b57"/>
<circle cx="495.6" cy="103.3" r="3.0" fill="#2e8b57"/>
<circle cx="576.7" cy="104.1" r="3.0" fill="#2e8b57"/>
<circle cx="657.8" cy="108.1" r="3.0" fill="#2e8b57"/>
<circle cx="738.9" cy="107.0" r="3.0" fill="#2e8b57"/>
<circle cx="820.0" cy="106.6" r="3.0" fill="#2e8b57"/>
<path d="M 90.0,611.1 L 171.1,568.2 L 252.2,582.7 L 333.3,514.7 L 414.4,581.7 L 495.6,567.4 L 576.7,542.2 L 657.8,555.7 L 738.9,568.4 L 820.0,542.4" fill="none" stroke="#d2691e" stroke-width="2.0"/>
<circle cx="90.0" cy="611.1" r="3.0" fill="#d2691e"/>
<circle cx="171.1" cy="568.2" r="3.0" fill="#d2691e"/>
<circle cx="252.2" cy="582.7" r="3.0" fill="#d2691e"/>
<circle cx="333.3" cy="514.7" r="3.0" fill="#d2691e"/>
<circle cx="414.4" cy="581.7" r="3.0" fill="#d2691e"/>
<circle cx="495.6" cy="567.4" r="3.0" fill="#d2691e"/>
<circle cx="576.7" cy="542.2" r="3.0" fill="#d2691e"/>
<circle cx="657.8" cy="555.7" r="3.0" fill="#d2691e"/>
<circle cx="738.9" cy="568.4" r="3.0" fill="#d2691e"/>
<circle cx="820.0" cy="542.4" r="3.0" fill="#d2691e"/>
<path d="M 90.0,98.5 L 171.1,100.2 L 252.2,99.7 L 333.3,101.9 L 414.4,104.3 L 495.6,100.9 L 576.7,103.3 L 657.8,103.3 L 738.9,105.3 L 820.0,107.9" fill="none" stroke="#4169e1" stroke-width="2.0"/>
<circle cx="90.0" cy="98.5" r="3.0" fill="#4169e1"/>
<circle cx="171.1" cy="100.2" r="3.0" fill="#4169e1"/>
<circle cx="252.2" cy="99.7" r="3.0" fill="#4169e1"/>
<circle cx="333.3" cy="101.9" r="3.0" fill="#4169e1"/>
<circle cx="414.4" cy="104.3" r="3.0" fill="#4169e1"/>
<circle cx="495.6" cy="100.9" r="3.0" fill="#4169e1"/>
<circle cx="576.7" cy="103.3" r="3.0" fill="#4169e1"/>
<circle cx="657.8" cy="103.3" r="3.0" fill="#4169e1"/>
<circle cx="738.9" cy="105.3" r="3.0" fill="#4169e1"/>
<circle cx="820.0" cy="107.9" r="3.0" fill="#4169e1"/>
<path d="M 90.0,289.8 L 171.1,97.9 L 252.2,101.3 L 333.3,104.1 L 414.4,108.0 L 495.6,110.1 L 576.7,109.5 L 657.8,109.4 L 738.9,111.6 L 820.0,112.5" fill="none" stroke="#dc143c" stroke-width="2.0"/>
<circle cx="90.0" cy="289.8" r="3.0" fill="#dc143c"/>
<circle cx="171.1" cy="97.9" r="3.0" fill="#dc143c"/>
<circle cx="252.2" cy="101.3" r="3.0" fill="#dc143c"/>
<circle cx="333.3" cy="104.1" r="3.0" fill="#dc143c"/>
<circle cx="414.4" cy="108.0" r="3.0" fill="#dc143c"/>
<circle cx="495.6" cy="110.1" r="3.0" fill="#dc143c"/>
<circle cx="576.7" cy="109.5" r="3.0" fill="#dc143c"/>
<circle cx="657.8" cy="109.4" r="3.0" fill="#dc143c"/>
<circle cx="738.9" cy="111.6" r="3.0" fill="#dc143c"/>
<circle cx="820.0" cy="112.5" r="3.0" fill="#dc143c"/>
<path d="M 90.0,102.4 L 171.1,103.2 L 252.2,103.1 L 333.3,104.4 L 414.4,106.6 L 495.6,104.6 L 576.7,102.7 L 657.8,106.8 L 738.9,107.9 L 820.0,112.0" fill="none" stroke="#1f77b4" stroke-width="2.0" stroke-dasharray="3,3"/>
<circle cx="90.0" cy="102.4" r="4.5" fill="#1f77b4" stroke="#ffffff" stroke-width="1.0"/>
<text x="90.0" y="92.4" text-anchor="middle" class="param-tag">L1,λ0.7</text>
<circle cx="171.1" cy="103.2" r="4.5" fill="#1f77b4" stroke="#ffffff" stroke-width="1.0"/>
<text x="171.1" y="93.2" text-anchor="middle" class="param-tag">L1,λ0.9</text>
<circle cx="252.2" cy="103.1" r="4.5" fill="#1f77b4" stroke="#ffffff" stroke-width="1.0"/>
<text x="252.2" y="93.1" text-anchor="middle" class="param-tag">L3,λ0.8</text>
<circle cx="333.3" cy="104.4" r="4.5" fill="#1f77b4" stroke="#ffffff" stroke-width="1.0"/>
<text x="333.3" y="94.4" text-anchor="middle" class="param-tag">L1,λ0.9</text>
<circle cx="414.4" cy="106.6" r="4.5" fill="#1f77b4" stroke="#ffffff" stroke-width="1.0"/>
<text x="414.4" y="96.6" text-anchor="middle" class="param-tag">L1,λ0.9</text>
<circle cx="495.6" cy="104.6" r="4.5" fill="#1f77b4" stroke="#ffffff" stroke-width="1.0"/>
<text x="495.6" y="94.6" text-anchor="middle" class="param-tag">L1,λ0.9</text>
<circle cx="576.7" cy="102.7" r="4.5" fill="#1f77b4" stroke="#ffffff" stroke-width="1.0"/>
<text x="576.7" y="92.7" text-anchor="middle" class="param-tag">L1,λ0.4</text>
<circle cx="657.8" cy="106.8" r="4.5" fill="#1f77b4" stroke="#ffffff" stroke-width="1.0"/>
<text x="657.8" y="96.8" text-anchor="middle" class="param-tag">L1,λ0.9</text>
<circle cx="738.9" cy="107.9" r="4.5" fill="#1f77b4" stroke="#ffffff" stroke-width="1.0"/>
<text x="738.9" y="97.9" text-anchor="middle" class="param-tag">L1,λ0.9</text>
<circle cx="820.0" cy="112.0" r="4.5" fill="#1f77b4" stroke="#ffffff" stroke-width="1.0"/>
<text x="820.0" y="102.0" text-anchor="middle" class="param-tag">L1,λ0.9</text>
<path d="M 90.0,104.0 L 171.1,105.4 L 252.2,104.3 L 333.3,105.1 L 414.4,107.7 L 495.6,106.4 L 576.7,108.9 L 657.8,107.7 L 738.9,112.1 L 820.0,112.7" fill="none" stroke="#ff7f0e" stroke-width="2.0" stroke-dasharray="3,3"/>
<rect x="86.0" y="100.0" width="8" height="8" fill="#ff7f0e" stroke="#ffffff" stroke-width="1.0"/>
<text x="90.0" y="120.0" text-anchor="middle" class="param-tag">L2,λ0.5</text>
<rect x="167.1" y="101.4" width="8" height="8" fill="#ff7f0e" stroke="#ffffff" stroke-width="1.0"/>
<text x="171.1" y="121.4" text-anchor="middle" class="param-tag">L3,λ0.7</text>
<rect x="248.2" y="100.3" width="8" height="8" fill="#ff7f0e" stroke="#ffffff" stroke-width="1.0"/>
<text x="252.2" y="120.3" text-anchor="middle" class="param-tag">L1,λ0.8</text>
<rect x="329.3" y="101.1" width="8" height="8" fill="#ff7f0e" stroke="#ffffff" stroke-width="1.0"/>
<text x="333.3" y="121.1" text-anchor="middle" class="param-tag">L1,λ0.7</text>
<rect x="410.4" y="103.7" width="8" height="8" fill="#ff7f0e" stroke="#ffffff" stroke-width="1.0"/>
<text x="414.4" y="123.7" text-anchor="middle" class="param-tag">L2,λ0.9</text>
<rect x="491.6" y="102.4" width="8" height="8" fill="#ff7f0e" stroke="#ffffff" stroke-width="1.0"/>
<text x="495.6" y="122.4" text-anchor="middle" class="param-tag">L2,λ0.9</text>
<rect x="572.7" y="104.9" width="8" height="8" fill="#ff7f0e" stroke="#ffffff" stroke-width="1.0"/>
<text x="576.7" y="124.9" text-anchor="middle" class="param-tag">L1,λ0.5</text>
<rect x="653.8" y="103.7" width="8" height="8" fill="#ff7f0e" stroke="#ffffff" stroke-width="1.0"/>
<text x="657.8" y="123.7" text-anchor="middle" class="param-tag">L1,λ0.8</text>
<rect x="734.9" y="108.1" width="8" height="8" fill="#ff7f0e" stroke="#ffffff" stroke-width="1.0"/>
<text x="738.9" y="128.1" text-anchor="middle" class="param-tag">L1,λ0.5</text>
<rect x="816.0" y="108.7" width="8" height="8" fill="#ff7f0e" stroke="#ffffff" stroke-width="1.0"/>
<text x="820.0" y="128.7" text-anchor="middle" class="param-tag">L1,λ0.9</text>
<path d="M 90.0,105.2 L 171.1,102.4 L 252.2,103.8 L 333.3,104.9 L 414.4,106.5 L 495.6,107.0 L 576.7,105.1 L 657.8,106.2 L 738.9,107.9 L 820.0,111.2" fill="none" stroke="#2ca02c" stroke-width="2.0" stroke-dasharray="3,3"/>
<polygon points="90.0,99.7 85.0,109.7 95.0,109.7" fill="#2ca02c" stroke="#ffffff" stroke-width="1.0"/>
<text x="90.0" y="91.2" text-anchor="middle" class="param-tag">L2,λ0.1</text>
<polygon points="171.1,96.9 166.1,106.9 176.1,106.9" fill="#2ca02c" stroke="#ffffff" stroke-width="1.0"/>
<text x="171.1" y="88.4" text-anchor="middle" class="param-tag">L2,λ0.2</text>
<polygon points="252.2,98.3 247.2,108.3 257.2,108.3" fill="#2ca02c" stroke="#ffffff" stroke-width="1.0"/>
<text x="252.2" y="89.8" text-anchor="middle" class="param-tag">L3,λ0.4</text>
<polygon points="333.3,99.4 328.3,109.4 338.3,109.4" fill="#2ca02c" stroke="#ffffff" stroke-width="1.0"/>
<text x="333.3" y="90.9" text-anchor="middle" class="param-tag">L1,λ0.9</text>
<polygon points="414.4,101.0 409.4,111.0 419.4,111.0" fill="#2ca02c" stroke="#ffffff" stroke-width="1.0"/>
<text x="414.4" y="92.5" text-anchor="middle" class="param-tag">L1,λ0.9</text>
<polygon points="495.6,101.5 490.6,111.5 500.6,111.5" fill="#2ca02c" stroke="#ffffff" stroke-width="1.0"/>
<text x="495.6" y="93.0" text-anchor="middle" class="param-tag">L1,λ0.9</text>
<polygon points="576.7,99.6 571.7,109.6 581.7,109.6" fill="#2ca02c" stroke="#ffffff" stroke-width="1.0"/>
<text x="576.7" y="91.1" text-anchor="middle" class="param-tag">L1,λ0.9</text>
<polygon points="657.8,100.7 652.8,110.7 662.8,110.7" fill="#2ca02c" stroke="#ffffff" stroke-width="1.0"/>
<text x="657.8" y="92.2" text-anchor="middle" class="param-tag">L1,λ0.9</text>
<polygon points="738.9,102.4 733.9,112.4 743.9,112.4" fill="#2ca02c" stroke="#ffffff" stroke-width="1.0"/>
<text x="738.9" y="93.9" text-anchor="middle" class="param-tag">L1,λ0.9</text>
<polygon points="820.0,105.7 815.0,115.7 825.0,115.7" fill="#2ca02c" stroke="#ffffff" stroke-width="1.0"/>
<text x="820.0" y="97.2" text-anchor="middle" class="param-tag">L1,λ0.9</text>
<path d="M 90.0,102.0 L 171.1,103.4 L 252.2,102.4 L 333.3,103.6 L 414.4,106.0 L 495.6,107.5 L 576.7,107.1 L 657.8,108.1 L 738.9,110.1 L 820.0,111.6" fill="none" stroke="#d62728" stroke-width="2.0" stroke-dasharray="3,3"/>
<polygon points="90.0,96.5 84.5,102.0 90.0,107.5 95.5,102.0" fill="#d62728" stroke="#ffffff" stroke-width="1.0"/>
<text x="90.0" y="122.0" text-anchor="middle" class="param-tag">L3,λ0.3</text>
<polygon points="171.1,97.9 165.6,103.4 171.1,108.9 176.6,103.4" fill="#d62728" stroke="#ffffff" stroke-width="1.0"/>
<text x="171.1" y="123.4" text-anchor="middle" class="param-tag">L1,λ0.4</text>
<polygon points="252.2,96.9 246.7,102.4 252.2,107.9 257.7,102.4" fill="#d62728" stroke="#ffffff" stroke-width="1.0"/>
<text x="252.2" y="122.4" text-anchor="middle" class="param-tag">L1,λ0.4</text>
<polygon points="333.3,98.1 327.8,103.6 333.3,109.1 338.8,103.6" fill="#d62728" stroke="#ffffff" stroke-width="1.0"/>
<text x="333.3" y="123.6" text-anchor="middle" class="param-tag">L3,λ0.4</text>
<polygon points="414.4,100.5 408.9,106.0 414.4,111.5 419.9,106.0" fill="#d62728" stroke="#ffffff" stroke-width="1.0"/>
<text x="414.4" y="126.0" text-anchor="middle" class="param-tag">L1,λ0.7</text>
<polygon points="495.6,102.0 490.1,107.5 495.6,113.0 501.1,107.5" fill="#d62728" stroke="#ffffff" stroke-width="1.0"/>
<text x="495.6" y="127.5" text-anchor="middle" class="param-tag">L1,λ0.4</text>
<polygon points="576.7,101.6 571.2,107.1 576.7,112.6 582.2,107.1" fill="#d62728" stroke="#ffffff" stroke-width="1.0"/>
<text x="576.7" y="127.1" text-anchor="middle" class="param-tag">L1,λ0.8</text>
<polygon points="657.8,102.6 652.3,108.1 657.8,113.6 663.3,108.1" fill="#d62728" stroke="#ffffff" stroke-width="1.0"/>
<text x="657.8" y="128.1" text-anchor="middle" class="param-tag">L1,λ0.8</text>
<polygon points="738.9,104.6 733.4,110.1 738.9,115.6 744.4,110.1" fill="#d62728" stroke="#ffffff" stroke-width="1.0"/>
<text x="738.9" y="130.1" text-anchor="middle" class="param-tag">L1,λ0.4</text>
<polygon points="820.0,106.1 814.5,111.6 820.0,117.1 825.5,111.6" fill="#d62728" stroke="#ffffff" stroke-width="1.0"/>
<text x="820.0" y="131.6" text-anchor="middle" class="param-tag">L1,λ0.7</text>
<rect x="840" y="65" width="390" height="590" fill="#f9fafb" stroke="#e5e7eb" rx="6"/>
<text x="850" y="85" font-weight="bold" class="legend-text">Propagation-Aware Envelopes (Dotted + Symbols):</text>
<line x1="850" y1="103" x2="875" y2="103" stroke="#1f77b4" stroke-width="2.0" stroke-dasharray="3,3"/>
<circle cx="862.5" cy="103.0" r="4.5" fill="#1f77b4" stroke="#ffffff" stroke-width="1.0"/>
<text x="882" y="107" class="legend-text" font-weight="600">Prop-Aware Additive</text>
<text x="882" y="119" font-size="8.5px" fill="#4b5563">k1:L1,λ0.7 k2:L1,λ0.9 k3:L3,λ0.8 k4:L1,λ0.9 k5:L1,λ0.9</text>
<line x1="850" y1="135" x2="875" y2="135" stroke="#ff7f0e" stroke-width="2.0" stroke-dasharray="3,3"/>
<rect x="858.5" y="131.0" width="8" height="8" fill="#ff7f0e" stroke="#ffffff" stroke-width="1.0"/>
<text x="882" y="139" class="legend-text" font-weight="600">Prop-Aware Multiplicative</text>
<text x="882" y="151" font-size="8.5px" fill="#4b5563">k1:L2,λ0.5 k2:L3,λ0.7 k3:L1,λ0.8 k4:L1,λ0.7 k5:L2,λ0.9</text>
<line x1="850" y1="167" x2="875" y2="167" stroke="#2ca02c" stroke-width="2.0" stroke-dasharray="3,3"/>
<polygon points="862.5,161.5 857.5,171.5 867.5,171.5" fill="#2ca02c" stroke="#ffffff" stroke-width="1.0"/>
<text x="882" y="171" class="legend-text" font-weight="600">Prop-Aware Additive KCore</text>
<text x="882" y="183" font-size="8.5px" fill="#4b5563">k1:L2,λ0.1 k2:L2,λ0.2 k3:L3,λ0.4 k4:L1,λ0.9 k5:L1,λ0.9</text>
<line x1="850" y1="199" x2="875" y2="199" stroke="#d62728" stroke-width="2.0" stroke-dasharray="3,3"/>
<polygon points="862.5,193.5 857.0,199.0 862.5,204.5 868.0,199.0" fill="#d62728" stroke="#ffffff" stroke-width="1.0"/>
<text x="882" y="203" class="legend-text" font-weight="600">Prop-Aware Multiplicative KCore</text>
<text x="882" y="215" font-size="8.5px" fill="#4b5563">k1:L3,λ0.3 k2:L1,λ0.4 k3:L1,λ0.4 k4:L3,λ0.4 k5:L1,λ0.7</text>
<text x="850" y="236" font-weight="bold" class="legend-text">Baseline Algorithms (Solid Lines):</text>
<line x1="850" y1="256" x2="875" y2="256" stroke="#9467bd" stroke-width="2.0"/>
<circle cx="862.5" cy="256" r="3" fill="#9467bd"/>
<text x="882" y="260" class="legend-text">Random</text>
<line x1="850" y1="274" x2="875" y2="274" stroke="#8c564b" stroke-width="2.0"/>
<circle cx="862.5" cy="274" r="3" fill="#8c564b"/>
<text x="882" y="278" class="legend-text">Myopic</text>
<line x1="850" y1="292" x2="875" y2="292" stroke="#e377c2" stroke-width="2.0"/>
<circle cx="862.5" cy="292" r="3" fill="#e377c2"/>
<text x="882" y="296" class="legend-text">Naive Myopic</text>
<line x1="850" y1="310" x2="875" y2="310" stroke="#7f7f7f" stroke-width="2.0"/>
<circle cx="862.5" cy="310" r="3" fill="#7f7f7f"/>
<text x="882" y="314" class="legend-text">Gonzalez</text>
<line x1="850" y1="328" x2="875" y2="328" stroke="#bcbd22" stroke-width="2.0"/>
<circle cx="862.5" cy="328" r="3" fill="#bcbd22"/>
<text x="882" y="332" class="legend-text">Myopic BFS</text>
<line x1="850" y1="346" x2="875" y2="346" stroke="#17becf" stroke-width="2.0"/>
<circle cx="862.5" cy="346" r="3" fill="#17becf"/>
<text x="882" y="350" class="legend-text">Naive Myopic BFS</text>
<line x1="850" y1="364" x2="875" y2="364" stroke="#008080" stroke-width="2.0"/>
<circle cx="862.5" cy="364" r="3" fill="#008080"/>
<text x="882" y="368" class="legend-text">Myopic PPR</text>
<line x1="850" y1="382" x2="875" y2="382" stroke="#b8860b" stroke-width="2.0"/>
<circle cx="862.5" cy="382" r="3" fill="#b8860b"/>
<text x="882" y="386" class="legend-text">Naive Myopic PPR</text>
<line x1="850" y1="400" x2="875" y2="400" stroke="#4b0082" stroke-width="2.0"/>
<circle cx="862.5" cy="400" r="3" fill="#4b0082"/>
<text x="882" y="404" class="legend-text">LeastCentral</text>
<line x1="850" y1="418" x2="875" y2="418" stroke="#ff1493" stroke-width="2.0"/>
<circle cx="862.5" cy="418" r="3" fill="#ff1493"/>
<text x="882" y="422" class="legend-text">LeastCentral_n</text>
<line x1="850" y1="436" x2="875" y2="436" stroke="#2e8b57" stroke-width="2.0"/>
<circle cx="862.5" cy="436" r="3" fill="#2e8b57"/>
<text x="882" y="440" class="legend-text">MinDegree_hc</text>
<line x1="850" y1="454" x2="875" y2="454" stroke="#d2691e" stroke-width="2.0"/>
<circle cx="862.5" cy="454" r="3" fill="#d2691e"/>
<text x="882" y="458" class="legend-text">MinDegree_hcn</text>
<line x1="850" y1="472" x2="875" y2="472" stroke="#4169e1" stroke-width="2.0"/>
<circle cx="862.5" cy="472" r="3" fill="#4169e1"/>
<text x="882" y="476" class="legend-text">MinDegree_nd</text>
<line x1="850" y1="490" x2="875" y2="490" stroke="#dc143c" stroke-width="2.0"/>
<circle cx="862.5" cy="490" r="3" fill="#dc143c"/>
<text x="882" y="494" class="legend-text">MinDegree_ndn</text>
</svg>