<svg xmlns="http://www.w3.org/2000/svg" viewBox="0 0 1100 650" width="1100" height="650">
<style>
  text { font-family: system-ui, -apple-system, sans-serif; }
  .title { font-size: 16px; font-weight: bold; fill: #111827; }
  .axis-label { font-size: 13px; font-weight: 600; fill: #374151; }
  .tick-text { font-size: 11px; fill: #4b5563; }
  .grid { stroke: #e5e7eb; stroke-width: 1; stroke-dasharray: 4,4; }
  .axis { stroke: #9ca3af; stroke-width: 1.5; }
  .legend-text { font-size: 11px; fill: #1f2937; }
</style>
<rect width="1100" height="650" fill="#ffffff"/>
<text x="435.0" y="35" text-anchor="middle" class="title">Variance of Access Probabilities vs. Seed Set Size (k) - Irvine.txt (alpha=0.10)</text>
<line x1="90" y1="570.0" x2="780" y2="570.0" class="grid"/>
<text x="80" y="574.0" text-anchor="end" class="tick-text">0.0000</text>
<line x1="90" y1="486.6666666666667" x2="780" y2="486.6666666666667" class="grid"/>
<text x="80" y="490.6666666666667" text-anchor="end" class="tick-text">0.0436</text>
<line x1="90" y1="403.33333333333337" x2="780" y2="403.33333333333337" class="grid"/>
<text x="80" y="407.33333333333337" text-anchor="end" class="tick-text">0.0872</text>
<line x1="90" y1="320.0" x2="780" y2="320.0" class="grid"/>
<text x="80" y="324.0" text-anchor="end" class="tick-text">0.1308</text>
<line x1="90" y1="236.66666666666669" x2="780" y2="236.66666666666669" class="grid"/>
<text x="80" y="240.66666666666669" text-anchor="end" class="tick-text">0.1744</text>
<line x1="90" y1="153.33333333333331" x2="780" y2="153.33333333333331" class="grid"/>
<text x="80" y="157.33333333333331" text-anchor="end" class="tick-text">0.2180</text>
<line x1="90" y1="70.0" x2="780" y2="70.0" class="grid"/>
<text x="80" y="74.0" text-anchor="end" class="tick-text">0.2616</text>
<line x1="90.0" y1="70" x2="90.0" y2="570" class="grid"/>
<text x="90.0" y="590" text-anchor="middle" class="tick-text">1</text>
<line x1="166.66666666666666" y1="70" x2="166.66666666666666" y2="570" class="grid"/>
<text x="166.66666666666666" y="590" text-anchor="middle" class="tick-text">2</text>
<line x1="243.33333333333331" y1="70" x2="243.33333333333331" y2="570" class="grid"/>
<text x="243.33333333333331" y="590" text-anchor="middle" class="tick-text">3</text>
<line x1="320.0" y1="70" x2="320.0" y2="570" class="grid"/>
<text x="320.0" y="590" text-anchor="middle" class="tick-text">4</text>
<line x1="396.66666666666663" y1="70" x2="396.66666666666663" y2="570" class="grid"/>
<text x="396.66666666666663" y="590" text-anchor="middle" class="tick-text">5</text>
<line x1="473.33333333333337" y1="70" x2="473.33333333333337" y2="570" class="grid"/>
<text x="473.33333333333337" y="590" text-anchor="middle" class="tick-text">6</text>
<line x1="550.0" y1="70" x2="550.0" y2="570" class="grid"/>
<text x="550.0" y="590" text-anchor="middle" class="tick-text">7</text>
<line x1="626.6666666666666" y1="70" x2="626.6666666666666" y2="570" class="grid"/>
<text x="626.6666666666666" y="590" text-anchor="middle" class="tick-text">8</text>
<line x1="703.3333333333333" y1="70" x2="703.3333333333333" y2="570" class="grid"/>
<text x="703.3333333333333" y="590" text-anchor="middle" class="tick-text">9</text>
<line x1="780.0" y1="70" x2="780.0" y2="570" class="grid"/>
<text x="780.0" y="590" text-anchor="middle" class="tick-text">10</text>
<line x1="90" y1="70" x2="90" y2="570" class="axis"/>
<line x1="90" y1="570" x2="780" y2="570" class="axis"/>
<text x="435.0" y="620" text-anchor="middle" class="axis-label">Seed Set Size (k)</text>
<text x="25" y="320.0" text-anchor="middle" transform="rotate(-90 25 320.0)" class="axis-label">Variance of Access Probabilities</text>
<path d="M 90.0,474.3 L 166.7,293.6 L 243.3,293.2 L 320.0,188.8 L 396.7,113.5 L 473.3,94.5 L 550.0,94.7 L 626.7,103.6 L 703.3,104.2 L 780.0,94.5" fill="none" stroke="#9467bd" stroke-width="1.8" stroke-dasharray="6,4" opacity="0.8"/>
<circle cx="90.0" cy="474.3" r="3" fill="#9467bd" opacity="0.9"/>
<circle cx="166.7" cy="293.6" r="3" fill="#9467bd" opacity="0.9"/>
<circle cx="243.3" cy="293.2" r="3" fill="#9467bd" opacity="0.9"/>
<circle cx="320.0" cy="188.8" r="3" fill="#9467bd" opacity="0.9"/>
<circle cx="396.7" cy="113.5" r="3" fill="#9467bd" opacity="0.9"/>
<circle cx="473.3" cy="94.5" r="3" fill="#9467bd" opacity="0.9"/>
<circle cx="550.0" cy="94.7" r="3" fill="#9467bd" opacity="0.9"/>
<circle cx="626.7" cy="103.6" r="3" fill="#9467bd" opacity="0.9"/>
<circle cx="703.3" cy="104.2" r="3" fill="#9467bd" opacity="0.9"/>
<circle cx="780.0" cy="94.5" r="3" fill="#9467bd" opacity="0.9"/>
<path d="M 90.0,94.9 L 166.7,94.7 L 243.3,94.8 L 320.0,94.8 L 396.7,94.4 L 473.3,94.7 L 550.0,94.4 L 626.7,94.5 L 703.3,94.2 L 780.0,94.2" fill="none" stroke="#8c564b" stroke-width="1.8" stroke-dasharray="3,3" opacity="0.8"/>
<circle cx="90.0" cy="94.9" r="3" fill="#8c564b" opacity="0.9"/>
<circle cx="166.7" cy="94.7" r="3" fill="#8c564b" opacity="0.9"/>
<circle cx="243.3" cy="94.8" r="3" fill="#8c564b" opacity="0.9"/>
<circle cx="320.0" cy="94.8" r="3" fill="#8c564b" opacity="0.9"/>
<circle cx="396.7" cy="94.4" r="3" fill="#8c564b" opacity="0.9"/>
<circle cx="473.3" cy="94.7" r="3" fill="#8c564b" opacity="0.9"/>
<circle cx="550.0" cy="94.4" r="3" fill="#8c564b" opacity="0.9"/>
<circle cx="626.7" cy="94.5" r="3" fill="#8c564b" opacity="0.9"/>
<circle cx="703.3" cy="94.2" r="3" fill="#8c564b" opacity="0.9"/>
<circle cx="780.0" cy="94.2" r="3" fill="#8c564b" opacity="0.9"/>
<path d="M 90.0,95.1 L 166.7,95.0 L 243.3,94.7 L 320.0,94.7 L 396.7,94.9 L 473.3,94.6 L 550.0,94.5 L 626.7,94.2 L 703.3,94.4 L 780.0,94.4" fill="none" stroke="#e377c2" stroke-width="1.8" stroke-dasharray="6,4" opacity="0.8"/>
<circle cx="90.0" cy="95.1" r="3" fill="#e377c2" opacity="0.9"/>
<circle cx="166.7" cy="95.0" r="3" fill="#e377c2" opacity="0.9"/>
<circle cx="243.3" cy="94.7" r="3" fill="#e377c2" opacity="0.9"/>
<circle cx="320.0" cy="94.7" r="3" fill="#e377c2" opacity="0.9"/>
<circle cx="396.7" cy="94.9" r="3" fill="#e377c2" opacity="0.9"/>
<circle cx="473.3" cy="94.6" r="3" fill="#e377c2" opacity="0.9"/>
<circle cx="550.0" cy="94.5" r="3" fill="#e377c2" opacity="0.9"/>
<circle cx="626.7" cy="94.2" r="3" fill="#e377c2" opacity="0.9"/>
<circle cx="703.3" cy="94.4" r="3" fill="#e377c2" opacity="0.9"/>
<circle cx="780.0" cy="94.4" r="3" fill="#e377c2" opacity="0.9"/>
<path d="M 90.0,94.8 L 166.7,94.9 L 243.3,94.9 L 320.0,94.7 L 396.7,94.8 L 473.3,95.0 L 550.0,94.2 L 626.7,94.4 L 703.3,94.4 L 780.0,94.5" fill="none" stroke="#7f7f7f" stroke-width="1.8" stroke-dasharray="3,3" opacity="0.8"/>
<circle cx="90.0" cy="94.8" r="3" fill="#7f7f7f" opacity="0.9"/>
<circle cx="166.7" cy="94.9" r="3" fill="#7f7f7f" opacity="0.9"/>
<circle cx="243.3" cy="94.9" r="3" fill="#7f7f7f" opacity="0.9"/>
<circle cx="320.0" cy="94.7" r="3" fill="#7f7f7f" opacity="0.9"/>
<circle cx="396.7" cy="94.8" r="3" fill="#7f7f7f" opacity="0.9"/>
<circle cx="473.3" cy="95.0" r="3" fill="#7f7f7f" opacity="0.9"/>
<circle cx="550.0" cy="94.2" r="3" fill="#7f7f7f" opacity="0.9"/>
<circle cx="626.7" cy="94.4" r="3" fill="#7f7f7f" opacity="0.9"/>
<circle cx="703.3" cy="94.4" r="3" fill="#7f7f7f" opacity="0.9"/>
<circle cx="780.0" cy="94.5" r="3" fill="#7f7f7f" opacity="0.9"/>
<path d="M 90.0,445.8 L 166.7,340.7 L 243.3,321.2 L 320.0,377.1 L 396.7,339.0 L 473.3,375.9 L 550.0,337.8 L 626.7,374.5 L 703.3,290.1 L 780.0,363.6" fill="none" stroke="#bcbd22" stroke-width="1.8" stroke-dasharray="6,4" opacity="0.8"/>
<circle cx="90.0" cy="445.8" r="3" fill="#bcbd22" opacity="0.9"/>
<circle cx="166.7" cy="340.7" r="3" fill="#bcbd22" opacity="0.9"/>
<circle cx="243.3" cy="321.2" r="3" fill="#bcbd22" opacity="0.9"/>
<circle cx="320.0" cy="377.1" r="3" fill="#bcbd22" opacity="0.9"/>
<circle cx="396.7" cy="339.0" r="3" fill="#bcbd22" opacity="0.9"/>
<circle cx="473.3" cy="375.9" r="3" fill="#bcbd22" opacity="0.9"/>
<circle cx="550.0" cy="337.8" r="3" fill="#bcbd22" opacity="0.9"/>
<circle cx="626.7" cy="374.5" r="3" fill="#bcbd22" opacity="0.9"/>
<circle cx="703.3" cy="290.1" r="3" fill="#bcbd22" opacity="0.9"/>
<circle cx="780.0" cy="363.6" r="3" fill="#bcbd22" opacity="0.9"/>
<path d="M 90.0,512.1 L 166.7,501.6 L 243.3,482.2 L 320.0,462.2 L 396.7,471.1 L 473.3,460.6 L 550.0,469.2 L 626.7,449.6 L 703.3,448.9 L 780.0,438.6" fill="none" stroke="#17becf" stroke-width="1.8" stroke-dasharray="3,3" opacity="0.8"/>
<circle cx="90.0" cy="512.1" r="3" fill="#17becf" opacity="0.9"/>
<circle cx="166.7" cy="501.6" r="3" fill="#17becf" opacity="0.9"/>
<circle cx="243.3" cy="482.2" r="3" fill="#17becf" opacity="0.9"/>
<circle cx="320.0" cy="462.2" r="3" fill="#17becf" opacity="0.9"/>
<circle cx="396.7" cy="471.1" r="3" fill="#17becf" opacity="0.9"/>
<circle cx="473.3" cy="460.6" r="3" fill="#17becf" opacity="0.9"/>
<circle cx="550.0" cy="469.2" r="3" fill="#17becf" opacity="0.9"/>
<circle cx="626.7" cy="449.6" r="3" fill="#17becf" opacity="0.9"/>
<circle cx="703.3" cy="448.9" r="3" fill="#17becf" opacity="0.9"/>
<circle cx="780.0" cy="438.6" r="3" fill="#17becf" opacity="0.9"/>
<path d="M 90.0,132.6 L 166.7,123.1 L 243.3,151.4 L 320.0,113.7 L 396.7,122.7 L 473.3,103.6 L 550.0,112.9 L 626.7,113.2 L 703.3,141.3 L 780.0,112.8" fill="none" stroke="#aec7e8" stroke-width="1.8" stroke-dasharray="6,4" opacity="0.8"/>
<circle cx="90.0" cy="132.6" r="3" fill="#aec7e8" opacity="0.9"/>
<circle cx="166.7" cy="123.1" r="3" fill="#aec7e8" opacity="0.9"/>
<circle cx="243.3" cy="151.4" r="3" fill="#aec7e8" opacity="0.9"/>
<circle cx="320.0" cy="113.7" r="3" fill="#aec7e8" opacity="0.9"/>
<circle cx="396.7" cy="122.7" r="3" fill="#aec7e8" opacity="0.9"/>
<circle cx="473.3" cy="103.6" r="3" fill="#aec7e8" opacity="0.9"/>
<circle cx="550.0" cy="112.9" r="3" fill="#aec7e8" opacity="0.9"/>
<circle cx="626.7" cy="113.2" r="3" fill="#aec7e8" opacity="0.9"/>
<circle cx="703.3" cy="141.3" r="3" fill="#aec7e8" opacity="0.9"/>
<circle cx="780.0" cy="112.8" r="3" fill="#aec7e8" opacity="0.9"/>
<path d="M 90.0,464.7 L 166.7,482.7 L 243.3,462.9 L 320.0,480.9 L 396.7,499.0 L 473.3,441.4 L 550.0,422.0 L 626.7,458.5 L 703.3,401.8 L 780.0,409.9" fill="none" stroke="#ffbb78" stroke-width="1.8" stroke-dasharray="3,3" opacity="0.8"/>
<circle cx="90.0" cy="464.7" r="3" fill="#ffbb78" opacity="0.9"/>
<circle cx="166.7" cy="482.7" r="3" fill="#ffbb78" opacity="0.9"/>
<circle cx="243.3" cy="462.9" r="3" fill="#ffbb78" opacity="0.9"/>
<circle cx="320.0" cy="480.9" r="3" fill="#ffbb78" opacity="0.9"/>
<circle cx="396.7" cy="499.0" r="3" fill="#ffbb78" opacity="0.9"/>
<circle cx="473.3" cy="441.4" r="3" fill="#ffbb78" opacity="0.9"/>
<circle cx="550.0" cy="422.0" r="3" fill="#ffbb78" opacity="0.9"/>
<circle cx="626.7" cy="458.5" r="3" fill="#ffbb78" opacity="0.9"/>
<circle cx="703.3" cy="401.8" r="3" fill="#ffbb78" opacity="0.9"/>
<circle cx="780.0" cy="409.9" r="3" fill="#ffbb78" opacity="0.9"/>
<path d="M 90.0,303.7 L 166.7,322.0 L 243.3,349.8 L 320.0,415.0 L 396.7,367.3 L 473.3,357.4 L 550.0,282.1 L 626.7,356.2 L 703.3,336.9 L 780.0,345.3" fill="none" stroke="#98df8a" stroke-width="1.8" stroke-dasharray="6,4" opacity="0.8"/>
<circle cx="90.0" cy="303.7" r="3" fill="#98df8a" opacity="0.9"/>
<circle cx="166.7" cy="322.0" r="3" fill="#98df8a" opacity="0.9"/>
<circle cx="243.3" cy="349.8" r="3" fill="#98df8a" opacity="0.9"/>
<circle cx="320.0" cy="415.0" r="3" fill="#98df8a" opacity="0.9"/>
<circle cx="396.7" cy="367.3" r="3" fill="#98df8a" opacity="0.9"/>
<circle cx="473.3" cy="357.4" r="3" fill="#98df8a" opacity="0.9"/>
<circle cx="550.0" cy="282.1" r="3" fill="#98df8a" opacity="0.9"/>
<circle cx="626.7" cy="356.2" r="3" fill="#98df8a" opacity="0.9"/>
<circle cx="703.3" cy="336.9" r="3" fill="#98df8a" opacity="0.9"/>
<circle cx="780.0" cy="345.3" r="3" fill="#98df8a" opacity="0.9"/>
<path d="M 90.0,113.7 L 166.7,122.9 L 243.3,104.4 L 320.0,113.8 L 396.7,94.9 L 473.3,104.3 L 550.0,104.5 L 626.7,104.6 L 703.3,94.7 L 780.0,123.4" fill="none" stroke="#ff9896" stroke-width="1.8" stroke-dasharray="3,3" opacity="0.8"/>
<circle cx="90.0" cy="113.7" r="3" fill="#ff9896" opacity="0.9"/>
<circle cx="166.7" cy="122.9" r="3" fill="#ff9896" opacity="0.9"/>
<circle cx="243.3" cy="104.4" r="3" fill="#ff9896" opacity="0.9"/>
<circle cx="320.0" cy="113.8" r="3" fill="#ff9896" opacity="0.9"/>
<circle cx="396.7" cy="94.9" r="3" fill="#ff9896" opacity="0.9"/>
<circle cx="473.3" cy="104.3" r="3" fill="#ff9896" opacity="0.9"/>
<circle cx="550.0" cy="104.5" r="3" fill="#ff9896" opacity="0.9"/>
<circle cx="626.7" cy="104.6" r="3" fill="#ff9896" opacity="0.9"/>
<circle cx="703.3" cy="94.7" r="3" fill="#ff9896" opacity="0.9"/>
<circle cx="780.0" cy="123.4" r="3" fill="#ff9896" opacity="0.9"/>
<path d="M 90.0,113.8 L 166.7,114.0 L 243.3,122.8 L 320.0,94.7 L 396.7,132.2 L 473.3,132.3 L 550.0,122.8 L 626.7,94.5 L 703.3,94.6 L 780.0,131.4" fill="none" stroke="#c5b0d5" stroke-width="1.8" stroke-dasharray="6,4" opacity="0.8"/>
<circle cx="90.0" cy="113.8" r="3" fill="#c5b0d5" opacity="0.9"/>
<circle cx="166.7" cy="114.0" r="3" fill="#c5b0d5" opacity="0.9"/>
<circle cx="243.3" cy="122.8" r="3" fill="#c5b0d5" opacity="0.9"/>
<circle cx="320.0" cy="94.7" r="3" fill="#c5b0d5" opacity="0.9"/>
<circle cx="396.7" cy="132.2" r="3" fill="#c5b0d5" opacity="0.9"/>
<circle cx="473.3" cy="132.3" r="3" fill="#c5b0d5" opacity="0.9"/>
<circle cx="550.0" cy="122.8" r="3" fill="#c5b0d5" opacity="0.9"/>
<circle cx="626.7" cy="94.5" r="3" fill="#c5b0d5" opacity="0.9"/>
<circle cx="703.3" cy="94.6" r="3" fill="#c5b0d5" opacity="0.9"/>
<circle cx="780.0" cy="131.4" r="3" fill="#c5b0d5" opacity="0.9"/>
<path d="M 90.0,312.8 L 166.7,302.9 L 243.3,378.5 L 320.0,321.5 L 396.7,331.0 L 473.3,321.8 L 550.0,236.6 L 626.7,302.8 L 703.3,340.2 L 780.0,293.0" fill="none" stroke="#c49c94" stroke-width="1.8" stroke-dasharray="3,3" opacity="0.8"/>
<circle cx="90.0" cy="312.8" r="3" fill="#c49c94" opacity="0.9"/>
<circle cx="166.7" cy="302.9" r="3" fill="#c49c94" opacity="0.9"/>
<circle cx="243.3" cy="378.5" r="3" fill="#c49c94" opacity="0.9"/>
<circle cx="320.0" cy="321.5" r="3" fill="#c49c94" opacity="0.9"/>
<circle cx="396.7" cy="331.0" r="3" fill="#c49c94" opacity="0.9"/>
<circle cx="473.3" cy="321.8" r="3" fill="#c49c94" opacity="0.9"/>
<circle cx="550.0" cy="236.6" r="3" fill="#c49c94" opacity="0.9"/>
<circle cx="626.7" cy="302.8" r="3" fill="#c49c94" opacity="0.9"/>
<circle cx="703.3" cy="340.2" r="3" fill="#c49c94" opacity="0.9"/>
<circle cx="780.0" cy="293.0" r="3" fill="#c49c94" opacity="0.9"/>
<path d="M 90.0,483.5 L 166.7,388.0 L 243.3,378.0 L 320.0,358.6 L 396.7,311.0 L 473.3,301.1 L 550.0,347.6 L 626.7,281.2 L 703.3,225.0 L 780.0,271.0" fill="none" stroke="#f7b6d2" stroke-width="1.8" stroke-dasharray="6,4" opacity="0.8"/>
<circle cx="90.0" cy="483.5" r="3" fill="#f7b6d2" opacity="0.9"/>
<circle cx="166.7" cy="388.0" r="3" fill="#f7b6d2" opacity="0.9"/>
<circle cx="243.3" cy="378.0" r="3" fill="#f7b6d2" opacity="0.9"/>
<circle cx="320.0" cy="358.6" r="3" fill="#f7b6d2" opacity="0.9"/>
<circle cx="396.7" cy="311.0" r="3" fill="#f7b6d2" opacity="0.9"/>
<circle cx="473.3" cy="301.1" r="3" fill="#f7b6d2" opacity="0.9"/>
<circle cx="550.0" cy="347.6" r="3" fill="#f7b6d2" opacity="0.9"/>
<circle cx="626.7" cy="281.2" r="3" fill="#f7b6d2" opacity="0.9"/>
<circle cx="703.3" cy="225.0" r="3" fill="#f7b6d2" opacity="0.9"/>
<circle cx="780.0" cy="271.0" r="3" fill="#f7b6d2" opacity="0.9"/>
<path d="M 90.0,550.1 L 166.7,95.2 L 243.3,94.5 L 320.0,94.0 L 396.7,93.7 L 473.3,93.5 L 550.0,93.4 L 626.7,93.0 L 703.3,93.0 L 780.0,92.9" fill="none" stroke="#c7c7c7" stroke-width="1.8" stroke-dasharray="3,3" opacity="0.8"/>
<circle cx="90.0" cy="550.1" r="3" fill="#c7c7c7" opacity="0.9"/>
<circle cx="166.7" cy="95.2" r="3" fill="#c7c7c7" opacity="0.9"/>
<circle cx="243.3" cy="94.5" r="3" fill="#c7c7c7" opacity="0.9"/>
<circle cx="320.0" cy="94.0" r="3" fill="#c7c7c7" opacity="0.9"/>
<circle cx="396.7" cy="93.7" r="3" fill="#c7c7c7" opacity="0.9"/>
<circle cx="473.3" cy="93.5" r="3" fill="#c7c7c7" opacity="0.9"/>
<circle cx="550.0" cy="93.4" r="3" fill="#c7c7c7" opacity="0.9"/>
<circle cx="626.7" cy="93.0" r="3" fill="#c7c7c7" opacity="0.9"/>
<circle cx="703.3" cy="93.0" r="3" fill="#c7c7c7" opacity="0.9"/>
<circle cx="780.0" cy="92.9" r="3" fill="#c7c7c7" opacity="0.9"/>
<path d="M 90.0,95.5 L 166.7,95.2 L 243.3,95.3 L 320.0,95.4 L 396.7,95.4 L 473.3,95.4 L 550.0,95.2 L 626.7,95.3 L 703.3,95.3 L 780.0,95.3" fill="none" stroke="#1f77b4" stroke-width="3.5"/>
<circle cx="90.0" cy="95.5" r="5.5" fill="#1f77b4" stroke="#ffffff" stroke-width="1.5"/>
<circle cx="166.7" cy="95.2" r="5.5" fill="#1f77b4" stroke="#ffffff" stroke-width="1.5"/>
<circle cx="243.3" cy="95.3" r="5.5" fill="#1f77b4" stroke="#ffffff" stroke-width="1.5"/>
<circle cx="320.0" cy="95.4" r="5.5" fill="#1f77b4" stroke="#ffffff" stroke-width="1.5"/>
<circle cx="396.7" cy="95.4" r="5.5" fill="#1f77b4" stroke="#ffffff" stroke-width="1.5"/>
<circle cx="473.3" cy="95.4" r="5.5" fill="#1f77b4" stroke="#ffffff" stroke-width="1.5"/>
<circle cx="550.0" cy="95.2" r="5.5" fill="#1f77b4" stroke="#ffffff" stroke-width="1.5"/>
<circle cx="626.7" cy="95.3" r="5.5" fill="#1f77b4" stroke="#ffffff" stroke-width="1.5"/>
<circle cx="703.3" cy="95.3" r="5.5" fill="#1f77b4" stroke="#ffffff" stroke-width="1.5"/>
<circle cx="780.0" cy="95.3" r="5.5" fill="#1f77b4" stroke="#ffffff" stroke-width="1.5"/>
<path d="M 90.0,95.4 L 166.7,95.4 L 243.3,95.1 L 320.0,95.3 L 396.7,95.1 L 473.3,95.2 L 550.0,95.3 L 626.7,95.2 L 703.3,95.1 L 780.0,95.1" fill="none" stroke="#ff7f0e" stroke-width="3.5"/>
<circle cx="90.0" cy="95.4" r="5.5" fill="#ff7f0e" stroke="#ffffff" stroke-width="1.5"/>
<circle cx="166.7" cy="95.4" r="5.5" fill="#ff7f0e" stroke="#ffffff" stroke-width="1.5"/>
<circle cx="243.3" cy="95.1" r="5.5" fill="#ff7f0e" stroke="#ffffff" stroke-width="1.5"/>
<circle cx="320.0" cy="95.3" r="5.5" fill="#ff7f0e" stroke="#ffffff" stroke-width="1.5"/>
<circle cx="396.7" cy="95.1" r="5.5" fill="#ff7f0e" stroke="#ffffff" stroke-width="1.5"/>
<circle cx="473.3" cy="95.2" r="5.5" fill="#ff7f0e" stroke="#ffffff" stroke-width="1.5"/>
<circle cx="550.0" cy="95.3" r="5.5" fill="#ff7f0e" stroke="#ffffff" stroke-width="1.5"/>
<circle cx="626.7" cy="95.2" r="5.5" fill="#ff7f0e" stroke="#ffffff" stroke-width="1.5"/>
<circle cx="703.3" cy="95.1" r="5.5" fill="#ff7f0e" stroke="#ffffff" stroke-width="1.5"/>
<circle cx="780.0" cy="95.1" r="5.5" fill="#ff7f0e" stroke="#ffffff" stroke-width="1.5"/>
<path d="M 90.0,95.3 L 166.7,95.3 L 243.3,95.4 L 320.0,95.3 L 396.7,95.2 L 473.3,95.2 L 550.0,95.5 L 626.7,95.4 L 703.3,95.3 L 780.0,95.3" fill="none" stroke="#2ca02c" stroke-width="3.5"/>
<circle cx="90.0" cy="95.3" r="5.5" fill="#2ca02c" stroke="#ffffff" stroke-width="1.5"/>
<circle cx="166.7" cy="95.3" r="5.5" fill="#2ca02c" stroke="#ffffff" stroke-width="1.5"/>
<circle cx="243.3" cy="95.4" r="5.5" fill="#2ca02c" stroke="#ffffff" stroke-width="1.5"/>
<circle cx="320.0" cy="95.3" r="5.5" fill="#2ca02c" stroke="#ffffff" stroke-width="1.5"/>
<circle cx="396.7" cy="95.2" r="5.5" fill="#2ca02c" stroke="#ffffff" stroke-width="1.5"/>
<circle cx="473.3" cy="95.2" r="5.5" fill="#2ca02c" stroke="#ffffff" stroke-width="1.5"/>
<circle cx="550.0" cy="95.5" r="5.5" fill="#2ca02c" stroke="#ffffff" stroke-width="1.5"/>
<circle cx="626.7" cy="95.4" r="5.5" fill="#2ca02c" stroke="#ffffff" stroke-width="1.5"/>
<circle cx="703.3" cy="95.3" r="5.5" fill="#2ca02c" stroke="#ffffff" stroke-width="1.5"/>
<circle cx="780.0" cy="95.3" r="5.5" fill="#2ca02c" stroke="#ffffff" stroke-width="1.5"/>
<path d="M 90.0,95.5 L 166.7,95.4 L 243.3,95.2 L 320.0,95.1 L 396.7,95.2 L 473.3,95.1 L 550.0,95.4 L 626.7,95.1 L 703.3,95.0 L 780.0,94.9" fill="none" stroke="#d62728" stroke-width="3.5"/>
<circle cx="90.0" cy="95.5" r="5.5" fill="#d62728" stroke="#ffffff" stroke-width="1.5"/>
<circle cx="166.7" cy="95.4" r="5.5" fill="#d62728" stroke="#ffffff" stroke-width="1.5"/>
<circle cx="243.3" cy="95.2" r="5.5" fill="#d62728" stroke="#ffffff" stroke-width="1.5"/>
<circle cx="320.0" cy="95.1" r="5.5" fill="#d62728" stroke="#ffffff" stroke-width="1.5"/>
<circle cx="396.7" cy="95.2" r="5.5" fill="#d62728" stroke="#ffffff" stroke-width="1.5"/>
<circle cx="473.3" cy="95.1" r="5.5" fill="#d62728" stroke="#ffffff" stroke-width="1.5"/>
<circle cx="550.0" cy="95.4" r="5.5" fill="#d62728" stroke="#ffffff" stroke-width="1.5"/>
<circle cx="626.7" cy="95.1" r="5.5" fill="#d62728" stroke="#ffffff" stroke-width="1.5"/>
<circle cx="703.3" cy="95.0" r="5.5" fill="#d62728" stroke="#ffffff" stroke-width="1.5"/>
<circle cx="780.0" cy="94.9" r="5.5" fill="#d62728" stroke="#ffffff" stroke-width="1.5"/>
<rect x="800" y="65" width="280" height="520" fill="#f9fafb" stroke="#e5e7eb" rx="6"/>
<text x="810" y="85" font-weight="bold" class="legend-text">Propagation-Aware Envelopes (Min Var/k):</text>
<line x1="810" y1="105" x2="835" y2="105" stroke="#1f77b4" stroke-width="3.5"/>
<circle cx="822.5" cy="105" r="4" fill="#1f77b4"/>
<text x="842" y="109" class="legend-text" font-weight="600">Prop-Aware Additive</text>
<line x1="810" y1="127" x2="835" y2="127" stroke="#ff7f0e" stroke-width="3.5"/>
<circle cx="822.5" cy="127" r="4" fill="#ff7f0e"/>
<text x="842" y="131" class="legend-text" font-weight="600">Prop-Aware Multiplicative</text>
<line x1="810" y1="149" x2="835" y2="149" stroke="#2ca02c" stroke-width="3.5"/>
<circle cx="822.5" cy="149" r="4" fill="#2ca02c"/>
<text x="842" y="153" class="legend-text" font-weight="600">Prop-Aware Additive KCore</text>
<line x1="810" y1="171" x2="835" y2="171" stroke="#d62728" stroke-width="3.5"/>
<circle cx="822.5" cy="171" r="4" fill="#d62728"/>
<text x="842" y="175" class="legend-text" font-weight="600">Prop-Aware Multiplicative KCore</text>
<text x="810" y="203" font-weight="bold" class="legend-text">Baseline / Existing Algorithms:</text>
<line x1="810" y1="223" x2="835" y2="223" stroke="#9467bd" stroke-width="1.8" stroke-dasharray="6,4"/>
<circle cx="822.5" cy="223" r="3" fill="#9467bd"/>
<text x="842" y="227" class="legend-text">Random</text>
<line x1="810" y1="243" x2="835" y2="243" stroke="#8c564b" stroke-width="1.8" stroke-dasharray="3,3"/>
<circle cx="822.5" cy="243" r="3" fill="#8c564b"/>
<text x="842" y="247" class="legend-text">Myopic</text>
<line x1="810" y1="263" x2="835" y2="263" stroke="#e377c2" stroke-width="1.8" stroke-dasharray="6,4"/>
<circle cx="822.5" cy="263" r="3" fill="#e377c2"/>
<text x="842" y="267" class="legend-text">Naive Myopic</text>
<line x1="810" y1="283" x2="835" y2="283" stroke="#7f7f7f" stroke-width="1.8" stroke-dasharray="3,3"/>
<circle cx="822.5" cy="283" r="3" fill="#7f7f7f"/>
<text x="842" y="287" class="legend-text">Gonzalez</text>
<line x1="810" y1="303" x2="835" y2="303" stroke="#bcbd22" stroke-width="1.8" stroke-dasharray="6,4"/>
<circle cx="822.5" cy="303" r="3" fill="#bcbd22"/>
<text x="842" y="307" class="legend-text">Myopic BFS</text>
<line x1="810" y1="323" x2="835" y2="323" stroke="#17becf" stroke-width="1.8" stroke-dasharray="3,3"/>
<circle cx="822.5" cy="323" r="3" fill="#17becf"/>
<text x="842" y="327" class="legend-text">Naive Myopic BFS</text>
<line x1="810" y1="343" x2="835" y2="343" stroke="#aec7e8" stroke-width="1.8" stroke-dasharray="6,4"/>
<circle cx="822.5" cy="343" r="3" fill="#aec7e8"/>
<text x="842" y="347" class="legend-text">Myopic PPR</text>
<line x1="810" y1="363" x2="835" y2="363" stroke="#ffbb78" stroke-width="1.8" stroke-dasharray="3,3"/>
<circle cx="822.5" cy="363" r="3" fill="#ffbb78"/>
<text x="842" y="367" class="legend-text">Naive Myopic PPR</text>
<line x1="810" y1="383" x2="835" y2="383" stroke="#98df8a" stroke-width="1.8" stroke-dasharray="6,4"/>
<circle cx="822.5" cy="383" r="3" fill="#98df8a"/>
<text x="842" y="387" class="legend-text">LeastCentral</text>
<line x1="810" y1="403" x2="835" y2="403" stroke="#ff9896" stroke-width="1.8" stroke-dasharray="3,3"/>
<circle cx="822.5" cy="403" r="3" fill="#ff9896"/>
<text x="842" y="407" class="legend-text">LeastCentral_n</text>
<line x1="810" y1="423" x2="835" y2="423" stroke="#c5b0d5" stroke-width="1.8" stroke-dasharray="6,4"/>
<circle cx="822.5" cy="423" r="3" fill="#c5b0d5"/>
<text x="842" y="427" class="legend-text">MinDegree_hc</text>
<line x1="810" y1="443" x2="835" y2="443" stroke="#c49c94" stroke-width="1.8" stroke-dasharray="3,3"/>
<circle cx="822.5" cy="443" r="3" fill="#c49c94"/>
<text x="842" y="447" class="legend-text">MinDegree_hcn</text>
<line x1="810" y1="463" x2="835" y2="463" stroke="#f7b6d2" stroke-width="1.8" stroke-dasharray="6,4"/>
<circle cx="822.5" cy="463" r="3" fill="#f7b6d2"/>
<text x="842" y="467" class="legend-text">MinDegree_nd</text>
<line x1="810" y1="483" x2="835" y2="483" stroke="#c7c7c7" stroke-width="1.8" stroke-dasharray="3,3"/>
<circle cx="822.5" cy="483" r="3" fill="#c7c7c7"/>
<text x="842" y="487" class="legend-text">MinDegree_ndn</text>
</svg>