<svg xmlns="http://www.w3.org/2000/svg" viewBox="0 0 1100 650" width="1100" height="650">
<style>
  text { font-family: system-ui, -apple-system, sans-serif; }
  .title { font-size: 16px; font-weight: bold; fill: #111827; }
  .axis-label { font-size: 13px; font-weight: 600; fill: #374151; }
  .tick-text { font-size: 11px; fill: #4b5563; }
  .grid { stroke: #e5e7eb; stroke-width: 1; stroke-dasharray: 4,4; }
  .axis { stroke: #9ca3af; stroke-width: 1.5; }
  .legend-text { font-size: 11px; fill: #1f2937; }
</style>
<rect width="1100" height="650" fill="#ffffff"/>
<text x="435.0" y="35" text-anchor="middle" class="title">Variance of Access Probabilities vs. Seed Set Size (k) - ca-GrQc.txt (alpha=0.08)</text>
<line x1="90" y1="570.0" x2="780" y2="570.0" class="grid"/>
<text x="80" y="574.0" text-anchor="end" class="tick-text">0.0000</text>
<line x1="90" y1="486.6666666666667" x2="780" y2="486.6666666666667" class="grid"/>
<text x="80" y="490.6666666666667" text-anchor="end" class="tick-text">0.0073</text>
<line x1="90" y1="403.33333333333337" x2="780" y2="403.33333333333337" class="grid"/>
<text x="80" y="407.33333333333337" text-anchor="end" class="tick-text">0.0146</text>
<line x1="90" y1="320.0" x2="780" y2="320.0" class="grid"/>
<text x="80" y="324.0" text-anchor="end" class="tick-text">0.0219</text>
<line x1="90" y1="236.66666666666669" x2="780" y2="236.66666666666669" class="grid"/>
<text x="80" y="240.66666666666669" text-anchor="end" class="tick-text">0.0292</text>
<line x1="90" y1="153.33333333333331" x2="780" y2="153.33333333333331" class="grid"/>
<text x="80" y="157.33333333333331" text-anchor="end" class="tick-text">0.0365</text>
<line x1="90" y1="70.0" x2="780" y2="70.0" class="grid"/>
<text x="80" y="74.0" text-anchor="end" class="tick-text">0.0438</text>
<line x1="90.0" y1="70" x2="90.0" y2="570" class="grid"/>
<text x="90.0" y="590" text-anchor="middle" class="tick-text">1</text>
<line x1="166.66666666666666" y1="70" x2="166.66666666666666" y2="570" class="grid"/>
<text x="166.66666666666666" y="590" text-anchor="middle" class="tick-text">2</text>
<line x1="243.33333333333331" y1="70" x2="243.33333333333331" y2="570" class="grid"/>
<text x="243.33333333333331" y="590" text-anchor="middle" class="tick-text">3</text>
<line x1="320.0" y1="70" x2="320.0" y2="570" class="grid"/>
<text x="320.0" y="590" text-anchor="middle" class="tick-text">4</text>
<line x1="396.66666666666663" y1="70" x2="396.66666666666663" y2="570" class="grid"/>
<text x="396.66666666666663" y="590" text-anchor="middle" class="tick-text">5</text>
<line x1="473.33333333333337" y1="70" x2="473.33333333333337" y2="570" class="grid"/>
<text x="473.33333333333337" y="590" text-anchor="middle" class="tick-text">6</text>
<line x1="550.0" y1="70" x2="550.0" y2="570" class="grid"/>
<text x="550.0" y="590" text-anchor="middle" class="tick-text">7</text>
<line x1="626.6666666666666" y1="70" x2="626.6666666666666" y2="570" class="grid"/>
<text x="626.6666666666666" y="590" text-anchor="middle" class="tick-text">8</text>
<line x1="703.3333333333333" y1="70" x2="703.3333333333333" y2="570" class="grid"/>
<text x="703.3333333333333" y="590" text-anchor="middle" class="tick-text">9</text>
<line x1="780.0" y1="70" x2="780.0" y2="570" class="grid"/>
<text x="780.0" y="590" text-anchor="middle" class="tick-text">10</text>
<line x1="90" y1="70" x2="90" y2="570" class="axis"/>
<line x1="90" y1="570" x2="780" y2="570" class="axis"/>
<text x="435.0" y="620" text-anchor="middle" class="axis-label">Seed Set Size (k)</text>
<text x="25" y="320.0" text-anchor="middle" transform="rotate(-90 25 320.0)" class="axis-label">Variance of Access Probabilities</text>
<path d="M 90.0,567.6 L 166.7,565.4 L 243.3,556.1 L 320.0,532.9 L 396.7,523.6 L 473.3,521.3 L 550.0,501.8 L 626.7,503.0 L 703.3,502.6 L 780.0,472.9" fill="none" stroke="#9467bd" stroke-width="1.8" stroke-dasharray="6,4" opacity="0.8"/>
<circle cx="90.0" cy="567.6" r="3" fill="#9467bd" opacity="0.9"/>
<circle cx="166.7" cy="565.4" r="3" fill="#9467bd" opacity="0.9"/>
<circle cx="243.3" cy="556.1" r="3" fill="#9467bd" opacity="0.9"/>
<circle cx="320.0" cy="532.9" r="3" fill="#9467bd" opacity="0.9"/>
<circle cx="396.7" cy="523.6" r="3" fill="#9467bd" opacity="0.9"/>
<circle cx="473.3" cy="521.3" r="3" fill="#9467bd" opacity="0.9"/>
<circle cx="550.0" cy="501.8" r="3" fill="#9467bd" opacity="0.9"/>
<circle cx="626.7" cy="503.0" r="3" fill="#9467bd" opacity="0.9"/>
<circle cx="703.3" cy="502.6" r="3" fill="#9467bd" opacity="0.9"/>
<circle cx="780.0" cy="472.9" r="3" fill="#9467bd" opacity="0.9"/>
<path d="M 90.0,287.8 L 166.7,279.0 L 243.3,218.5 L 320.0,195.1 L 396.7,164.4 L 473.3,152.7 L 550.0,160.2 L 626.7,130.4 L 703.3,131.0 L 780.0,110.5" fill="none" stroke="#8c564b" stroke-width="1.8" stroke-dasharray="3,3" opacity="0.8"/>
<circle cx="90.0" cy="287.8" r="3" fill="#8c564b" opacity="0.9"/>
<circle cx="166.7" cy="279.0" r="3" fill="#8c564b" opacity="0.9"/>
<circle cx="243.3" cy="218.5" r="3" fill="#8c564b" opacity="0.9"/>
<circle cx="320.0" cy="195.1" r="3" fill="#8c564b" opacity="0.9"/>
<circle cx="396.7" cy="164.4" r="3" fill="#8c564b" opacity="0.9"/>
<circle cx="473.3" cy="152.7" r="3" fill="#8c564b" opacity="0.9"/>
<circle cx="550.0" cy="160.2" r="3" fill="#8c564b" opacity="0.9"/>
<circle cx="626.7" cy="130.4" r="3" fill="#8c564b" opacity="0.9"/>
<circle cx="703.3" cy="131.0" r="3" fill="#8c564b" opacity="0.9"/>
<circle cx="780.0" cy="110.5" r="3" fill="#8c564b" opacity="0.9"/>
<path d="M 90.0,275.7 L 166.7,301.5 L 243.3,294.1 L 320.0,284.2 L 396.7,267.4 L 473.3,285.9 L 550.0,273.6 L 626.7,262.5 L 703.3,274.3 L 780.0,272.5" fill="none" stroke="#e377c2" stroke-width="1.8" stroke-dasharray="6,4" opacity="0.8"/>
<circle cx="90.0" cy="275.7" r="3" fill="#e377c2" opacity="0.9"/>
<circle cx="166.7" cy="301.5" r="3" fill="#e377c2" opacity="0.9"/>
<circle cx="243.3" cy="294.1" r="3" fill="#e377c2" opacity="0.9"/>
<circle cx="320.0" cy="284.2" r="3" fill="#e377c2" opacity="0.9"/>
<circle cx="396.7" cy="267.4" r="3" fill="#e377c2" opacity="0.9"/>
<circle cx="473.3" cy="285.9" r="3" fill="#e377c2" opacity="0.9"/>
<circle cx="550.0" cy="273.6" r="3" fill="#e377c2" opacity="0.9"/>
<circle cx="626.7" cy="262.5" r="3" fill="#e377c2" opacity="0.9"/>
<circle cx="703.3" cy="274.3" r="3" fill="#e377c2" opacity="0.9"/>
<circle cx="780.0" cy="272.5" r="3" fill="#e377c2" opacity="0.9"/>
<path d="M 90.0,273.3 L 166.7,281.1 L 243.3,281.9 L 320.0,263.5 L 396.7,289.7 L 473.3,280.0 L 550.0,267.5 L 626.7,262.0 L 703.3,275.2 L 780.0,264.8" fill="none" stroke="#7f7f7f" stroke-width="1.8" stroke-dasharray="3,3" opacity="0.8"/>
<circle cx="90.0" cy="273.3" r="3" fill="#7f7f7f" opacity="0.9"/>
<circle cx="166.7" cy="281.1" r="3" fill="#7f7f7f" opacity="0.9"/>
<circle cx="243.3" cy="281.9" r="3" fill="#7f7f7f" opacity="0.9"/>
<circle cx="320.0" cy="263.5" r="3" fill="#7f7f7f" opacity="0.9"/>
<circle cx="396.7" cy="289.7" r="3" fill="#7f7f7f" opacity="0.9"/>
<circle cx="473.3" cy="280.0" r="3" fill="#7f7f7f" opacity="0.9"/>
<circle cx="550.0" cy="267.5" r="3" fill="#7f7f7f" opacity="0.9"/>
<circle cx="626.7" cy="262.0" r="3" fill="#7f7f7f" opacity="0.9"/>
<circle cx="703.3" cy="275.2" r="3" fill="#7f7f7f" opacity="0.9"/>
<circle cx="780.0" cy="264.8" r="3" fill="#7f7f7f" opacity="0.9"/>
<path d="M 90.0,563.6 L 166.7,563.9 L 243.3,556.2 L 320.0,559.1 L 396.7,555.9 L 473.3,553.6 L 550.0,546.5 L 626.7,549.0 L 703.3,547.2 L 780.0,545.3" fill="none" stroke="#bcbd22" stroke-width="1.8" stroke-dasharray="6,4" opacity="0.8"/>
<circle cx="90.0" cy="563.6" r="3" fill="#bcbd22" opacity="0.9"/>
<circle cx="166.7" cy="563.9" r="3" fill="#bcbd22" opacity="0.9"/>
<circle cx="243.3" cy="556.2" r="3" fill="#bcbd22" opacity="0.9"/>
<circle cx="320.0" cy="559.1" r="3" fill="#bcbd22" opacity="0.9"/>
<circle cx="396.7" cy="555.9" r="3" fill="#bcbd22" opacity="0.9"/>
<circle cx="473.3" cy="553.6" r="3" fill="#bcbd22" opacity="0.9"/>
<circle cx="550.0" cy="546.5" r="3" fill="#bcbd22" opacity="0.9"/>
<circle cx="626.7" cy="549.0" r="3" fill="#bcbd22" opacity="0.9"/>
<circle cx="703.3" cy="547.2" r="3" fill="#bcbd22" opacity="0.9"/>
<circle cx="780.0" cy="545.3" r="3" fill="#bcbd22" opacity="0.9"/>
<path d="M 90.0,562.7 L 166.7,562.5 L 243.3,561.0 L 320.0,559.4 L 396.7,554.9 L 473.3,551.5 L 550.0,549.4 L 626.7,547.5 L 703.3,541.8 L 780.0,542.9" fill="none" stroke="#17becf" stroke-width="1.8" stroke-dasharray="3,3" opacity="0.8"/>
<circle cx="90.0" cy="562.7" r="3" fill="#17becf" opacity="0.9"/>
<circle cx="166.7" cy="562.5" r="3" fill="#17becf" opacity="0.9"/>
<circle cx="243.3" cy="561.0" r="3" fill="#17becf" opacity="0.9"/>
<circle cx="320.0" cy="559.4" r="3" fill="#17becf" opacity="0.9"/>
<circle cx="396.7" cy="554.9" r="3" fill="#17becf" opacity="0.9"/>
<circle cx="473.3" cy="551.5" r="3" fill="#17becf" opacity="0.9"/>
<circle cx="550.0" cy="549.4" r="3" fill="#17becf" opacity="0.9"/>
<circle cx="626.7" cy="547.5" r="3" fill="#17becf" opacity="0.9"/>
<circle cx="703.3" cy="541.8" r="3" fill="#17becf" opacity="0.9"/>
<circle cx="780.0" cy="542.9" r="3" fill="#17becf" opacity="0.9"/>
<path d="M 90.0,567.2 L 166.7,564.6 L 243.3,556.5 L 320.0,551.5 L 396.7,544.6 L 473.3,546.2 L 550.0,539.5 L 626.7,536.3 L 703.3,532.1 L 780.0,530.9" fill="none" stroke="#aec7e8" stroke-width="1.8" stroke-dasharray="6,4" opacity="0.8"/>
<circle cx="90.0" cy="567.2" r="3" fill="#aec7e8" opacity="0.9"/>
<circle cx="166.7" cy="564.6" r="3" fill="#aec7e8" opacity="0.9"/>
<circle cx="243.3" cy="556.5" r="3" fill="#aec7e8" opacity="0.9"/>
<circle cx="320.0" cy="551.5" r="3" fill="#aec7e8" opacity="0.9"/>
<circle cx="396.7" cy="544.6" r="3" fill="#aec7e8" opacity="0.9"/>
<circle cx="473.3" cy="546.2" r="3" fill="#aec7e8" opacity="0.9"/>
<circle cx="550.0" cy="539.5" r="3" fill="#aec7e8" opacity="0.9"/>
<circle cx="626.7" cy="536.3" r="3" fill="#aec7e8" opacity="0.9"/>
<circle cx="703.3" cy="532.1" r="3" fill="#aec7e8" opacity="0.9"/>
<circle cx="780.0" cy="530.9" r="3" fill="#aec7e8" opacity="0.9"/>
<path d="M 90.0,565.1 L 166.7,560.2 L 243.3,548.2 L 320.0,547.8 L 396.7,549.8 L 473.3,526.3 L 550.0,530.2 L 626.7,518.5 L 703.3,511.1 L 780.0,516.3" fill="none" stroke="#ffbb78" stroke-width="1.8" stroke-dasharray="3,3" opacity="0.8"/>
<circle cx="90.0" cy="565.1" r="3" fill="#ffbb78" opacity="0.9"/>
<circle cx="166.7" cy="560.2" r="3" fill="#ffbb78" opacity="0.9"/>
<circle cx="243.3" cy="548.2" r="3" fill="#ffbb78" opacity="0.9"/>
<circle cx="320.0" cy="547.8" r="3" fill="#ffbb78" opacity="0.9"/>
<circle cx="396.7" cy="549.8" r="3" fill="#ffbb78" opacity="0.9"/>
<circle cx="473.3" cy="526.3" r="3" fill="#ffbb78" opacity="0.9"/>
<circle cx="550.0" cy="530.2" r="3" fill="#ffbb78" opacity="0.9"/>
<circle cx="626.7" cy="518.5" r="3" fill="#ffbb78" opacity="0.9"/>
<circle cx="703.3" cy="511.1" r="3" fill="#ffbb78" opacity="0.9"/>
<circle cx="780.0" cy="516.3" r="3" fill="#ffbb78" opacity="0.9"/>
<path d="M 90.0,566.9 L 166.7,565.0 L 243.3,562.9 L 320.0,560.5 L 396.7,558.1 L 473.3,556.0 L 550.0,553.6 L 626.7,551.3 L 703.3,549.1 L 780.0,546.3" fill="none" stroke="#98df8a" stroke-width="1.8" stroke-dasharray="6,4" opacity="0.8"/>
<circle cx="90.0" cy="566.9" r="3" fill="#98df8a" opacity="0.9"/>
<circle cx="166.7" cy="565.0" r="3" fill="#98df8a" opacity="0.9"/>
<circle cx="243.3" cy="562.9" r="3" fill="#98df8a" opacity="0.9"/>
<circle cx="320.0" cy="560.5" r="3" fill="#98df8a" opacity="0.9"/>
<circle cx="396.7" cy="558.1" r="3" fill="#98df8a" opacity="0.9"/>
<circle cx="473.3" cy="556.0" r="3" fill="#98df8a" opacity="0.9"/>
<circle cx="550.0" cy="553.6" r="3" fill="#98df8a" opacity="0.9"/>
<circle cx="626.7" cy="551.3" r="3" fill="#98df8a" opacity="0.9"/>
<circle cx="703.3" cy="549.1" r="3" fill="#98df8a" opacity="0.9"/>
<circle cx="780.0" cy="546.3" r="3" fill="#98df8a" opacity="0.9"/>
<path d="M 90.0,560.3 L 166.7,547.2 L 243.3,557.5 L 320.0,445.3 L 396.7,449.5 L 473.3,418.8 L 550.0,419.3 L 626.7,420.3 L 703.3,398.0 L 780.0,395.2" fill="none" stroke="#ff9896" stroke-width="1.8" stroke-dasharray="3,3" opacity="0.8"/>
<circle cx="90.0" cy="560.3" r="3" fill="#ff9896" opacity="0.9"/>
<circle cx="166.7" cy="547.2" r="3" fill="#ff9896" opacity="0.9"/>
<circle cx="243.3" cy="557.5" r="3" fill="#ff9896" opacity="0.9"/>
<circle cx="320.0" cy="445.3" r="3" fill="#ff9896" opacity="0.9"/>
<circle cx="396.7" cy="449.5" r="3" fill="#ff9896" opacity="0.9"/>
<circle cx="473.3" cy="418.8" r="3" fill="#ff9896" opacity="0.9"/>
<circle cx="550.0" cy="419.3" r="3" fill="#ff9896" opacity="0.9"/>
<circle cx="626.7" cy="420.3" r="3" fill="#ff9896" opacity="0.9"/>
<circle cx="703.3" cy="398.0" r="3" fill="#ff9896" opacity="0.9"/>
<circle cx="780.0" cy="395.2" r="3" fill="#ff9896" opacity="0.9"/>
<path d="M 90.0,567.6 L 166.7,565.5 L 243.3,563.1 L 320.0,560.9 L 396.7,558.4 L 473.3,556.4 L 550.0,553.3 L 626.7,551.6 L 703.3,548.9 L 780.0,547.2" fill="none" stroke="#c5b0d5" stroke-width="1.8" stroke-dasharray="6,4" opacity="0.8"/>
<circle cx="90.0" cy="567.6" r="3" fill="#c5b0d5" opacity="0.9"/>
<circle cx="166.7" cy="565.5" r="3" fill="#c5b0d5" opacity="0.9"/>
<circle cx="243.3" cy="563.1" r="3" fill="#c5b0d5" opacity="0.9"/>
<circle cx="320.0" cy="560.9" r="3" fill="#c5b0d5" opacity="0.9"/>
<circle cx="396.7" cy="558.4" r="3" fill="#c5b0d5" opacity="0.9"/>
<circle cx="473.3" cy="556.4" r="3" fill="#c5b0d5" opacity="0.9"/>
<circle cx="550.0" cy="553.3" r="3" fill="#c5b0d5" opacity="0.9"/>
<circle cx="626.7" cy="551.6" r="3" fill="#c5b0d5" opacity="0.9"/>
<circle cx="703.3" cy="548.9" r="3" fill="#c5b0d5" opacity="0.9"/>
<circle cx="780.0" cy="547.2" r="3" fill="#c5b0d5" opacity="0.9"/>
<path d="M 90.0,567.2 L 166.7,540.7 L 243.3,467.5 L 320.0,416.9 L 396.7,447.6 L 473.3,462.5 L 550.0,432.2 L 626.7,361.5 L 703.3,398.7 L 780.0,364.2" fill="none" stroke="#c49c94" stroke-width="1.8" stroke-dasharray="3,3" opacity="0.8"/>
<circle cx="90.0" cy="567.2" r="3" fill="#c49c94" opacity="0.9"/>
<circle cx="166.7" cy="540.7" r="3" fill="#c49c94" opacity="0.9"/>
<circle cx="243.3" cy="467.5" r="3" fill="#c49c94" opacity="0.9"/>
<circle cx="320.0" cy="416.9" r="3" fill="#c49c94" opacity="0.9"/>
<circle cx="396.7" cy="447.6" r="3" fill="#c49c94" opacity="0.9"/>
<circle cx="473.3" cy="462.5" r="3" fill="#c49c94" opacity="0.9"/>
<circle cx="550.0" cy="432.2" r="3" fill="#c49c94" opacity="0.9"/>
<circle cx="626.7" cy="361.5" r="3" fill="#c49c94" opacity="0.9"/>
<circle cx="703.3" cy="398.7" r="3" fill="#c49c94" opacity="0.9"/>
<circle cx="780.0" cy="364.2" r="3" fill="#c49c94" opacity="0.9"/>
<path d="M 90.0,561.3 L 166.7,561.9 L 243.3,519.9 L 320.0,485.0 L 396.7,485.5 L 473.3,487.0 L 550.0,452.6 L 626.7,441.2 L 703.3,422.6 L 780.0,458.0" fill="none" stroke="#f7b6d2" stroke-width="1.8" stroke-dasharray="6,4" opacity="0.8"/>
<circle cx="90.0" cy="561.3" r="3" fill="#f7b6d2" opacity="0.9"/>
<circle cx="166.7" cy="561.9" r="3" fill="#f7b6d2" opacity="0.9"/>
<circle cx="243.3" cy="519.9" r="3" fill="#f7b6d2" opacity="0.9"/>
<circle cx="320.0" cy="485.0" r="3" fill="#f7b6d2" opacity="0.9"/>
<circle cx="396.7" cy="485.5" r="3" fill="#f7b6d2" opacity="0.9"/>
<circle cx="473.3" cy="487.0" r="3" fill="#f7b6d2" opacity="0.9"/>
<circle cx="550.0" cy="452.6" r="3" fill="#f7b6d2" opacity="0.9"/>
<circle cx="626.7" cy="441.2" r="3" fill="#f7b6d2" opacity="0.9"/>
<circle cx="703.3" cy="422.6" r="3" fill="#f7b6d2" opacity="0.9"/>
<circle cx="780.0" cy="458.0" r="3" fill="#f7b6d2" opacity="0.9"/>
<path d="M 90.0,501.7 L 166.7,495.1 L 243.3,495.6 L 320.0,484.7 L 396.7,465.3 L 473.3,486.5 L 550.0,471.2 L 626.7,476.7 L 703.3,471.1 L 780.0,362.2" fill="none" stroke="#c7c7c7" stroke-width="1.8" stroke-dasharray="3,3" opacity="0.8"/>
<circle cx="90.0" cy="501.7" r="3" fill="#c7c7c7" opacity="0.9"/>
<circle cx="166.7" cy="495.1" r="3" fill="#c7c7c7" opacity="0.9"/>
<circle cx="243.3" cy="495.6" r="3" fill="#c7c7c7" opacity="0.9"/>
<circle cx="320.0" cy="484.7" r="3" fill="#c7c7c7" opacity="0.9"/>
<circle cx="396.7" cy="465.3" r="3" fill="#c7c7c7" opacity="0.9"/>
<circle cx="473.3" cy="486.5" r="3" fill="#c7c7c7" opacity="0.9"/>
<circle cx="550.0" cy="471.2" r="3" fill="#c7c7c7" opacity="0.9"/>
<circle cx="626.7" cy="476.7" r="3" fill="#c7c7c7" opacity="0.9"/>
<circle cx="703.3" cy="471.1" r="3" fill="#c7c7c7" opacity="0.9"/>
<circle cx="780.0" cy="362.2" r="3" fill="#c7c7c7" opacity="0.9"/>
<path d="M 90.0,551.3 L 166.7,291.7 L 243.3,198.8 L 320.0,178.9 L 396.7,161.6 L 473.3,153.4 L 550.0,134.0 L 626.7,113.6 L 703.3,111.4 L 780.0,106.6" fill="none" stroke="#1f77b4" stroke-width="3.5"/>
<circle cx="90.0" cy="551.3" r="5.5" fill="#1f77b4" stroke="#ffffff" stroke-width="1.5"/>
<circle cx="166.7" cy="291.7" r="5.5" fill="#1f77b4" stroke="#ffffff" stroke-width="1.5"/>
<circle cx="243.3" cy="198.8" r="5.5" fill="#1f77b4" stroke="#ffffff" stroke-width="1.5"/>
<circle cx="320.0" cy="178.9" r="5.5" fill="#1f77b4" stroke="#ffffff" stroke-width="1.5"/>
<circle cx="396.7" cy="161.6" r="5.5" fill="#1f77b4" stroke="#ffffff" stroke-width="1.5"/>
<circle cx="473.3" cy="153.4" r="5.5" fill="#1f77b4" stroke="#ffffff" stroke-width="1.5"/>
<circle cx="550.0" cy="134.0" r="5.5" fill="#1f77b4" stroke="#ffffff" stroke-width="1.5"/>
<circle cx="626.7" cy="113.6" r="5.5" fill="#1f77b4" stroke="#ffffff" stroke-width="1.5"/>
<circle cx="703.3" cy="111.4" r="5.5" fill="#1f77b4" stroke="#ffffff" stroke-width="1.5"/>
<circle cx="780.0" cy="106.6" r="5.5" fill="#1f77b4" stroke="#ffffff" stroke-width="1.5"/>
<path d="M 90.0,555.4 L 166.7,492.9 L 243.3,466.7 L 320.0,377.9 L 396.7,293.4 L 473.3,277.7 L 550.0,267.1 L 626.7,260.5 L 703.3,219.5 L 780.0,191.7" fill="none" stroke="#ff7f0e" stroke-width="3.5"/>
<circle cx="90.0" cy="555.4" r="5.5" fill="#ff7f0e" stroke="#ffffff" stroke-width="1.5"/>
<circle cx="166.7" cy="492.9" r="5.5" fill="#ff7f0e" stroke="#ffffff" stroke-width="1.5"/>
<circle cx="243.3" cy="466.7" r="5.5" fill="#ff7f0e" stroke="#ffffff" stroke-width="1.5"/>
<circle cx="320.0" cy="377.9" r="5.5" fill="#ff7f0e" stroke="#ffffff" stroke-width="1.5"/>
<circle cx="396.7" cy="293.4" r="5.5" fill="#ff7f0e" stroke="#ffffff" stroke-width="1.5"/>
<circle cx="473.3" cy="277.7" r="5.5" fill="#ff7f0e" stroke="#ffffff" stroke-width="1.5"/>
<circle cx="550.0" cy="267.1" r="5.5" fill="#ff7f0e" stroke="#ffffff" stroke-width="1.5"/>
<circle cx="626.7" cy="260.5" r="5.5" fill="#ff7f0e" stroke="#ffffff" stroke-width="1.5"/>
<circle cx="703.3" cy="219.5" r="5.5" fill="#ff7f0e" stroke="#ffffff" stroke-width="1.5"/>
<circle cx="780.0" cy="191.7" r="5.5" fill="#ff7f0e" stroke="#ffffff" stroke-width="1.5"/>
<path d="M 90.0,307.7 L 166.7,251.3 L 243.3,192.7 L 320.0,171.6 L 396.7,160.7 L 473.3,140.5 L 550.0,129.6 L 626.7,131.9 L 703.3,98.5 L 780.0,93.7" fill="none" stroke="#2ca02c" stroke-width="3.5"/>
<circle cx="90.0" cy="307.7" r="5.5" fill="#2ca02c" stroke="#ffffff" stroke-width="1.5"/>
<circle cx="166.7" cy="251.3" r="5.5" fill="#2ca02c" stroke="#ffffff" stroke-width="1.5"/>
<circle cx="243.3" cy="192.7" r="5.5" fill="#2ca02c" stroke="#ffffff" stroke-width="1.5"/>
<circle cx="320.0" cy="171.6" r="5.5" fill="#2ca02c" stroke="#ffffff" stroke-width="1.5"/>
<circle cx="396.7" cy="160.7" r="5.5" fill="#2ca02c" stroke="#ffffff" stroke-width="1.5"/>
<circle cx="473.3" cy="140.5" r="5.5" fill="#2ca02c" stroke="#ffffff" stroke-width="1.5"/>
<circle cx="550.0" cy="129.6" r="5.5" fill="#2ca02c" stroke="#ffffff" stroke-width="1.5"/>
<circle cx="626.7" cy="131.9" r="5.5" fill="#2ca02c" stroke="#ffffff" stroke-width="1.5"/>
<circle cx="703.3" cy="98.5" r="5.5" fill="#2ca02c" stroke="#ffffff" stroke-width="1.5"/>
<circle cx="780.0" cy="93.7" r="5.5" fill="#2ca02c" stroke="#ffffff" stroke-width="1.5"/>
<path d="M 90.0,315.9 L 166.7,215.8 L 243.3,197.9 L 320.0,176.4 L 396.7,161.1 L 473.3,139.9 L 550.0,134.9 L 626.7,113.1 L 703.3,101.5 L 780.0,98.0" fill="none" stroke="#d62728" stroke-width="3.5"/>
<circle cx="90.0" cy="315.9" r="5.5" fill="#d62728" stroke="#ffffff" stroke-width="1.5"/>
<circle cx="166.7" cy="215.8" r="5.5" fill="#d62728" stroke="#ffffff" stroke-width="1.5"/>
<circle cx="243.3" cy="197.9" r="5.5" fill="#d62728" stroke="#ffffff" stroke-width="1.5"/>
<circle cx="320.0" cy="176.4" r="5.5" fill="#d62728" stroke="#ffffff" stroke-width="1.5"/>
<circle cx="396.7" cy="161.1" r="5.5" fill="#d62728" stroke="#ffffff" stroke-width="1.5"/>
<circle cx="473.3" cy="139.9" r="5.5" fill="#d62728" stroke="#ffffff" stroke-width="1.5"/>
<circle cx="550.0" cy="134.9" r="5.5" fill="#d62728" stroke="#ffffff" stroke-width="1.5"/>
<circle cx="626.7" cy="113.1" r="5.5" fill="#d62728" stroke="#ffffff" stroke-width="1.5"/>
<circle cx="703.3" cy="101.5" r="5.5" fill="#d62728" stroke="#ffffff" stroke-width="1.5"/>
<circle cx="780.0" cy="98.0" r="5.5" fill="#d62728" stroke="#ffffff" stroke-width="1.5"/>
<rect x="800" y="65" width="280" height="520" fill="#f9fafb" stroke="#e5e7eb" rx="6"/>
<text x="810" y="85" font-weight="bold" class="legend-text">Propagation-Aware Envelopes (Min Var/k):</text>
<line x1="810" y1="105" x2="835" y2="105" stroke="#1f77b4" stroke-width="3.5"/>
<circle cx="822.5" cy="105" r="4" fill="#1f77b4"/>
<text x="842" y="109" class="legend-text" font-weight="600">Prop-Aware Additive</text>
<line x1="810" y1="127" x2="835" y2="127" stroke="#ff7f0e" stroke-width="3.5"/>
<circle cx="822.5" cy="127" r="4" fill="#ff7f0e"/>
<text x="842" y="131" class="legend-text" font-weight="600">Prop-Aware Multiplicative</text>
<line x1="810" y1="149" x2="835" y2="149" stroke="#2ca02c" stroke-width="3.5"/>
<circle cx="822.5" cy="149" r="4" fill="#2ca02c"/>
<text x="842" y="153" class="legend-text" font-weight="600">Prop-Aware Additive KCore</text>
<line x1="810" y1="171" x2="835" y2="171" stroke="#d62728" stroke-width="3.5"/>
<circle cx="822.5" cy="171" r="4" fill="#d62728"/>
<text x="842" y="175" class="legend-text" font-weight="600">Prop-Aware Multiplicative KCore</text>
<text x="810" y="203" font-weight="bold" class="legend-text">Baseline / Existing Algorithms:</text>
<line x1="810" y1="223" x2="835" y2="223" stroke="#9467bd" stroke-width="1.8" stroke-dasharray="6,4"/>
<circle cx="822.5" cy="223" r="3" fill="#9467bd"/>
<text x="842" y="227" class="legend-text">Random</text>
<line x1="810" y1="243" x2="835" y2="243" stroke="#8c564b" stroke-width="1.8" stroke-dasharray="3,3"/>
<circle cx="822.5" cy="243" r="3" fill="#8c564b"/>
<text x="842" y="247" class="legend-text">Myopic</text>
<line x1="810" y1="263" x2="835" y2="263" stroke="#e377c2" stroke-width="1.8" stroke-dasharray="6,4"/>
<circle cx="822.5" cy="263" r="3" fill="#e377c2"/>
<text x="842" y="267" class="legend-text">Naive Myopic</text>
<line x1="810" y1="283" x2="835" y2="283" stroke="#7f7f7f" stroke-width="1.8" stroke-dasharray="3,3"/>
<circle cx="822.5" cy="283" r="3" fill="#7f7f7f"/>
<text x="842" y="287" class="legend-text">Gonzalez</text>
<line x1="810" y1="303" x2="835" y2="303" stroke="#bcbd22" stroke-width="1.8" stroke-dasharray="6,4"/>
<circle cx="822.5" cy="303" r="3" fill="#bcbd22"/>
<text x="842" y="307" class="legend-text">Myopic BFS</text>
<line x1="810" y1="323" x2="835" y2="323" stroke="#17becf" stroke-width="1.8" stroke-dasharray="3,3"/>
<circle cx="822.5" cy="323" r="3" fill="#17becf"/>
<text x="842" y="327" class="legend-text">Naive Myopic BFS</text>
<line x1="810" y1="343" x2="835" y2="343" stroke="#aec7e8" stroke-width="1.8" stroke-dasharray="6,4"/>
<circle cx="822.5" cy="343" r="3" fill="#aec7e8"/>
<text x="842" y="347" class="legend-text">Myopic PPR</text>
<line x1="810" y1="363" x2="835" y2="363" stroke="#ffbb78" stroke-width="1.8" stroke-dasharray="3,3"/>
<circle cx="822.5" cy="363" r="3" fill="#ffbb78"/>
<text x="842" y="367" class="legend-text">Naive Myopic PPR</text>
<line x1="810" y1="383" x2="835" y2="383" stroke="#98df8a" stroke-width="1.8" stroke-dasharray="6,4"/>
<circle cx="822.5" cy="383" r="3" fill="#98df8a"/>
<text x="842" y="387" class="legend-text">LeastCentral</text>
<line x1="810" y1="403" x2="835" y2="403" stroke="#ff9896" stroke-width="1.8" stroke-dasharray="3,3"/>
<circle cx="822.5" cy="403" r="3" fill="#ff9896"/>
<text x="842" y="407" class="legend-text">LeastCentral_n</text>
<line x1="810" y1="423" x2="835" y2="423" stroke="#c5b0d5" stroke-width="1.8" stroke-dasharray="6,4"/>
<circle cx="822.5" cy="423" r="3" fill="#c5b0d5"/>
<text x="842" y="427" class="legend-text">MinDegree_hc</text>
<line x1="810" y1="443" x2="835" y2="443" stroke="#c49c94" stroke-width="1.8" stroke-dasharray="3,3"/>
<circle cx="822.5" cy="443" r="3" fill="#c49c94"/>
<text x="842" y="447" class="legend-text">MinDegree_hcn</text>
<line x1="810" y1="463" x2="835" y2="463" stroke="#f7b6d2" stroke-width="1.8" stroke-dasharray="6,4"/>
<circle cx="822.5" cy="463" r="3" fill="#f7b6d2"/>
<text x="842" y="467" class="legend-text">MinDegree_nd</text>
<line x1="810" y1="483" x2="835" y2="483" stroke="#c7c7c7" stroke-width="1.8" stroke-dasharray="3,3"/>
<circle cx="822.5" cy="483" r="3" fill="#c7c7c7"/>
<text x="842" y="487" class="legend-text">MinDegree_ndn</text>
</svg>