<svg xmlns="http://www.w3.org/2000/svg" viewBox="0 0 1100 650" width="1100" height="650">
<style>
  text { font-family: system-ui, -apple-system, sans-serif; }
  .title { font-size: 16px; font-weight: bold; fill: #111827; }
  .axis-label { font-size: 13px; font-weight: 600; fill: #374151; }
  .tick-text { font-size: 11px; fill: #4b5563; }
  .grid { stroke: #e5e7eb; stroke-width: 1; stroke-dasharray: 4,4; }
  .axis { stroke: #9ca3af; stroke-width: 1.5; }
  .legend-text { font-size: 11px; fill: #1f2937; }
</style>
<rect width="1100" height="650" fill="#ffffff"/>
<text x="435.0" y="35" text-anchor="middle" class="title">Variance of Access Probabilities vs. Seed Set Size (k) - Facebook.txt (alpha=0.09)</text>
<line x1="90" y1="570.0" x2="780" y2="570.0" class="grid"/>
<text x="80" y="574.0" text-anchor="end" class="tick-text">0.0049</text>
<line x1="90" y1="486.6666666666667" x2="780" y2="486.6666666666667" class="grid"/>
<text x="80" y="490.6666666666667" text-anchor="end" class="tick-text">0.0431</text>
<line x1="90" y1="403.33333333333337" x2="780" y2="403.33333333333337" class="grid"/>
<text x="80" y="407.33333333333337" text-anchor="end" class="tick-text">0.0814</text>
<line x1="90" y1="320.0" x2="780" y2="320.0" class="grid"/>
<text x="80" y="324.0" text-anchor="end" class="tick-text">0.1196</text>
<line x1="90" y1="236.66666666666669" x2="780" y2="236.66666666666669" class="grid"/>
<text x="80" y="240.66666666666669" text-anchor="end" class="tick-text">0.1579</text>
<line x1="90" y1="153.33333333333331" x2="780" y2="153.33333333333331" class="grid"/>
<text x="80" y="157.33333333333331" text-anchor="end" class="tick-text">0.1961</text>
<line x1="90" y1="70.0" x2="780" y2="70.0" class="grid"/>
<text x="80" y="74.0" text-anchor="end" class="tick-text">0.2343</text>
<line x1="90.0" y1="70" x2="90.0" y2="570" class="grid"/>
<text x="90.0" y="590" text-anchor="middle" class="tick-text">1</text>
<line x1="166.66666666666666" y1="70" x2="166.66666666666666" y2="570" class="grid"/>
<text x="166.66666666666666" y="590" text-anchor="middle" class="tick-text">2</text>
<line x1="243.33333333333331" y1="70" x2="243.33333333333331" y2="570" class="grid"/>
<text x="243.33333333333331" y="590" text-anchor="middle" class="tick-text">3</text>
<line x1="320.0" y1="70" x2="320.0" y2="570" class="grid"/>
<text x="320.0" y="590" text-anchor="middle" class="tick-text">4</text>
<line x1="396.66666666666663" y1="70" x2="396.66666666666663" y2="570" class="grid"/>
<text x="396.66666666666663" y="590" text-anchor="middle" class="tick-text">5</text>
<line x1="473.33333333333337" y1="70" x2="473.33333333333337" y2="570" class="grid"/>
<text x="473.33333333333337" y="590" text-anchor="middle" class="tick-text">6</text>
<line x1="550.0" y1="70" x2="550.0" y2="570" class="grid"/>
<text x="550.0" y="590" text-anchor="middle" class="tick-text">7</text>
<line x1="626.6666666666666" y1="70" x2="626.6666666666666" y2="570" class="grid"/>
<text x="626.6666666666666" y="590" text-anchor="middle" class="tick-text">8</text>
<line x1="703.3333333333333" y1="70" x2="703.3333333333333" y2="570" class="grid"/>
<text x="703.3333333333333" y="590" text-anchor="middle" class="tick-text">9</text>
<line x1="780.0" y1="70" x2="780.0" y2="570" class="grid"/>
<text x="780.0" y="590" text-anchor="middle" class="tick-text">10</text>
<line x1="90" y1="70" x2="90" y2="570" class="axis"/>
<line x1="90" y1="570" x2="780" y2="570" class="axis"/>
<text x="435.0" y="620" text-anchor="middle" class="axis-label">Seed Set Size (k)</text>
<text x="25" y="320.0" text-anchor="middle" transform="rotate(-90 25 320.0)" class="axis-label">Variance of Access Probabilities</text>
<path d="M 90.0,315.3 L 166.7,243.5 L 243.3,100.9 L 320.0,111.2 L 396.7,116.1 L 473.3,114.9 L 550.0,113.8 L 626.7,114.6 L 703.3,119.8 L 780.0,124.9" fill="none" stroke="#9467bd" stroke-width="1.8" stroke-dasharray="6,4" opacity="0.8"/>
<circle cx="90.0" cy="315.3" r="3" fill="#9467bd" opacity="0.9"/>
<circle cx="166.7" cy="243.5" r="3" fill="#9467bd" opacity="0.9"/>
<circle cx="243.3" cy="100.9" r="3" fill="#9467bd" opacity="0.9"/>
<circle cx="320.0" cy="111.2" r="3" fill="#9467bd" opacity="0.9"/>
<circle cx="396.7" cy="116.1" r="3" fill="#9467bd" opacity="0.9"/>
<circle cx="473.3" cy="114.9" r="3" fill="#9467bd" opacity="0.9"/>
<circle cx="550.0" cy="113.8" r="3" fill="#9467bd" opacity="0.9"/>
<circle cx="626.7" cy="114.6" r="3" fill="#9467bd" opacity="0.9"/>
<circle cx="703.3" cy="119.8" r="3" fill="#9467bd" opacity="0.9"/>
<circle cx="780.0" cy="124.9" r="3" fill="#9467bd" opacity="0.9"/>
<path d="M 90.0,115.4 L 166.7,117.0 L 243.3,118.7 L 320.0,109.2 L 396.7,121.3 L 473.3,120.4 L 550.0,117.3 L 626.7,119.2 L 703.3,126.5 L 780.0,124.0" fill="none" stroke="#8c564b" stroke-width="1.8" stroke-dasharray="3,3" opacity="0.8"/>
<circle cx="90.0" cy="115.4" r="3" fill="#8c564b" opacity="0.9"/>
<circle cx="166.7" cy="117.0" r="3" fill="#8c564b" opacity="0.9"/>
<circle cx="243.3" cy="118.7" r="3" fill="#8c564b" opacity="0.9"/>
<circle cx="320.0" cy="109.2" r="3" fill="#8c564b" opacity="0.9"/>
<circle cx="396.7" cy="121.3" r="3" fill="#8c564b" opacity="0.9"/>
<circle cx="473.3" cy="120.4" r="3" fill="#8c564b" opacity="0.9"/>
<circle cx="550.0" cy="117.3" r="3" fill="#8c564b" opacity="0.9"/>
<circle cx="626.7" cy="119.2" r="3" fill="#8c564b" opacity="0.9"/>
<circle cx="703.3" cy="126.5" r="3" fill="#8c564b" opacity="0.9"/>
<circle cx="780.0" cy="124.0" r="3" fill="#8c564b" opacity="0.9"/>
<path d="M 90.0,118.3 L 166.7,115.5 L 243.3,113.7 L 320.0,112.0 L 396.7,120.7 L 473.3,117.5 L 550.0,116.4 L 626.7,119.7 L 703.3,119.9 L 780.0,116.0" fill="none" stroke="#e377c2" stroke-width="1.8" stroke-dasharray="6,4" opacity="0.8"/>
<circle cx="90.0" cy="118.3" r="3" fill="#e377c2" opacity="0.9"/>
<circle cx="166.7" cy="115.5" r="3" fill="#e377c2" opacity="0.9"/>
<circle cx="243.3" cy="113.7" r="3" fill="#e377c2" opacity="0.9"/>
<circle cx="320.0" cy="112.0" r="3" fill="#e377c2" opacity="0.9"/>
<circle cx="396.7" cy="120.7" r="3" fill="#e377c2" opacity="0.9"/>
<circle cx="473.3" cy="117.5" r="3" fill="#e377c2" opacity="0.9"/>
<circle cx="550.0" cy="116.4" r="3" fill="#e377c2" opacity="0.9"/>
<circle cx="626.7" cy="119.7" r="3" fill="#e377c2" opacity="0.9"/>
<circle cx="703.3" cy="119.9" r="3" fill="#e377c2" opacity="0.9"/>
<circle cx="780.0" cy="116.0" r="3" fill="#e377c2" opacity="0.9"/>
<path d="M 90.0,112.7 L 166.7,133.3 L 243.3,137.0 L 320.0,140.4 L 396.7,144.4 L 473.3,136.7 L 550.0,144.6 L 626.7,147.6 L 703.3,145.8 L 780.0,145.9" fill="none" stroke="#7f7f7f" stroke-width="1.8" stroke-dasharray="3,3" opacity="0.8"/>
<circle cx="90.0" cy="112.7" r="3" fill="#7f7f7f" opacity="0.9"/>
<circle cx="166.7" cy="133.3" r="3" fill="#7f7f7f" opacity="0.9"/>
<circle cx="243.3" cy="137.0" r="3" fill="#7f7f7f" opacity="0.9"/>
<circle cx="320.0" cy="140.4" r="3" fill="#7f7f7f" opacity="0.9"/>
<circle cx="396.7" cy="144.4" r="3" fill="#7f7f7f" opacity="0.9"/>
<circle cx="473.3" cy="136.7" r="3" fill="#7f7f7f" opacity="0.9"/>
<circle cx="550.0" cy="144.6" r="3" fill="#7f7f7f" opacity="0.9"/>
<circle cx="626.7" cy="147.6" r="3" fill="#7f7f7f" opacity="0.9"/>
<circle cx="703.3" cy="145.8" r="3" fill="#7f7f7f" opacity="0.9"/>
<circle cx="780.0" cy="145.9" r="3" fill="#7f7f7f" opacity="0.9"/>
<path d="M 90.0,197.2 L 166.7,226.1 L 243.3,238.7 L 320.0,138.9 L 396.7,135.2 L 473.3,137.4 L 550.0,135.8 L 626.7,141.6 L 703.3,141.8 L 780.0,148.2" fill="none" stroke="#bcbd22" stroke-width="1.8" stroke-dasharray="6,4" opacity="0.8"/>
<circle cx="90.0" cy="197.2" r="3" fill="#bcbd22" opacity="0.9"/>
<circle cx="166.7" cy="226.1" r="3" fill="#bcbd22" opacity="0.9"/>
<circle cx="243.3" cy="238.7" r="3" fill="#bcbd22" opacity="0.9"/>
<circle cx="320.0" cy="138.9" r="3" fill="#bcbd22" opacity="0.9"/>
<circle cx="396.7" cy="135.2" r="3" fill="#bcbd22" opacity="0.9"/>
<circle cx="473.3" cy="137.4" r="3" fill="#bcbd22" opacity="0.9"/>
<circle cx="550.0" cy="135.8" r="3" fill="#bcbd22" opacity="0.9"/>
<circle cx="626.7" cy="141.6" r="3" fill="#bcbd22" opacity="0.9"/>
<circle cx="703.3" cy="141.8" r="3" fill="#bcbd22" opacity="0.9"/>
<circle cx="780.0" cy="148.2" r="3" fill="#bcbd22" opacity="0.9"/>
<path d="M 90.0,112.4 L 166.7,113.5 L 243.3,124.8 L 320.0,106.5 L 396.7,145.6 L 473.3,118.9 L 550.0,113.4 L 626.7,121.9 L 703.3,132.8 L 780.0,121.6" fill="none" stroke="#17becf" stroke-width="1.8" stroke-dasharray="3,3" opacity="0.8"/>
<circle cx="90.0" cy="112.4" r="3" fill="#17becf" opacity="0.9"/>
<circle cx="166.7" cy="113.5" r="3" fill="#17becf" opacity="0.9"/>
<circle cx="243.3" cy="124.8" r="3" fill="#17becf" opacity="0.9"/>
<circle cx="320.0" cy="106.5" r="3" fill="#17becf" opacity="0.9"/>
<circle cx="396.7" cy="145.6" r="3" fill="#17becf" opacity="0.9"/>
<circle cx="473.3" cy="118.9" r="3" fill="#17becf" opacity="0.9"/>
<circle cx="550.0" cy="113.4" r="3" fill="#17becf" opacity="0.9"/>
<circle cx="626.7" cy="121.9" r="3" fill="#17becf" opacity="0.9"/>
<circle cx="703.3" cy="132.8" r="3" fill="#17becf" opacity="0.9"/>
<circle cx="780.0" cy="121.6" r="3" fill="#17becf" opacity="0.9"/>
<path d="M 90.0,117.5 L 166.7,122.3 L 243.3,110.7 L 320.0,136.0 L 396.7,114.4 L 473.3,115.3 L 550.0,125.1 L 626.7,113.3 L 703.3,118.7 L 780.0,125.1" fill="none" stroke="#aec7e8" stroke-width="1.8" stroke-dasharray="6,4" opacity="0.8"/>
<circle cx="90.0" cy="117.5" r="3" fill="#aec7e8" opacity="0.9"/>
<circle cx="166.7" cy="122.3" r="3" fill="#aec7e8" opacity="0.9"/>
<circle cx="243.3" cy="110.7" r="3" fill="#aec7e8" opacity="0.9"/>
<circle cx="320.0" cy="136.0" r="3" fill="#aec7e8" opacity="0.9"/>
<circle cx="396.7" cy="114.4" r="3" fill="#aec7e8" opacity="0.9"/>
<circle cx="473.3" cy="115.3" r="3" fill="#aec7e8" opacity="0.9"/>
<circle cx="550.0" cy="125.1" r="3" fill="#aec7e8" opacity="0.9"/>
<circle cx="626.7" cy="113.3" r="3" fill="#aec7e8" opacity="0.9"/>
<circle cx="703.3" cy="118.7" r="3" fill="#aec7e8" opacity="0.9"/>
<circle cx="780.0" cy="125.1" r="3" fill="#aec7e8" opacity="0.9"/>
<path d="M 90.0,547.3 L 166.7,502.6 L 243.3,490.8 L 320.0,446.0 L 396.7,460.6 L 473.3,386.6 L 550.0,392.0 L 626.7,379.1 L 703.3,378.6 L 780.0,281.7" fill="none" stroke="#ffbb78" stroke-width="1.8" stroke-dasharray="3,3" opacity="0.8"/>
<circle cx="90.0" cy="547.3" r="3" fill="#ffbb78" opacity="0.9"/>
<circle cx="166.7" cy="502.6" r="3" fill="#ffbb78" opacity="0.9"/>
<circle cx="243.3" cy="490.8" r="3" fill="#ffbb78" opacity="0.9"/>
<circle cx="320.0" cy="446.0" r="3" fill="#ffbb78" opacity="0.9"/>
<circle cx="396.7" cy="460.6" r="3" fill="#ffbb78" opacity="0.9"/>
<circle cx="473.3" cy="386.6" r="3" fill="#ffbb78" opacity="0.9"/>
<circle cx="550.0" cy="392.0" r="3" fill="#ffbb78" opacity="0.9"/>
<circle cx="626.7" cy="379.1" r="3" fill="#ffbb78" opacity="0.9"/>
<circle cx="703.3" cy="378.6" r="3" fill="#ffbb78" opacity="0.9"/>
<circle cx="780.0" cy="281.7" r="3" fill="#ffbb78" opacity="0.9"/>
<path d="M 90.0,386.8 L 166.7,374.6 L 243.3,377.2 L 320.0,346.6 L 396.7,387.5 L 473.3,347.1 L 550.0,289.8 L 626.7,259.2 L 703.3,340.3 L 780.0,310.3" fill="none" stroke="#98df8a" stroke-width="1.8" stroke-dasharray="6,4" opacity="0.8"/>
<circle cx="90.0" cy="386.8" r="3" fill="#98df8a" opacity="0.9"/>
<circle cx="166.7" cy="374.6" r="3" fill="#98df8a" opacity="0.9"/>
<circle cx="243.3" cy="377.2" r="3" fill="#98df8a" opacity="0.9"/>
<circle cx="320.0" cy="346.6" r="3" fill="#98df8a" opacity="0.9"/>
<circle cx="396.7" cy="387.5" r="3" fill="#98df8a" opacity="0.9"/>
<circle cx="473.3" cy="347.1" r="3" fill="#98df8a" opacity="0.9"/>
<circle cx="550.0" cy="289.8" r="3" fill="#98df8a" opacity="0.9"/>
<circle cx="626.7" cy="259.2" r="3" fill="#98df8a" opacity="0.9"/>
<circle cx="703.3" cy="340.3" r="3" fill="#98df8a" opacity="0.9"/>
<circle cx="780.0" cy="310.3" r="3" fill="#98df8a" opacity="0.9"/>
<path d="M 90.0,201.3 L 166.7,205.3 L 243.3,176.8 L 320.0,185.0 L 396.7,196.6 L 473.3,177.5 L 550.0,188.9 L 626.7,178.0 L 703.3,168.3 L 780.0,158.0" fill="none" stroke="#ff9896" stroke-width="1.8" stroke-dasharray="3,3" opacity="0.8"/>
<circle cx="90.0" cy="201.3" r="3" fill="#ff9896" opacity="0.9"/>
<circle cx="166.7" cy="205.3" r="3" fill="#ff9896" opacity="0.9"/>
<circle cx="243.3" cy="176.8" r="3" fill="#ff9896" opacity="0.9"/>
<circle cx="320.0" cy="185.0" r="3" fill="#ff9896" opacity="0.9"/>
<circle cx="396.7" cy="196.6" r="3" fill="#ff9896" opacity="0.9"/>
<circle cx="473.3" cy="177.5" r="3" fill="#ff9896" opacity="0.9"/>
<circle cx="550.0" cy="188.9" r="3" fill="#ff9896" opacity="0.9"/>
<circle cx="626.7" cy="178.0" r="3" fill="#ff9896" opacity="0.9"/>
<circle cx="703.3" cy="168.3" r="3" fill="#ff9896" opacity="0.9"/>
<circle cx="780.0" cy="158.0" r="3" fill="#ff9896" opacity="0.9"/>
<path d="M 90.0,138.9 L 166.7,148.1 L 243.3,108.0 L 320.0,124.4 L 396.7,134.8 L 473.3,123.7 L 550.0,112.7 L 626.7,124.9 L 703.3,163.7 L 780.0,175.4" fill="none" stroke="#c5b0d5" stroke-width="1.8" stroke-dasharray="6,4" opacity="0.8"/>
<circle cx="90.0" cy="138.9" r="3" fill="#c5b0d5" opacity="0.9"/>
<circle cx="166.7" cy="148.1" r="3" fill="#c5b0d5" opacity="0.9"/>
<circle cx="243.3" cy="108.0" r="3" fill="#c5b0d5" opacity="0.9"/>
<circle cx="320.0" cy="124.4" r="3" fill="#c5b0d5" opacity="0.9"/>
<circle cx="396.7" cy="134.8" r="3" fill="#c5b0d5" opacity="0.9"/>
<circle cx="473.3" cy="123.7" r="3" fill="#c5b0d5" opacity="0.9"/>
<circle cx="550.0" cy="112.7" r="3" fill="#c5b0d5" opacity="0.9"/>
<circle cx="626.7" cy="124.9" r="3" fill="#c5b0d5" opacity="0.9"/>
<circle cx="703.3" cy="163.7" r="3" fill="#c5b0d5" opacity="0.9"/>
<circle cx="780.0" cy="175.4" r="3" fill="#c5b0d5" opacity="0.9"/>
<path d="M 90.0,92.7 L 166.7,104.4 L 243.3,119.2 L 320.0,101.4 L 396.7,132.9 L 473.3,97.9 L 550.0,122.2 L 626.7,102.9 L 703.3,106.0 L 780.0,110.7" fill="none" stroke="#c49c94" stroke-width="1.8" stroke-dasharray="3,3" opacity="0.8"/>
<circle cx="90.0" cy="92.7" r="3" fill="#c49c94" opacity="0.9"/>
<circle cx="166.7" cy="104.4" r="3" fill="#c49c94" opacity="0.9"/>
<circle cx="243.3" cy="119.2" r="3" fill="#c49c94" opacity="0.9"/>
<circle cx="320.0" cy="101.4" r="3" fill="#c49c94" opacity="0.9"/>
<circle cx="396.7" cy="132.9" r="3" fill="#c49c94" opacity="0.9"/>
<circle cx="473.3" cy="97.9" r="3" fill="#c49c94" opacity="0.9"/>
<circle cx="550.0" cy="122.2" r="3" fill="#c49c94" opacity="0.9"/>
<circle cx="626.7" cy="102.9" r="3" fill="#c49c94" opacity="0.9"/>
<circle cx="703.3" cy="106.0" r="3" fill="#c49c94" opacity="0.9"/>
<circle cx="780.0" cy="110.7" r="3" fill="#c49c94" opacity="0.9"/>
<path d="M 90.0,138.6 L 166.7,125.6 L 243.3,126.7 L 320.0,119.7 L 396.7,118.4 L 473.3,117.4 L 550.0,109.1 L 626.7,118.7 L 703.3,116.3 L 780.0,121.8" fill="none" stroke="#f7b6d2" stroke-width="1.8" stroke-dasharray="6,4" opacity="0.8"/>
<circle cx="90.0" cy="138.6" r="3" fill="#f7b6d2" opacity="0.9"/>
<circle cx="166.7" cy="125.6" r="3" fill="#f7b6d2" opacity="0.9"/>
<circle cx="243.3" cy="126.7" r="3" fill="#f7b6d2" opacity="0.9"/>
<circle cx="320.0" cy="119.7" r="3" fill="#f7b6d2" opacity="0.9"/>
<circle cx="396.7" cy="118.4" r="3" fill="#f7b6d2" opacity="0.9"/>
<circle cx="473.3" cy="117.4" r="3" fill="#f7b6d2" opacity="0.9"/>
<circle cx="550.0" cy="109.1" r="3" fill="#f7b6d2" opacity="0.9"/>
<circle cx="626.7" cy="118.7" r="3" fill="#f7b6d2" opacity="0.9"/>
<circle cx="703.3" cy="116.3" r="3" fill="#f7b6d2" opacity="0.9"/>
<circle cx="780.0" cy="121.8" r="3" fill="#f7b6d2" opacity="0.9"/>
<path d="M 90.0,101.7 L 166.7,115.2 L 243.3,122.2 L 320.0,130.3 L 396.7,125.1 L 473.3,136.4 L 550.0,134.0 L 626.7,143.7 L 703.3,145.9 L 780.0,142.1" fill="none" stroke="#c7c7c7" stroke-width="1.8" stroke-dasharray="3,3" opacity="0.8"/>
<circle cx="90.0" cy="101.7" r="3" fill="#c7c7c7" opacity="0.9"/>
<circle cx="166.7" cy="115.2" r="3" fill="#c7c7c7" opacity="0.9"/>
<circle cx="243.3" cy="122.2" r="3" fill="#c7c7c7" opacity="0.9"/>
<circle cx="320.0" cy="130.3" r="3" fill="#c7c7c7" opacity="0.9"/>
<circle cx="396.7" cy="125.1" r="3" fill="#c7c7c7" opacity="0.9"/>
<circle cx="473.3" cy="136.4" r="3" fill="#c7c7c7" opacity="0.9"/>
<circle cx="550.0" cy="134.0" r="3" fill="#c7c7c7" opacity="0.9"/>
<circle cx="626.7" cy="143.7" r="3" fill="#c7c7c7" opacity="0.9"/>
<circle cx="703.3" cy="145.9" r="3" fill="#c7c7c7" opacity="0.9"/>
<circle cx="780.0" cy="142.1" r="3" fill="#c7c7c7" opacity="0.9"/>
<path d="M 90.0,174.8 L 166.7,128.9 L 243.3,139.2 L 320.0,149.2 L 396.7,151.1 L 473.3,151.8 L 550.0,154.2 L 626.7,154.3 L 703.3,152.5 L 780.0,153.6" fill="none" stroke="#1f77b4" stroke-width="3.5"/>
<circle cx="90.0" cy="174.8" r="5.5" fill="#1f77b4" stroke="#ffffff" stroke-width="1.5"/>
<circle cx="166.7" cy="128.9" r="5.5" fill="#1f77b4" stroke="#ffffff" stroke-width="1.5"/>
<circle cx="243.3" cy="139.2" r="5.5" fill="#1f77b4" stroke="#ffffff" stroke-width="1.5"/>
<circle cx="320.0" cy="149.2" r="5.5" fill="#1f77b4" stroke="#ffffff" stroke-width="1.5"/>
<circle cx="396.7" cy="151.1" r="5.5" fill="#1f77b4" stroke="#ffffff" stroke-width="1.5"/>
<circle cx="473.3" cy="151.8" r="5.5" fill="#1f77b4" stroke="#ffffff" stroke-width="1.5"/>
<circle cx="550.0" cy="154.2" r="5.5" fill="#1f77b4" stroke="#ffffff" stroke-width="1.5"/>
<circle cx="626.7" cy="154.3" r="5.5" fill="#1f77b4" stroke="#ffffff" stroke-width="1.5"/>
<circle cx="703.3" cy="152.5" r="5.5" fill="#1f77b4" stroke="#ffffff" stroke-width="1.5"/>
<circle cx="780.0" cy="153.6" r="5.5" fill="#1f77b4" stroke="#ffffff" stroke-width="1.5"/>
<path d="M 90.0,171.5 L 166.7,179.2 L 243.3,171.6 L 320.0,162.8 L 396.7,165.5 L 473.3,156.3 L 550.0,161.7 L 626.7,158.4 L 703.3,166.1 L 780.0,157.0" fill="none" stroke="#ff7f0e" stroke-width="3.5"/>
<circle cx="90.0" cy="171.5" r="5.5" fill="#ff7f0e" stroke="#ffffff" stroke-width="1.5"/>
<circle cx="166.7" cy="179.2" r="5.5" fill="#ff7f0e" stroke="#ffffff" stroke-width="1.5"/>
<circle cx="243.3" cy="171.6" r="5.5" fill="#ff7f0e" stroke="#ffffff" stroke-width="1.5"/>
<circle cx="320.0" cy="162.8" r="5.5" fill="#ff7f0e" stroke="#ffffff" stroke-width="1.5"/>
<circle cx="396.7" cy="165.5" r="5.5" fill="#ff7f0e" stroke="#ffffff" stroke-width="1.5"/>
<circle cx="473.3" cy="156.3" r="5.5" fill="#ff7f0e" stroke="#ffffff" stroke-width="1.5"/>
<circle cx="550.0" cy="161.7" r="5.5" fill="#ff7f0e" stroke="#ffffff" stroke-width="1.5"/>
<circle cx="626.7" cy="158.4" r="5.5" fill="#ff7f0e" stroke="#ffffff" stroke-width="1.5"/>
<circle cx="703.3" cy="166.1" r="5.5" fill="#ff7f0e" stroke="#ffffff" stroke-width="1.5"/>
<circle cx="780.0" cy="157.0" r="5.5" fill="#ff7f0e" stroke="#ffffff" stroke-width="1.5"/>
<path d="M 90.0,118.6 L 166.7,126.2 L 243.3,145.8 L 320.0,149.0 L 396.7,149.6 L 473.3,150.9 L 550.0,152.3 L 626.7,155.5 L 703.3,153.3 L 780.0,153.2" fill="none" stroke="#2ca02c" stroke-width="3.5"/>
<circle cx="90.0" cy="118.6" r="5.5" fill="#2ca02c" stroke="#ffffff" stroke-width="1.5"/>
<circle cx="166.7" cy="126.2" r="5.5" fill="#2ca02c" stroke="#ffffff" stroke-width="1.5"/>
<circle cx="243.3" cy="145.8" r="5.5" fill="#2ca02c" stroke="#ffffff" stroke-width="1.5"/>
<circle cx="320.0" cy="149.0" r="5.5" fill="#2ca02c" stroke="#ffffff" stroke-width="1.5"/>
<circle cx="396.7" cy="149.6" r="5.5" fill="#2ca02c" stroke="#ffffff" stroke-width="1.5"/>
<circle cx="473.3" cy="150.9" r="5.5" fill="#2ca02c" stroke="#ffffff" stroke-width="1.5"/>
<circle cx="550.0" cy="152.3" r="5.5" fill="#2ca02c" stroke="#ffffff" stroke-width="1.5"/>
<circle cx="626.7" cy="155.5" r="5.5" fill="#2ca02c" stroke="#ffffff" stroke-width="1.5"/>
<circle cx="703.3" cy="153.3" r="5.5" fill="#2ca02c" stroke="#ffffff" stroke-width="1.5"/>
<circle cx="780.0" cy="153.2" r="5.5" fill="#2ca02c" stroke="#ffffff" stroke-width="1.5"/>
<path d="M 90.0,116.8 L 166.7,137.7 L 243.3,146.5 L 320.0,149.2 L 396.7,152.7 L 473.3,152.8 L 550.0,152.9 L 626.7,154.3 L 703.3,154.0 L 780.0,155.5" fill="none" stroke="#d62728" stroke-width="3.5"/>
<circle cx="90.0" cy="116.8" r="5.5" fill="#d62728" stroke="#ffffff" stroke-width="1.5"/>
<circle cx="166.7" cy="137.7" r="5.5" fill="#d62728" stroke="#ffffff" stroke-width="1.5"/>
<circle cx="243.3" cy="146.5" r="5.5" fill="#d62728" stroke="#ffffff" stroke-width="1.5"/>
<circle cx="320.0" cy="149.2" r="5.5" fill="#d62728" stroke="#ffffff" stroke-width="1.5"/>
<circle cx="396.7" cy="152.7" r="5.5" fill="#d62728" stroke="#ffffff" stroke-width="1.5"/>
<circle cx="473.3" cy="152.8" r="5.5" fill="#d62728" stroke="#ffffff" stroke-width="1.5"/>
<circle cx="550.0" cy="152.9" r="5.5" fill="#d62728" stroke="#ffffff" stroke-width="1.5"/>
<circle cx="626.7" cy="154.3" r="5.5" fill="#d62728" stroke="#ffffff" stroke-width="1.5"/>
<circle cx="703.3" cy="154.0" r="5.5" fill="#d62728" stroke="#ffffff" stroke-width="1.5"/>
<circle cx="780.0" cy="155.5" r="5.5" fill="#d62728" stroke="#ffffff" stroke-width="1.5"/>
<rect x="800" y="65" width="280" height="520" fill="#f9fafb" stroke="#e5e7eb" rx="6"/>
<text x="810" y="85" font-weight="bold" class="legend-text">Propagation-Aware Envelopes (Min Var/k):</text>
<line x1="810" y1="105" x2="835" y2="105" stroke="#1f77b4" stroke-width="3.5"/>
<circle cx="822.5" cy="105" r="4" fill="#1f77b4"/>
<text x="842" y="109" class="legend-text" font-weight="600">Prop-Aware Additive</text>
<line x1="810" y1="127" x2="835" y2="127" stroke="#ff7f0e" stroke-width="3.5"/>
<circle cx="822.5" cy="127" r="4" fill="#ff7f0e"/>
<text x="842" y="131" class="legend-text" font-weight="600">Prop-Aware Multiplicative</text>
<line x1="810" y1="149" x2="835" y2="149" stroke="#2ca02c" stroke-width="3.5"/>
<circle cx="822.5" cy="149" r="4" fill="#2ca02c"/>
<text x="842" y="153" class="legend-text" font-weight="600">Prop-Aware Additive KCore</text>
<line x1="810" y1="171" x2="835" y2="171" stroke="#d62728" stroke-width="3.5"/>
<circle cx="822.5" cy="171" r="4" fill="#d62728"/>
<text x="842" y="175" class="legend-text" font-weight="600">Prop-Aware Multiplicative KCore</text>
<text x="810" y="203" font-weight="bold" class="legend-text">Baseline / Existing Algorithms:</text>
<line x1="810" y1="223" x2="835" y2="223" stroke="#9467bd" stroke-width="1.8" stroke-dasharray="6,4"/>
<circle cx="822.5" cy="223" r="3" fill="#9467bd"/>
<text x="842" y="227" class="legend-text">Random</text>
<line x1="810" y1="243" x2="835" y2="243" stroke="#8c564b" stroke-width="1.8" stroke-dasharray="3,3"/>
<circle cx="822.5" cy="243" r="3" fill="#8c564b"/>
<text x="842" y="247" class="legend-text">Myopic</text>
<line x1="810" y1="263" x2="835" y2="263" stroke="#e377c2" stroke-width="1.8" stroke-dasharray="6,4"/>
<circle cx="822.5" cy="263" r="3" fill="#e377c2"/>
<text x="842" y="267" class="legend-text">Naive Myopic</text>
<line x1="810" y1="283" x2="835" y2="283" stroke="#7f7f7f" stroke-width="1.8" stroke-dasharray="3,3"/>
<circle cx="822.5" cy="283" r="3" fill="#7f7f7f"/>
<text x="842" y="287" class="legend-text">Gonzalez</text>
<line x1="810" y1="303" x2="835" y2="303" stroke="#bcbd22" stroke-width="1.8" stroke-dasharray="6,4"/>
<circle cx="822.5" cy="303" r="3" fill="#bcbd22"/>
<text x="842" y="307" class="legend-text">Myopic BFS</text>
<line x1="810" y1="323" x2="835" y2="323" stroke="#17becf" stroke-width="1.8" stroke-dasharray="3,3"/>
<circle cx="822.5" cy="323" r="3" fill="#17becf"/>
<text x="842" y="327" class="legend-text">Naive Myopic BFS</text>
<line x1="810" y1="343" x2="835" y2="343" stroke="#aec7e8" stroke-width="1.8" stroke-dasharray="6,4"/>
<circle cx="822.5" cy="343" r="3" fill="#aec7e8"/>
<text x="842" y="347" class="legend-text">Myopic PPR</text>
<line x1="810" y1="363" x2="835" y2="363" stroke="#ffbb78" stroke-width="1.8" stroke-dasharray="3,3"/>
<circle cx="822.5" cy="363" r="3" fill="#ffbb78"/>
<text x="842" y="367" class="legend-text">Naive Myopic PPR</text>
<line x1="810" y1="383" x2="835" y2="383" stroke="#98df8a" stroke-width="1.8" stroke-dasharray="6,4"/>
<circle cx="822.5" cy="383" r="3" fill="#98df8a"/>
<text x="842" y="387" class="legend-text">LeastCentral</text>
<line x1="810" y1="403" x2="835" y2="403" stroke="#ff9896" stroke-width="1.8" stroke-dasharray="3,3"/>
<circle cx="822.5" cy="403" r="3" fill="#ff9896"/>
<text x="842" y="407" class="legend-text">LeastCentral_n</text>
<line x1="810" y1="423" x2="835" y2="423" stroke="#c5b0d5" stroke-width="1.8" stroke-dasharray="6,4"/>
<circle cx="822.5" cy="423" r="3" fill="#c5b0d5"/>
<text x="842" y="427" class="legend-text">MinDegree_hc</text>
<line x1="810" y1="443" x2="835" y2="443" stroke="#c49c94" stroke-width="1.8" stroke-dasharray="3,3"/>
<circle cx="822.5" cy="443" r="3" fill="#c49c94"/>
<text x="842" y="447" class="legend-text">MinDegree_hcn</text>
<line x1="810" y1="463" x2="835" y2="463" stroke="#f7b6d2" stroke-width="1.8" stroke-dasharray="6,4"/>
<circle cx="822.5" cy="463" r="3" fill="#f7b6d2"/>
<text x="842" y="467" class="legend-text">MinDegree_nd</text>
<line x1="810" y1="483" x2="835" y2="483" stroke="#c7c7c7" stroke-width="1.8" stroke-dasharray="3,3"/>
<circle cx="822.5" cy="483" r="3" fill="#c7c7c7"/>
<text x="842" y="487" class="legend-text">MinDegree_ndn</text>
</svg>