<svg xmlns="http://www.w3.org/2000/svg" viewBox="0 0 1100 650" width="1100" height="650">
<style>
  text { font-family: system-ui, -apple-system, sans-serif; }
  .title { font-size: 16px; font-weight: bold; fill: #111827; }
  .axis-label { font-size: 13px; font-weight: 600; fill: #374151; }
  .tick-text { font-size: 11px; fill: #4b5563; }
  .grid { stroke: #e5e7eb; stroke-width: 1; stroke-dasharray: 4,4; }
  .axis { stroke: #9ca3af; stroke-width: 1.5; }
  .legend-text { font-size: 11px; fill: #1f2937; }
</style>
<rect width="1100" height="650" fill="#ffffff"/>
<text x="435.0" y="35" text-anchor="middle" class="title">Variance of Access Probabilities vs. Seed Set Size (k) - ca-GrQc.txt (alpha=0.05)</text>
<line x1="90" y1="570.0" x2="780" y2="570.0" class="grid"/>
<text x="80" y="574.0" text-anchor="end" class="tick-text">0.0000</text>
<line x1="90" y1="486.6666666666667" x2="780" y2="486.6666666666667" class="grid"/>
<text x="80" y="490.6666666666667" text-anchor="end" class="tick-text">0.0044</text>
<line x1="90" y1="403.33333333333337" x2="780" y2="403.33333333333337" class="grid"/>
<text x="80" y="407.33333333333337" text-anchor="end" class="tick-text">0.0089</text>
<line x1="90" y1="320.0" x2="780" y2="320.0" class="grid"/>
<text x="80" y="324.0" text-anchor="end" class="tick-text">0.0133</text>
<line x1="90" y1="236.66666666666669" x2="780" y2="236.66666666666669" class="grid"/>
<text x="80" y="240.66666666666669" text-anchor="end" class="tick-text">0.0177</text>
<line x1="90" y1="153.33333333333331" x2="780" y2="153.33333333333331" class="grid"/>
<text x="80" y="157.33333333333331" text-anchor="end" class="tick-text">0.0221</text>
<line x1="90" y1="70.0" x2="780" y2="70.0" class="grid"/>
<text x="80" y="74.0" text-anchor="end" class="tick-text">0.0266</text>
<line x1="90.0" y1="70" x2="90.0" y2="570" class="grid"/>
<text x="90.0" y="590" text-anchor="middle" class="tick-text">1</text>
<line x1="166.66666666666666" y1="70" x2="166.66666666666666" y2="570" class="grid"/>
<text x="166.66666666666666" y="590" text-anchor="middle" class="tick-text">2</text>
<line x1="243.33333333333331" y1="70" x2="243.33333333333331" y2="570" class="grid"/>
<text x="243.33333333333331" y="590" text-anchor="middle" class="tick-text">3</text>
<line x1="320.0" y1="70" x2="320.0" y2="570" class="grid"/>
<text x="320.0" y="590" text-anchor="middle" class="tick-text">4</text>
<line x1="396.66666666666663" y1="70" x2="396.66666666666663" y2="570" class="grid"/>
<text x="396.66666666666663" y="590" text-anchor="middle" class="tick-text">5</text>
<line x1="473.33333333333337" y1="70" x2="473.33333333333337" y2="570" class="grid"/>
<text x="473.33333333333337" y="590" text-anchor="middle" class="tick-text">6</text>
<line x1="550.0" y1="70" x2="550.0" y2="570" class="grid"/>
<text x="550.0" y="590" text-anchor="middle" class="tick-text">7</text>
<line x1="626.6666666666666" y1="70" x2="626.6666666666666" y2="570" class="grid"/>
<text x="626.6666666666666" y="590" text-anchor="middle" class="tick-text">8</text>
<line x1="703.3333333333333" y1="70" x2="703.3333333333333" y2="570" class="grid"/>
<text x="703.3333333333333" y="590" text-anchor="middle" class="tick-text">9</text>
<line x1="780.0" y1="70" x2="780.0" y2="570" class="grid"/>
<text x="780.0" y="590" text-anchor="middle" class="tick-text">10</text>
<line x1="90" y1="70" x2="90" y2="570" class="axis"/>
<line x1="90" y1="570" x2="780" y2="570" class="axis"/>
<text x="435.0" y="620" text-anchor="middle" class="axis-label">Seed Set Size (k)</text>
<text x="25" y="320.0" text-anchor="middle" transform="rotate(-90 25 320.0)" class="axis-label">Variance of Access Probabilities</text>
<path d="M 90.0,565.3 L 166.7,561.2 L 243.3,557.7 L 320.0,552.3 L 396.7,548.1 L 473.3,525.1 L 550.0,524.8 L 626.7,526.3 L 703.3,513.2 L 780.0,507.4" fill="none" stroke="#9467bd" stroke-width="1.8" stroke-dasharray="6,4" opacity="0.8"/>
<circle cx="90.0" cy="565.3" r="3" fill="#9467bd" opacity="0.9"/>
<circle cx="166.7" cy="561.2" r="3" fill="#9467bd" opacity="0.9"/>
<circle cx="243.3" cy="557.7" r="3" fill="#9467bd" opacity="0.9"/>
<circle cx="320.0" cy="552.3" r="3" fill="#9467bd" opacity="0.9"/>
<circle cx="396.7" cy="548.1" r="3" fill="#9467bd" opacity="0.9"/>
<circle cx="473.3" cy="525.1" r="3" fill="#9467bd" opacity="0.9"/>
<circle cx="550.0" cy="524.8" r="3" fill="#9467bd" opacity="0.9"/>
<circle cx="626.7" cy="526.3" r="3" fill="#9467bd" opacity="0.9"/>
<circle cx="703.3" cy="513.2" r="3" fill="#9467bd" opacity="0.9"/>
<circle cx="780.0" cy="507.4" r="3" fill="#9467bd" opacity="0.9"/>
<path d="M 90.0,356.6 L 166.7,241.7 L 243.3,186.0 L 320.0,146.9 L 396.7,139.3 L 473.3,149.7 L 550.0,97.2 L 626.7,113.0 L 703.3,103.2 L 780.0,93.6" fill="none" stroke="#8c564b" stroke-width="1.8" stroke-dasharray="3,3" opacity="0.8"/>
<circle cx="90.0" cy="356.6" r="3" fill="#8c564b" opacity="0.9"/>
<circle cx="166.7" cy="241.7" r="3" fill="#8c564b" opacity="0.9"/>
<circle cx="243.3" cy="186.0" r="3" fill="#8c564b" opacity="0.9"/>
<circle cx="320.0" cy="146.9" r="3" fill="#8c564b" opacity="0.9"/>
<circle cx="396.7" cy="139.3" r="3" fill="#8c564b" opacity="0.9"/>
<circle cx="473.3" cy="149.7" r="3" fill="#8c564b" opacity="0.9"/>
<circle cx="550.0" cy="97.2" r="3" fill="#8c564b" opacity="0.9"/>
<circle cx="626.7" cy="113.0" r="3" fill="#8c564b" opacity="0.9"/>
<circle cx="703.3" cy="103.2" r="3" fill="#8c564b" opacity="0.9"/>
<circle cx="780.0" cy="93.6" r="3" fill="#8c564b" opacity="0.9"/>
<path d="M 90.0,343.7 L 166.7,331.8 L 243.3,340.4 L 320.0,327.0 L 396.7,344.0 L 473.3,307.5 L 550.0,296.1 L 626.7,305.9 L 703.3,308.1 L 780.0,304.4" fill="none" stroke="#e377c2" stroke-width="1.8" stroke-dasharray="6,4" opacity="0.8"/>
<circle cx="90.0" cy="343.7" r="3" fill="#e377c2" opacity="0.9"/>
<circle cx="166.7" cy="331.8" r="3" fill="#e377c2" opacity="0.9"/>
<circle cx="243.3" cy="340.4" r="3" fill="#e377c2" opacity="0.9"/>
<circle cx="320.0" cy="327.0" r="3" fill="#e377c2" opacity="0.9"/>
<circle cx="396.7" cy="344.0" r="3" fill="#e377c2" opacity="0.9"/>
<circle cx="473.3" cy="307.5" r="3" fill="#e377c2" opacity="0.9"/>
<circle cx="550.0" cy="296.1" r="3" fill="#e377c2" opacity="0.9"/>
<circle cx="626.7" cy="305.9" r="3" fill="#e377c2" opacity="0.9"/>
<circle cx="703.3" cy="308.1" r="3" fill="#e377c2" opacity="0.9"/>
<circle cx="780.0" cy="304.4" r="3" fill="#e377c2" opacity="0.9"/>
<path d="M 90.0,343.9 L 166.7,327.8 L 243.3,339.9 L 320.0,333.9 L 396.7,323.1 L 473.3,333.5 L 550.0,316.5 L 626.7,311.2 L 703.3,300.1 L 780.0,312.6" fill="none" stroke="#7f7f7f" stroke-width="1.8" stroke-dasharray="3,3" opacity="0.8"/>
<circle cx="90.0" cy="343.9" r="3" fill="#7f7f7f" opacity="0.9"/>
<circle cx="166.7" cy="327.8" r="3" fill="#7f7f7f" opacity="0.9"/>
<circle cx="243.3" cy="339.9" r="3" fill="#7f7f7f" opacity="0.9"/>
<circle cx="320.0" cy="333.9" r="3" fill="#7f7f7f" opacity="0.9"/>
<circle cx="396.7" cy="323.1" r="3" fill="#7f7f7f" opacity="0.9"/>
<circle cx="473.3" cy="333.5" r="3" fill="#7f7f7f" opacity="0.9"/>
<circle cx="550.0" cy="316.5" r="3" fill="#7f7f7f" opacity="0.9"/>
<circle cx="626.7" cy="311.2" r="3" fill="#7f7f7f" opacity="0.9"/>
<circle cx="703.3" cy="300.1" r="3" fill="#7f7f7f" opacity="0.9"/>
<circle cx="780.0" cy="312.6" r="3" fill="#7f7f7f" opacity="0.9"/>
<path d="M 90.0,565.8 L 166.7,555.7 L 243.3,557.7 L 320.0,554.5 L 396.7,550.4 L 473.3,546.1 L 550.0,542.5 L 626.7,538.1 L 703.3,533.7 L 780.0,530.5" fill="none" stroke="#bcbd22" stroke-width="1.8" stroke-dasharray="6,4" opacity="0.8"/>
<circle cx="90.0" cy="565.8" r="3" fill="#bcbd22" opacity="0.9"/>
<circle cx="166.7" cy="555.7" r="3" fill="#bcbd22" opacity="0.9"/>
<circle cx="243.3" cy="557.7" r="3" fill="#bcbd22" opacity="0.9"/>
<circle cx="320.0" cy="554.5" r="3" fill="#bcbd22" opacity="0.9"/>
<circle cx="396.7" cy="550.4" r="3" fill="#bcbd22" opacity="0.9"/>
<circle cx="473.3" cy="546.1" r="3" fill="#bcbd22" opacity="0.9"/>
<circle cx="550.0" cy="542.5" r="3" fill="#bcbd22" opacity="0.9"/>
<circle cx="626.7" cy="538.1" r="3" fill="#bcbd22" opacity="0.9"/>
<circle cx="703.3" cy="533.7" r="3" fill="#bcbd22" opacity="0.9"/>
<circle cx="780.0" cy="530.5" r="3" fill="#bcbd22" opacity="0.9"/>
<path d="M 90.0,566.1 L 166.7,562.1 L 243.3,558.4 L 320.0,555.0 L 396.7,550.6 L 473.3,546.8 L 550.0,543.3 L 626.7,538.8 L 703.3,535.5 L 780.0,531.9" fill="none" stroke="#17becf" stroke-width="1.8" stroke-dasharray="3,3" opacity="0.8"/>
<circle cx="90.0" cy="566.1" r="3" fill="#17becf" opacity="0.9"/>
<circle cx="166.7" cy="562.1" r="3" fill="#17becf" opacity="0.9"/>
<circle cx="243.3" cy="558.4" r="3" fill="#17becf" opacity="0.9"/>
<circle cx="320.0" cy="555.0" r="3" fill="#17becf" opacity="0.9"/>
<circle cx="396.7" cy="550.6" r="3" fill="#17becf" opacity="0.9"/>
<circle cx="473.3" cy="546.8" r="3" fill="#17becf" opacity="0.9"/>
<circle cx="550.0" cy="543.3" r="3" fill="#17becf" opacity="0.9"/>
<circle cx="626.7" cy="538.8" r="3" fill="#17becf" opacity="0.9"/>
<circle cx="703.3" cy="535.5" r="3" fill="#17becf" opacity="0.9"/>
<circle cx="780.0" cy="531.9" r="3" fill="#17becf" opacity="0.9"/>
<path d="M 90.0,564.5 L 166.7,561.8 L 243.3,554.5 L 320.0,553.7 L 396.7,544.8 L 473.3,545.3 L 550.0,541.1 L 626.7,534.4 L 703.3,530.6 L 780.0,518.1" fill="none" stroke="#aec7e8" stroke-width="1.8" stroke-dasharray="6,4" opacity="0.8"/>
<circle cx="90.0" cy="564.5" r="3" fill="#aec7e8" opacity="0.9"/>
<circle cx="166.7" cy="561.8" r="3" fill="#aec7e8" opacity="0.9"/>
<circle cx="243.3" cy="554.5" r="3" fill="#aec7e8" opacity="0.9"/>
<circle cx="320.0" cy="553.7" r="3" fill="#aec7e8" opacity="0.9"/>
<circle cx="396.7" cy="544.8" r="3" fill="#aec7e8" opacity="0.9"/>
<circle cx="473.3" cy="545.3" r="3" fill="#aec7e8" opacity="0.9"/>
<circle cx="550.0" cy="541.1" r="3" fill="#aec7e8" opacity="0.9"/>
<circle cx="626.7" cy="534.4" r="3" fill="#aec7e8" opacity="0.9"/>
<circle cx="703.3" cy="530.6" r="3" fill="#aec7e8" opacity="0.9"/>
<circle cx="780.0" cy="518.1" r="3" fill="#aec7e8" opacity="0.9"/>
<path d="M 90.0,566.1 L 166.7,562.1 L 243.3,552.5 L 320.0,551.6 L 396.7,543.6 L 473.3,533.2 L 550.0,537.3 L 626.7,532.8 L 703.3,522.9 L 780.0,518.6" fill="none" stroke="#ffbb78" stroke-width="1.8" stroke-dasharray="3,3" opacity="0.8"/>
<circle cx="90.0" cy="566.1" r="3" fill="#ffbb78" opacity="0.9"/>
<circle cx="166.7" cy="562.1" r="3" fill="#ffbb78" opacity="0.9"/>
<circle cx="243.3" cy="552.5" r="3" fill="#ffbb78" opacity="0.9"/>
<circle cx="320.0" cy="551.6" r="3" fill="#ffbb78" opacity="0.9"/>
<circle cx="396.7" cy="543.6" r="3" fill="#ffbb78" opacity="0.9"/>
<circle cx="473.3" cy="533.2" r="3" fill="#ffbb78" opacity="0.9"/>
<circle cx="550.0" cy="537.3" r="3" fill="#ffbb78" opacity="0.9"/>
<circle cx="626.7" cy="532.8" r="3" fill="#ffbb78" opacity="0.9"/>
<circle cx="703.3" cy="522.9" r="3" fill="#ffbb78" opacity="0.9"/>
<circle cx="780.0" cy="518.6" r="3" fill="#ffbb78" opacity="0.9"/>
<path d="M 90.0,563.7 L 166.7,560.7 L 243.3,557.3 L 320.0,554.7 L 396.7,549.4 L 473.3,545.9 L 550.0,542.8 L 626.7,539.3 L 703.3,535.8 L 780.0,532.5" fill="none" stroke="#98df8a" stroke-width="1.8" stroke-dasharray="6,4" opacity="0.8"/>
<circle cx="90.0" cy="563.7" r="3" fill="#98df8a" opacity="0.9"/>
<circle cx="166.7" cy="560.7" r="3" fill="#98df8a" opacity="0.9"/>
<circle cx="243.3" cy="557.3" r="3" fill="#98df8a" opacity="0.9"/>
<circle cx="320.0" cy="554.7" r="3" fill="#98df8a" opacity="0.9"/>
<circle cx="396.7" cy="549.4" r="3" fill="#98df8a" opacity="0.9"/>
<circle cx="473.3" cy="545.9" r="3" fill="#98df8a" opacity="0.9"/>
<circle cx="550.0" cy="542.8" r="3" fill="#98df8a" opacity="0.9"/>
<circle cx="626.7" cy="539.3" r="3" fill="#98df8a" opacity="0.9"/>
<circle cx="703.3" cy="535.8" r="3" fill="#98df8a" opacity="0.9"/>
<circle cx="780.0" cy="532.5" r="3" fill="#98df8a" opacity="0.9"/>
<path d="M 90.0,566.1 L 166.7,523.6 L 243.3,525.9 L 320.0,533.8 L 396.7,512.0 L 473.3,533.4 L 550.0,513.7 L 626.7,484.5 L 703.3,496.1 L 780.0,292.4" fill="none" stroke="#ff9896" stroke-width="1.8" stroke-dasharray="3,3" opacity="0.8"/>
<circle cx="90.0" cy="566.1" r="3" fill="#ff9896" opacity="0.9"/>
<circle cx="166.7" cy="523.6" r="3" fill="#ff9896" opacity="0.9"/>
<circle cx="243.3" cy="525.9" r="3" fill="#ff9896" opacity="0.9"/>
<circle cx="320.0" cy="533.8" r="3" fill="#ff9896" opacity="0.9"/>
<circle cx="396.7" cy="512.0" r="3" fill="#ff9896" opacity="0.9"/>
<circle cx="473.3" cy="533.4" r="3" fill="#ff9896" opacity="0.9"/>
<circle cx="550.0" cy="513.7" r="3" fill="#ff9896" opacity="0.9"/>
<circle cx="626.7" cy="484.5" r="3" fill="#ff9896" opacity="0.9"/>
<circle cx="703.3" cy="496.1" r="3" fill="#ff9896" opacity="0.9"/>
<circle cx="780.0" cy="292.4" r="3" fill="#ff9896" opacity="0.9"/>
<path d="M 90.0,566.1 L 166.7,562.4 L 243.3,559.1 L 320.0,554.7 L 396.7,550.9 L 473.3,547.5 L 550.0,543.5 L 626.7,539.4 L 703.3,536.1 L 780.0,532.6" fill="none" stroke="#c5b0d5" stroke-width="1.8" stroke-dasharray="6,4" opacity="0.8"/>
<circle cx="90.0" cy="566.1" r="3" fill="#c5b0d5" opacity="0.9"/>
<circle cx="166.7" cy="562.4" r="3" fill="#c5b0d5" opacity="0.9"/>
<circle cx="243.3" cy="559.1" r="3" fill="#c5b0d5" opacity="0.9"/>
<circle cx="320.0" cy="554.7" r="3" fill="#c5b0d5" opacity="0.9"/>
<circle cx="396.7" cy="550.9" r="3" fill="#c5b0d5" opacity="0.9"/>
<circle cx="473.3" cy="547.5" r="3" fill="#c5b0d5" opacity="0.9"/>
<circle cx="550.0" cy="543.5" r="3" fill="#c5b0d5" opacity="0.9"/>
<circle cx="626.7" cy="539.4" r="3" fill="#c5b0d5" opacity="0.9"/>
<circle cx="703.3" cy="536.1" r="3" fill="#c5b0d5" opacity="0.9"/>
<circle cx="780.0" cy="532.6" r="3" fill="#c5b0d5" opacity="0.9"/>
<path d="M 90.0,564.6 L 166.7,561.8 L 243.3,557.0 L 320.0,548.0 L 396.7,548.0 L 473.3,310.9 L 550.0,320.0 L 626.7,310.3 L 703.3,323.1 L 780.0,297.7" fill="none" stroke="#c49c94" stroke-width="1.8" stroke-dasharray="3,3" opacity="0.8"/>
<circle cx="90.0" cy="564.6" r="3" fill="#c49c94" opacity="0.9"/>
<circle cx="166.7" cy="561.8" r="3" fill="#c49c94" opacity="0.9"/>
<circle cx="243.3" cy="557.0" r="3" fill="#c49c94" opacity="0.9"/>
<circle cx="320.0" cy="548.0" r="3" fill="#c49c94" opacity="0.9"/>
<circle cx="396.7" cy="548.0" r="3" fill="#c49c94" opacity="0.9"/>
<circle cx="473.3" cy="310.9" r="3" fill="#c49c94" opacity="0.9"/>
<circle cx="550.0" cy="320.0" r="3" fill="#c49c94" opacity="0.9"/>
<circle cx="626.7" cy="310.3" r="3" fill="#c49c94" opacity="0.9"/>
<circle cx="703.3" cy="323.1" r="3" fill="#c49c94" opacity="0.9"/>
<circle cx="780.0" cy="297.7" r="3" fill="#c49c94" opacity="0.9"/>
<path d="M 90.0,566.1 L 166.7,562.7 L 243.3,544.0 L 320.0,534.1 L 396.7,515.6 L 473.3,521.6 L 550.0,449.7 L 626.7,479.7 L 703.3,472.7 L 780.0,481.7" fill="none" stroke="#f7b6d2" stroke-width="1.8" stroke-dasharray="6,4" opacity="0.8"/>
<circle cx="90.0" cy="566.1" r="3" fill="#f7b6d2" opacity="0.9"/>
<circle cx="166.7" cy="562.7" r="3" fill="#f7b6d2" opacity="0.9"/>
<circle cx="243.3" cy="544.0" r="3" fill="#f7b6d2" opacity="0.9"/>
<circle cx="320.0" cy="534.1" r="3" fill="#f7b6d2" opacity="0.9"/>
<circle cx="396.7" cy="515.6" r="3" fill="#f7b6d2" opacity="0.9"/>
<circle cx="473.3" cy="521.6" r="3" fill="#f7b6d2" opacity="0.9"/>
<circle cx="550.0" cy="449.7" r="3" fill="#f7b6d2" opacity="0.9"/>
<circle cx="626.7" cy="479.7" r="3" fill="#f7b6d2" opacity="0.9"/>
<circle cx="703.3" cy="472.7" r="3" fill="#f7b6d2" opacity="0.9"/>
<circle cx="780.0" cy="481.7" r="3" fill="#f7b6d2" opacity="0.9"/>
<path d="M 90.0,566.3 L 166.7,560.0 L 243.3,518.8 L 320.0,513.8 L 396.7,502.0 L 473.3,501.3 L 550.0,454.8 L 626.7,494.1 L 703.3,472.0 L 780.0,461.4" fill="none" stroke="#c7c7c7" stroke-width="1.8" stroke-dasharray="3,3" opacity="0.8"/>
<circle cx="90.0" cy="566.3" r="3" fill="#c7c7c7" opacity="0.9"/>
<circle cx="166.7" cy="560.0" r="3" fill="#c7c7c7" opacity="0.9"/>
<circle cx="243.3" cy="518.8" r="3" fill="#c7c7c7" opacity="0.9"/>
<circle cx="320.0" cy="513.8" r="3" fill="#c7c7c7" opacity="0.9"/>
<circle cx="396.7" cy="502.0" r="3" fill="#c7c7c7" opacity="0.9"/>
<circle cx="473.3" cy="501.3" r="3" fill="#c7c7c7" opacity="0.9"/>
<circle cx="550.0" cy="454.8" r="3" fill="#c7c7c7" opacity="0.9"/>
<circle cx="626.7" cy="494.1" r="3" fill="#c7c7c7" opacity="0.9"/>
<circle cx="703.3" cy="472.0" r="3" fill="#c7c7c7" opacity="0.9"/>
<circle cx="780.0" cy="461.4" r="3" fill="#c7c7c7" opacity="0.9"/>
<path d="M 90.0,559.7 L 166.7,353.1 L 243.3,248.1 L 320.0,232.9 L 396.7,217.3 L 473.3,186.2 L 550.0,176.7 L 626.7,171.8 L 703.3,154.7 L 780.0,144.8" fill="none" stroke="#1f77b4" stroke-width="3.5"/>
<circle cx="90.0" cy="559.7" r="5.5" fill="#1f77b4" stroke="#ffffff" stroke-width="1.5"/>
<circle cx="166.7" cy="353.1" r="5.5" fill="#1f77b4" stroke="#ffffff" stroke-width="1.5"/>
<circle cx="243.3" cy="248.1" r="5.5" fill="#1f77b4" stroke="#ffffff" stroke-width="1.5"/>
<circle cx="320.0" cy="232.9" r="5.5" fill="#1f77b4" stroke="#ffffff" stroke-width="1.5"/>
<circle cx="396.7" cy="217.3" r="5.5" fill="#1f77b4" stroke="#ffffff" stroke-width="1.5"/>
<circle cx="473.3" cy="186.2" r="5.5" fill="#1f77b4" stroke="#ffffff" stroke-width="1.5"/>
<circle cx="550.0" cy="176.7" r="5.5" fill="#1f77b4" stroke="#ffffff" stroke-width="1.5"/>
<circle cx="626.7" cy="171.8" r="5.5" fill="#1f77b4" stroke="#ffffff" stroke-width="1.5"/>
<circle cx="703.3" cy="154.7" r="5.5" fill="#1f77b4" stroke="#ffffff" stroke-width="1.5"/>
<circle cx="780.0" cy="144.8" r="5.5" fill="#1f77b4" stroke="#ffffff" stroke-width="1.5"/>
<path d="M 90.0,559.9 L 166.7,347.6 L 243.3,273.5 L 320.0,238.2 L 396.7,222.5 L 473.3,188.9 L 550.0,179.2 L 626.7,160.8 L 703.3,168.5 L 780.0,132.5" fill="none" stroke="#ff7f0e" stroke-width="3.5"/>
<circle cx="90.0" cy="559.9" r="5.5" fill="#ff7f0e" stroke="#ffffff" stroke-width="1.5"/>
<circle cx="166.7" cy="347.6" r="5.5" fill="#ff7f0e" stroke="#ffffff" stroke-width="1.5"/>
<circle cx="243.3" cy="273.5" r="5.5" fill="#ff7f0e" stroke="#ffffff" stroke-width="1.5"/>
<circle cx="320.0" cy="238.2" r="5.5" fill="#ff7f0e" stroke="#ffffff" stroke-width="1.5"/>
<circle cx="396.7" cy="222.5" r="5.5" fill="#ff7f0e" stroke="#ffffff" stroke-width="1.5"/>
<circle cx="473.3" cy="188.9" r="5.5" fill="#ff7f0e" stroke="#ffffff" stroke-width="1.5"/>
<circle cx="550.0" cy="179.2" r="5.5" fill="#ff7f0e" stroke="#ffffff" stroke-width="1.5"/>
<circle cx="626.7" cy="160.8" r="5.5" fill="#ff7f0e" stroke="#ffffff" stroke-width="1.5"/>
<circle cx="703.3" cy="168.5" r="5.5" fill="#ff7f0e" stroke="#ffffff" stroke-width="1.5"/>
<circle cx="780.0" cy="132.5" r="5.5" fill="#ff7f0e" stroke="#ffffff" stroke-width="1.5"/>
<path d="M 90.0,371.2 L 166.7,271.7 L 243.3,254.9 L 320.0,247.5 L 396.7,208.6 L 473.3,205.6 L 550.0,185.8 L 626.7,171.1 L 703.3,145.1 L 780.0,148.2" fill="none" stroke="#2ca02c" stroke-width="3.5"/>
<circle cx="90.0" cy="371.2" r="5.5" fill="#2ca02c" stroke="#ffffff" stroke-width="1.5"/>
<circle cx="166.7" cy="271.7" r="5.5" fill="#2ca02c" stroke="#ffffff" stroke-width="1.5"/>
<circle cx="243.3" cy="254.9" r="5.5" fill="#2ca02c" stroke="#ffffff" stroke-width="1.5"/>
<circle cx="320.0" cy="247.5" r="5.5" fill="#2ca02c" stroke="#ffffff" stroke-width="1.5"/>
<circle cx="396.7" cy="208.6" r="5.5" fill="#2ca02c" stroke="#ffffff" stroke-width="1.5"/>
<circle cx="473.3" cy="205.6" r="5.5" fill="#2ca02c" stroke="#ffffff" stroke-width="1.5"/>
<circle cx="550.0" cy="185.8" r="5.5" fill="#2ca02c" stroke="#ffffff" stroke-width="1.5"/>
<circle cx="626.7" cy="171.1" r="5.5" fill="#2ca02c" stroke="#ffffff" stroke-width="1.5"/>
<circle cx="703.3" cy="145.1" r="5.5" fill="#2ca02c" stroke="#ffffff" stroke-width="1.5"/>
<circle cx="780.0" cy="148.2" r="5.5" fill="#2ca02c" stroke="#ffffff" stroke-width="1.5"/>
<path d="M 90.0,360.1 L 166.7,270.2 L 243.3,245.1 L 320.0,231.0 L 396.7,213.5 L 473.3,190.7 L 550.0,185.7 L 626.7,173.8 L 703.3,154.1 L 780.0,133.5" fill="none" stroke="#d62728" stroke-width="3.5"/>
<circle cx="90.0" cy="360.1" r="5.5" fill="#d62728" stroke="#ffffff" stroke-width="1.5"/>
<circle cx="166.7" cy="270.2" r="5.5" fill="#d62728" stroke="#ffffff" stroke-width="1.5"/>
<circle cx="243.3" cy="245.1" r="5.5" fill="#d62728" stroke="#ffffff" stroke-width="1.5"/>
<circle cx="320.0" cy="231.0" r="5.5" fill="#d62728" stroke="#ffffff" stroke-width="1.5"/>
<circle cx="396.7" cy="213.5" r="5.5" fill="#d62728" stroke="#ffffff" stroke-width="1.5"/>
<circle cx="473.3" cy="190.7" r="5.5" fill="#d62728" stroke="#ffffff" stroke-width="1.5"/>
<circle cx="550.0" cy="185.7" r="5.5" fill="#d62728" stroke="#ffffff" stroke-width="1.5"/>
<circle cx="626.7" cy="173.8" r="5.5" fill="#d62728" stroke="#ffffff" stroke-width="1.5"/>
<circle cx="703.3" cy="154.1" r="5.5" fill="#d62728" stroke="#ffffff" stroke-width="1.5"/>
<circle cx="780.0" cy="133.5" r="5.5" fill="#d62728" stroke="#ffffff" stroke-width="1.5"/>
<rect x="800" y="65" width="280" height="520" fill="#f9fafb" stroke="#e5e7eb" rx="6"/>
<text x="810" y="85" font-weight="bold" class="legend-text">Propagation-Aware Envelopes (Min Var/k):</text>
<line x1="810" y1="105" x2="835" y2="105" stroke="#1f77b4" stroke-width="3.5"/>
<circle cx="822.5" cy="105" r="4" fill="#1f77b4"/>
<text x="842" y="109" class="legend-text" font-weight="600">Prop-Aware Additive</text>
<line x1="810" y1="127" x2="835" y2="127" stroke="#ff7f0e" stroke-width="3.5"/>
<circle cx="822.5" cy="127" r="4" fill="#ff7f0e"/>
<text x="842" y="131" class="legend-text" font-weight="600">Prop-Aware Multiplicative</text>
<line x1="810" y1="149" x2="835" y2="149" stroke="#2ca02c" stroke-width="3.5"/>
<circle cx="822.5" cy="149" r="4" fill="#2ca02c"/>
<text x="842" y="153" class="legend-text" font-weight="600">Prop-Aware Additive KCore</text>
<line x1="810" y1="171" x2="835" y2="171" stroke="#d62728" stroke-width="3.5"/>
<circle cx="822.5" cy="171" r="4" fill="#d62728"/>
<text x="842" y="175" class="legend-text" font-weight="600">Prop-Aware Multiplicative KCore</text>
<text x="810" y="203" font-weight="bold" class="legend-text">Baseline / Existing Algorithms:</text>
<line x1="810" y1="223" x2="835" y2="223" stroke="#9467bd" stroke-width="1.8" stroke-dasharray="6,4"/>
<circle cx="822.5" cy="223" r="3" fill="#9467bd"/>
<text x="842" y="227" class="legend-text">Random</text>
<line x1="810" y1="243" x2="835" y2="243" stroke="#8c564b" stroke-width="1.8" stroke-dasharray="3,3"/>
<circle cx="822.5" cy="243" r="3" fill="#8c564b"/>
<text x="842" y="247" class="legend-text">Myopic</text>
<line x1="810" y1="263" x2="835" y2="263" stroke="#e377c2" stroke-width="1.8" stroke-dasharray="6,4"/>
<circle cx="822.5" cy="263" r="3" fill="#e377c2"/>
<text x="842" y="267" class="legend-text">Naive Myopic</text>
<line x1="810" y1="283" x2="835" y2="283" stroke="#7f7f7f" stroke-width="1.8" stroke-dasharray="3,3"/>
<circle cx="822.5" cy="283" r="3" fill="#7f7f7f"/>
<text x="842" y="287" class="legend-text">Gonzalez</text>
<line x1="810" y1="303" x2="835" y2="303" stroke="#bcbd22" stroke-width="1.8" stroke-dasharray="6,4"/>
<circle cx="822.5" cy="303" r="3" fill="#bcbd22"/>
<text x="842" y="307" class="legend-text">Myopic BFS</text>
<line x1="810" y1="323" x2="835" y2="323" stroke="#17becf" stroke-width="1.8" stroke-dasharray="3,3"/>
<circle cx="822.5" cy="323" r="3" fill="#17becf"/>
<text x="842" y="327" class="legend-text">Naive Myopic BFS</text>
<line x1="810" y1="343" x2="835" y2="343" stroke="#aec7e8" stroke-width="1.8" stroke-dasharray="6,4"/>
<circle cx="822.5" cy="343" r="3" fill="#aec7e8"/>
<text x="842" y="347" class="legend-text">Myopic PPR</text>
<line x1="810" y1="363" x2="835" y2="363" stroke="#ffbb78" stroke-width="1.8" stroke-dasharray="3,3"/>
<circle cx="822.5" cy="363" r="3" fill="#ffbb78"/>
<text x="842" y="367" class="legend-text">Naive Myopic PPR</text>
<line x1="810" y1="383" x2="835" y2="383" stroke="#98df8a" stroke-width="1.8" stroke-dasharray="6,4"/>
<circle cx="822.5" cy="383" r="3" fill="#98df8a"/>
<text x="842" y="387" class="legend-text">LeastCentral</text>
<line x1="810" y1="403" x2="835" y2="403" stroke="#ff9896" stroke-width="1.8" stroke-dasharray="3,3"/>
<circle cx="822.5" cy="403" r="3" fill="#ff9896"/>
<text x="842" y="407" class="legend-text">LeastCentral_n</text>
<line x1="810" y1="423" x2="835" y2="423" stroke="#c5b0d5" stroke-width="1.8" stroke-dasharray="6,4"/>
<circle cx="822.5" cy="423" r="3" fill="#c5b0d5"/>
<text x="842" y="427" class="legend-text">MinDegree_hc</text>
<line x1="810" y1="443" x2="835" y2="443" stroke="#c49c94" stroke-width="1.8" stroke-dasharray="3,3"/>
<circle cx="822.5" cy="443" r="3" fill="#c49c94"/>
<text x="842" y="447" class="legend-text">MinDegree_hcn</text>
<line x1="810" y1="463" x2="835" y2="463" stroke="#f7b6d2" stroke-width="1.8" stroke-dasharray="6,4"/>
<circle cx="822.5" cy="463" r="3" fill="#f7b6d2"/>
<text x="842" y="467" class="legend-text">MinDegree_nd</text>
<line x1="810" y1="483" x2="835" y2="483" stroke="#c7c7c7" stroke-width="1.8" stroke-dasharray="3,3"/>
<circle cx="822.5" cy="483" r="3" fill="#c7c7c7"/>
<text x="842" y="487" class="legend-text">MinDegree_ndn</text>
</svg>