<svg xmlns="http://www.w3.org/2000/svg" viewBox="0 0 1100 650" width="1100" height="650">
<style>
  text { font-family: system-ui, -apple-system, sans-serif; }
  .title { font-size: 16px; font-weight: bold; fill: #111827; }
  .axis-label { font-size: 13px; font-weight: 600; fill: #374151; }
  .tick-text { font-size: 11px; fill: #4b5563; }
  .grid { stroke: #e5e7eb; stroke-width: 1; stroke-dasharray: 4,4; }
  .axis { stroke: #9ca3af; stroke-width: 1.5; }
  .legend-text { font-size: 11px; fill: #1f2937; }
</style>
<rect width="1100" height="650" fill="#ffffff"/>
<text x="435.0" y="35" text-anchor="middle" class="title">Variance of Access Probabilities vs. Seed Set Size (k) - ca-GrQc.txt (alpha=0.09)</text>
<line x1="90" y1="570.0" x2="780" y2="570.0" class="grid"/>
<text x="80" y="574.0" text-anchor="end" class="tick-text">0.0000</text>
<line x1="90" y1="486.6666666666667" x2="780" y2="486.6666666666667" class="grid"/>
<text x="80" y="490.6666666666667" text-anchor="end" class="tick-text">0.0087</text>
<line x1="90" y1="403.33333333333337" x2="780" y2="403.33333333333337" class="grid"/>
<text x="80" y="407.33333333333337" text-anchor="end" class="tick-text">0.0174</text>
<line x1="90" y1="320.0" x2="780" y2="320.0" class="grid"/>
<text x="80" y="324.0" text-anchor="end" class="tick-text">0.0261</text>
<line x1="90" y1="236.66666666666669" x2="780" y2="236.66666666666669" class="grid"/>
<text x="80" y="240.66666666666669" text-anchor="end" class="tick-text">0.0348</text>
<line x1="90" y1="153.33333333333331" x2="780" y2="153.33333333333331" class="grid"/>
<text x="80" y="157.33333333333331" text-anchor="end" class="tick-text">0.0435</text>
<line x1="90" y1="70.0" x2="780" y2="70.0" class="grid"/>
<text x="80" y="74.0" text-anchor="end" class="tick-text">0.0522</text>
<line x1="90.0" y1="70" x2="90.0" y2="570" class="grid"/>
<text x="90.0" y="590" text-anchor="middle" class="tick-text">1</text>
<line x1="166.66666666666666" y1="70" x2="166.66666666666666" y2="570" class="grid"/>
<text x="166.66666666666666" y="590" text-anchor="middle" class="tick-text">2</text>
<line x1="243.33333333333331" y1="70" x2="243.33333333333331" y2="570" class="grid"/>
<text x="243.33333333333331" y="590" text-anchor="middle" class="tick-text">3</text>
<line x1="320.0" y1="70" x2="320.0" y2="570" class="grid"/>
<text x="320.0" y="590" text-anchor="middle" class="tick-text">4</text>
<line x1="396.66666666666663" y1="70" x2="396.66666666666663" y2="570" class="grid"/>
<text x="396.66666666666663" y="590" text-anchor="middle" class="tick-text">5</text>
<line x1="473.33333333333337" y1="70" x2="473.33333333333337" y2="570" class="grid"/>
<text x="473.33333333333337" y="590" text-anchor="middle" class="tick-text">6</text>
<line x1="550.0" y1="70" x2="550.0" y2="570" class="grid"/>
<text x="550.0" y="590" text-anchor="middle" class="tick-text">7</text>
<line x1="626.6666666666666" y1="70" x2="626.6666666666666" y2="570" class="grid"/>
<text x="626.6666666666666" y="590" text-anchor="middle" class="tick-text">8</text>
<line x1="703.3333333333333" y1="70" x2="703.3333333333333" y2="570" class="grid"/>
<text x="703.3333333333333" y="590" text-anchor="middle" class="tick-text">9</text>
<line x1="780.0" y1="70" x2="780.0" y2="570" class="grid"/>
<text x="780.0" y="590" text-anchor="middle" class="tick-text">10</text>
<line x1="90" y1="70" x2="90" y2="570" class="axis"/>
<line x1="90" y1="570" x2="780" y2="570" class="axis"/>
<text x="435.0" y="620" text-anchor="middle" class="axis-label">Seed Set Size (k)</text>
<text x="25" y="320.0" text-anchor="middle" transform="rotate(-90 25 320.0)" class="axis-label">Variance of Access Probabilities</text>
<path d="M 90.0,561.6 L 166.7,551.6 L 243.3,561.4 L 320.0,541.9 L 396.7,545.6 L 473.3,545.9 L 550.0,544.5 L 626.7,544.9 L 703.3,528.5 L 780.0,527.8" fill="none" stroke="#9467bd" stroke-width="1.8" stroke-dasharray="6,4" opacity="0.8"/>
<circle cx="90.0" cy="561.6" r="3" fill="#9467bd" opacity="0.9"/>
<circle cx="166.7" cy="551.6" r="3" fill="#9467bd" opacity="0.9"/>
<circle cx="243.3" cy="561.4" r="3" fill="#9467bd" opacity="0.9"/>
<circle cx="320.0" cy="541.9" r="3" fill="#9467bd" opacity="0.9"/>
<circle cx="396.7" cy="545.6" r="3" fill="#9467bd" opacity="0.9"/>
<circle cx="473.3" cy="545.9" r="3" fill="#9467bd" opacity="0.9"/>
<circle cx="550.0" cy="544.5" r="3" fill="#9467bd" opacity="0.9"/>
<circle cx="626.7" cy="544.9" r="3" fill="#9467bd" opacity="0.9"/>
<circle cx="703.3" cy="528.5" r="3" fill="#9467bd" opacity="0.9"/>
<circle cx="780.0" cy="527.8" r="3" fill="#9467bd" opacity="0.9"/>
<path d="M 90.0,260.0 L 166.7,272.0 L 243.3,253.6 L 320.0,229.8 L 396.7,171.8 L 473.3,139.0 L 550.0,141.2 L 626.7,110.2 L 703.3,107.7 L 780.0,104.9" fill="none" stroke="#8c564b" stroke-width="1.8" stroke-dasharray="3,3" opacity="0.8"/>
<circle cx="90.0" cy="260.0" r="3" fill="#8c564b" opacity="0.9"/>
<circle cx="166.7" cy="272.0" r="3" fill="#8c564b" opacity="0.9"/>
<circle cx="243.3" cy="253.6" r="3" fill="#8c564b" opacity="0.9"/>
<circle cx="320.0" cy="229.8" r="3" fill="#8c564b" opacity="0.9"/>
<circle cx="396.7" cy="171.8" r="3" fill="#8c564b" opacity="0.9"/>
<circle cx="473.3" cy="139.0" r="3" fill="#8c564b" opacity="0.9"/>
<circle cx="550.0" cy="141.2" r="3" fill="#8c564b" opacity="0.9"/>
<circle cx="626.7" cy="110.2" r="3" fill="#8c564b" opacity="0.9"/>
<circle cx="703.3" cy="107.7" r="3" fill="#8c564b" opacity="0.9"/>
<circle cx="780.0" cy="104.9" r="3" fill="#8c564b" opacity="0.9"/>
<path d="M 90.0,293.7 L 166.7,295.1 L 243.3,266.9 L 320.0,265.7 L 396.7,259.6 L 473.3,270.0 L 550.0,269.8 L 626.7,261.6 L 703.3,266.1 L 780.0,260.1" fill="none" stroke="#e377c2" stroke-width="1.8" stroke-dasharray="6,4" opacity="0.8"/>
<circle cx="90.0" cy="293.7" r="3" fill="#e377c2" opacity="0.9"/>
<circle cx="166.7" cy="295.1" r="3" fill="#e377c2" opacity="0.9"/>
<circle cx="243.3" cy="266.9" r="3" fill="#e377c2" opacity="0.9"/>
<circle cx="320.0" cy="265.7" r="3" fill="#e377c2" opacity="0.9"/>
<circle cx="396.7" cy="259.6" r="3" fill="#e377c2" opacity="0.9"/>
<circle cx="473.3" cy="270.0" r="3" fill="#e377c2" opacity="0.9"/>
<circle cx="550.0" cy="269.8" r="3" fill="#e377c2" opacity="0.9"/>
<circle cx="626.7" cy="261.6" r="3" fill="#e377c2" opacity="0.9"/>
<circle cx="703.3" cy="266.1" r="3" fill="#e377c2" opacity="0.9"/>
<circle cx="780.0" cy="260.1" r="3" fill="#e377c2" opacity="0.9"/>
<path d="M 90.0,290.1 L 166.7,273.6 L 243.3,269.2 L 320.0,272.6 L 396.7,274.2 L 473.3,255.8 L 550.0,271.8 L 626.7,264.6 L 703.3,268.7 L 780.0,259.0" fill="none" stroke="#7f7f7f" stroke-width="1.8" stroke-dasharray="3,3" opacity="0.8"/>
<circle cx="90.0" cy="290.1" r="3" fill="#7f7f7f" opacity="0.9"/>
<circle cx="166.7" cy="273.6" r="3" fill="#7f7f7f" opacity="0.9"/>
<circle cx="243.3" cy="269.2" r="3" fill="#7f7f7f" opacity="0.9"/>
<circle cx="320.0" cy="272.6" r="3" fill="#7f7f7f" opacity="0.9"/>
<circle cx="396.7" cy="274.2" r="3" fill="#7f7f7f" opacity="0.9"/>
<circle cx="473.3" cy="255.8" r="3" fill="#7f7f7f" opacity="0.9"/>
<circle cx="550.0" cy="271.8" r="3" fill="#7f7f7f" opacity="0.9"/>
<circle cx="626.7" cy="264.6" r="3" fill="#7f7f7f" opacity="0.9"/>
<circle cx="703.3" cy="268.7" r="3" fill="#7f7f7f" opacity="0.9"/>
<circle cx="780.0" cy="259.0" r="3" fill="#7f7f7f" opacity="0.9"/>
<path d="M 90.0,568.0 L 166.7,565.5 L 243.3,563.6 L 320.0,561.3 L 396.7,559.7 L 473.3,557.1 L 550.0,555.8 L 626.7,552.9 L 703.3,551.4 L 780.0,549.8" fill="none" stroke="#bcbd22" stroke-width="1.8" stroke-dasharray="6,4" opacity="0.8"/>
<circle cx="90.0" cy="568.0" r="3" fill="#bcbd22" opacity="0.9"/>
<circle cx="166.7" cy="565.5" r="3" fill="#bcbd22" opacity="0.9"/>
<circle cx="243.3" cy="563.6" r="3" fill="#bcbd22" opacity="0.9"/>
<circle cx="320.0" cy="561.3" r="3" fill="#bcbd22" opacity="0.9"/>
<circle cx="396.7" cy="559.7" r="3" fill="#bcbd22" opacity="0.9"/>
<circle cx="473.3" cy="557.1" r="3" fill="#bcbd22" opacity="0.9"/>
<circle cx="550.0" cy="555.8" r="3" fill="#bcbd22" opacity="0.9"/>
<circle cx="626.7" cy="552.9" r="3" fill="#bcbd22" opacity="0.9"/>
<circle cx="703.3" cy="551.4" r="3" fill="#bcbd22" opacity="0.9"/>
<circle cx="780.0" cy="549.8" r="3" fill="#bcbd22" opacity="0.9"/>
<path d="M 90.0,568.0 L 166.7,565.6 L 243.3,563.6 L 320.0,561.5 L 396.7,559.6 L 473.3,556.2 L 550.0,555.3 L 626.7,553.4 L 703.3,551.4 L 780.0,549.6" fill="none" stroke="#17becf" stroke-width="1.8" stroke-dasharray="3,3" opacity="0.8"/>
<circle cx="90.0" cy="568.0" r="3" fill="#17becf" opacity="0.9"/>
<circle cx="166.7" cy="565.6" r="3" fill="#17becf" opacity="0.9"/>
<circle cx="243.3" cy="563.6" r="3" fill="#17becf" opacity="0.9"/>
<circle cx="320.0" cy="561.5" r="3" fill="#17becf" opacity="0.9"/>
<circle cx="396.7" cy="559.6" r="3" fill="#17becf" opacity="0.9"/>
<circle cx="473.3" cy="556.2" r="3" fill="#17becf" opacity="0.9"/>
<circle cx="550.0" cy="555.3" r="3" fill="#17becf" opacity="0.9"/>
<circle cx="626.7" cy="553.4" r="3" fill="#17becf" opacity="0.9"/>
<circle cx="703.3" cy="551.4" r="3" fill="#17becf" opacity="0.9"/>
<circle cx="780.0" cy="549.6" r="3" fill="#17becf" opacity="0.9"/>
<path d="M 90.0,567.8 L 166.7,566.1 L 243.3,557.6 L 320.0,553.6 L 396.7,556.9 L 473.3,542.8 L 550.0,552.8 L 626.7,548.7 L 703.3,536.5 L 780.0,534.1" fill="none" stroke="#aec7e8" stroke-width="1.8" stroke-dasharray="6,4" opacity="0.8"/>
<circle cx="90.0" cy="567.8" r="3" fill="#aec7e8" opacity="0.9"/>
<circle cx="166.7" cy="566.1" r="3" fill="#aec7e8" opacity="0.9"/>
<circle cx="243.3" cy="557.6" r="3" fill="#aec7e8" opacity="0.9"/>
<circle cx="320.0" cy="553.6" r="3" fill="#aec7e8" opacity="0.9"/>
<circle cx="396.7" cy="556.9" r="3" fill="#aec7e8" opacity="0.9"/>
<circle cx="473.3" cy="542.8" r="3" fill="#aec7e8" opacity="0.9"/>
<circle cx="550.0" cy="552.8" r="3" fill="#aec7e8" opacity="0.9"/>
<circle cx="626.7" cy="548.7" r="3" fill="#aec7e8" opacity="0.9"/>
<circle cx="703.3" cy="536.5" r="3" fill="#aec7e8" opacity="0.9"/>
<circle cx="780.0" cy="534.1" r="3" fill="#aec7e8" opacity="0.9"/>
<path d="M 90.0,567.8 L 166.7,566.0 L 243.3,562.9 L 320.0,552.6 L 396.7,549.1 L 473.3,544.0 L 550.0,538.0 L 626.7,530.2 L 703.3,528.7 L 780.0,526.8" fill="none" stroke="#ffbb78" stroke-width="1.8" stroke-dasharray="3,3" opacity="0.8"/>
<circle cx="90.0" cy="567.8" r="3" fill="#ffbb78" opacity="0.9"/>
<circle cx="166.7" cy="566.0" r="3" fill="#ffbb78" opacity="0.9"/>
<circle cx="243.3" cy="562.9" r="3" fill="#ffbb78" opacity="0.9"/>
<circle cx="320.0" cy="552.6" r="3" fill="#ffbb78" opacity="0.9"/>
<circle cx="396.7" cy="549.1" r="3" fill="#ffbb78" opacity="0.9"/>
<circle cx="473.3" cy="544.0" r="3" fill="#ffbb78" opacity="0.9"/>
<circle cx="550.0" cy="538.0" r="3" fill="#ffbb78" opacity="0.9"/>
<circle cx="626.7" cy="530.2" r="3" fill="#ffbb78" opacity="0.9"/>
<circle cx="703.3" cy="528.7" r="3" fill="#ffbb78" opacity="0.9"/>
<circle cx="780.0" cy="526.8" r="3" fill="#ffbb78" opacity="0.9"/>
<path d="M 90.0,567.3 L 166.7,566.0 L 243.3,563.9 L 320.0,561.5 L 396.7,560.0 L 473.3,557.9 L 550.0,555.5 L 626.7,553.9 L 703.3,552.0 L 780.0,549.6" fill="none" stroke="#98df8a" stroke-width="1.8" stroke-dasharray="6,4" opacity="0.8"/>
<circle cx="90.0" cy="567.3" r="3" fill="#98df8a" opacity="0.9"/>
<circle cx="166.7" cy="566.0" r="3" fill="#98df8a" opacity="0.9"/>
<circle cx="243.3" cy="563.9" r="3" fill="#98df8a" opacity="0.9"/>
<circle cx="320.0" cy="561.5" r="3" fill="#98df8a" opacity="0.9"/>
<circle cx="396.7" cy="560.0" r="3" fill="#98df8a" opacity="0.9"/>
<circle cx="473.3" cy="557.9" r="3" fill="#98df8a" opacity="0.9"/>
<circle cx="550.0" cy="555.5" r="3" fill="#98df8a" opacity="0.9"/>
<circle cx="626.7" cy="553.9" r="3" fill="#98df8a" opacity="0.9"/>
<circle cx="703.3" cy="552.0" r="3" fill="#98df8a" opacity="0.9"/>
<circle cx="780.0" cy="549.6" r="3" fill="#98df8a" opacity="0.9"/>
<path d="M 90.0,566.5 L 166.7,563.9 L 243.3,560.3 L 320.0,559.6 L 396.7,555.4 L 473.3,553.8 L 550.0,542.8 L 626.7,531.2 L 703.3,515.2 L 780.0,516.3" fill="none" stroke="#ff9896" stroke-width="1.8" stroke-dasharray="3,3" opacity="0.8"/>
<circle cx="90.0" cy="566.5" r="3" fill="#ff9896" opacity="0.9"/>
<circle cx="166.7" cy="563.9" r="3" fill="#ff9896" opacity="0.9"/>
<circle cx="243.3" cy="560.3" r="3" fill="#ff9896" opacity="0.9"/>
<circle cx="320.0" cy="559.6" r="3" fill="#ff9896" opacity="0.9"/>
<circle cx="396.7" cy="555.4" r="3" fill="#ff9896" opacity="0.9"/>
<circle cx="473.3" cy="553.8" r="3" fill="#ff9896" opacity="0.9"/>
<circle cx="550.0" cy="542.8" r="3" fill="#ff9896" opacity="0.9"/>
<circle cx="626.7" cy="531.2" r="3" fill="#ff9896" opacity="0.9"/>
<circle cx="703.3" cy="515.2" r="3" fill="#ff9896" opacity="0.9"/>
<circle cx="780.0" cy="516.3" r="3" fill="#ff9896" opacity="0.9"/>
<path d="M 90.0,567.2 L 166.7,565.6 L 243.3,560.3 L 320.0,561.6 L 396.7,559.7 L 473.3,558.4 L 550.0,556.2 L 626.7,553.3 L 703.3,551.0 L 780.0,549.4" fill="none" stroke="#c5b0d5" stroke-width="1.8" stroke-dasharray="6,4" opacity="0.8"/>
<circle cx="90.0" cy="567.2" r="3" fill="#c5b0d5" opacity="0.9"/>
<circle cx="166.7" cy="565.6" r="3" fill="#c5b0d5" opacity="0.9"/>
<circle cx="243.3" cy="560.3" r="3" fill="#c5b0d5" opacity="0.9"/>
<circle cx="320.0" cy="561.6" r="3" fill="#c5b0d5" opacity="0.9"/>
<circle cx="396.7" cy="559.7" r="3" fill="#c5b0d5" opacity="0.9"/>
<circle cx="473.3" cy="558.4" r="3" fill="#c5b0d5" opacity="0.9"/>
<circle cx="550.0" cy="556.2" r="3" fill="#c5b0d5" opacity="0.9"/>
<circle cx="626.7" cy="553.3" r="3" fill="#c5b0d5" opacity="0.9"/>
<circle cx="703.3" cy="551.0" r="3" fill="#c5b0d5" opacity="0.9"/>
<circle cx="780.0" cy="549.4" r="3" fill="#c5b0d5" opacity="0.9"/>
<path d="M 90.0,567.9 L 166.7,511.5 L 243.3,407.9 L 320.0,457.7 L 396.7,461.1 L 473.3,447.9 L 550.0,462.1 L 626.7,445.5 L 703.3,430.2 L 780.0,450.7" fill="none" stroke="#c49c94" stroke-width="1.8" stroke-dasharray="3,3" opacity="0.8"/>
<circle cx="90.0" cy="567.9" r="3" fill="#c49c94" opacity="0.9"/>
<circle cx="166.7" cy="511.5" r="3" fill="#c49c94" opacity="0.9"/>
<circle cx="243.3" cy="407.9" r="3" fill="#c49c94" opacity="0.9"/>
<circle cx="320.0" cy="457.7" r="3" fill="#c49c94" opacity="0.9"/>
<circle cx="396.7" cy="461.1" r="3" fill="#c49c94" opacity="0.9"/>
<circle cx="473.3" cy="447.9" r="3" fill="#c49c94" opacity="0.9"/>
<circle cx="550.0" cy="462.1" r="3" fill="#c49c94" opacity="0.9"/>
<circle cx="626.7" cy="445.5" r="3" fill="#c49c94" opacity="0.9"/>
<circle cx="703.3" cy="430.2" r="3" fill="#c49c94" opacity="0.9"/>
<circle cx="780.0" cy="450.7" r="3" fill="#c49c94" opacity="0.9"/>
<path d="M 90.0,504.3 L 166.7,507.1 L 243.3,474.3 L 320.0,444.9 L 396.7,441.3 L 473.3,428.5 L 550.0,405.9 L 626.7,411.0 L 703.3,360.1 L 780.0,326.9" fill="none" stroke="#f7b6d2" stroke-width="1.8" stroke-dasharray="6,4" opacity="0.8"/>
<circle cx="90.0" cy="504.3" r="3" fill="#f7b6d2" opacity="0.9"/>
<circle cx="166.7" cy="507.1" r="3" fill="#f7b6d2" opacity="0.9"/>
<circle cx="243.3" cy="474.3" r="3" fill="#f7b6d2" opacity="0.9"/>
<circle cx="320.0" cy="444.9" r="3" fill="#f7b6d2" opacity="0.9"/>
<circle cx="396.7" cy="441.3" r="3" fill="#f7b6d2" opacity="0.9"/>
<circle cx="473.3" cy="428.5" r="3" fill="#f7b6d2" opacity="0.9"/>
<circle cx="550.0" cy="405.9" r="3" fill="#f7b6d2" opacity="0.9"/>
<circle cx="626.7" cy="411.0" r="3" fill="#f7b6d2" opacity="0.9"/>
<circle cx="703.3" cy="360.1" r="3" fill="#f7b6d2" opacity="0.9"/>
<circle cx="780.0" cy="326.9" r="3" fill="#f7b6d2" opacity="0.9"/>
<path d="M 90.0,568.0 L 166.7,565.9 L 243.3,563.0 L 320.0,561.1 L 396.7,558.3 L 473.3,254.2 L 550.0,266.9 L 626.7,253.4 L 703.3,242.1 L 780.0,245.5" fill="none" stroke="#c7c7c7" stroke-width="1.8" stroke-dasharray="3,3" opacity="0.8"/>
<circle cx="90.0" cy="568.0" r="3" fill="#c7c7c7" opacity="0.9"/>
<circle cx="166.7" cy="565.9" r="3" fill="#c7c7c7" opacity="0.9"/>
<circle cx="243.3" cy="563.0" r="3" fill="#c7c7c7" opacity="0.9"/>
<circle cx="320.0" cy="561.1" r="3" fill="#c7c7c7" opacity="0.9"/>
<circle cx="396.7" cy="558.3" r="3" fill="#c7c7c7" opacity="0.9"/>
<circle cx="473.3" cy="254.2" r="3" fill="#c7c7c7" opacity="0.9"/>
<circle cx="550.0" cy="266.9" r="3" fill="#c7c7c7" opacity="0.9"/>
<circle cx="626.7" cy="253.4" r="3" fill="#c7c7c7" opacity="0.9"/>
<circle cx="703.3" cy="242.1" r="3" fill="#c7c7c7" opacity="0.9"/>
<circle cx="780.0" cy="245.5" r="3" fill="#c7c7c7" opacity="0.9"/>
<path d="M 90.0,546.2 L 166.7,280.0 L 243.3,254.5 L 320.0,179.2 L 396.7,161.4 L 473.3,148.6 L 550.0,135.7 L 626.7,126.6 L 703.3,118.1 L 780.0,104.6" fill="none" stroke="#1f77b4" stroke-width="3.5"/>
<circle cx="90.0" cy="546.2" r="5.5" fill="#1f77b4" stroke="#ffffff" stroke-width="1.5"/>
<circle cx="166.7" cy="280.0" r="5.5" fill="#1f77b4" stroke="#ffffff" stroke-width="1.5"/>
<circle cx="243.3" cy="254.5" r="5.5" fill="#1f77b4" stroke="#ffffff" stroke-width="1.5"/>
<circle cx="320.0" cy="179.2" r="5.5" fill="#1f77b4" stroke="#ffffff" stroke-width="1.5"/>
<circle cx="396.7" cy="161.4" r="5.5" fill="#1f77b4" stroke="#ffffff" stroke-width="1.5"/>
<circle cx="473.3" cy="148.6" r="5.5" fill="#1f77b4" stroke="#ffffff" stroke-width="1.5"/>
<circle cx="550.0" cy="135.7" r="5.5" fill="#1f77b4" stroke="#ffffff" stroke-width="1.5"/>
<circle cx="626.7" cy="126.6" r="5.5" fill="#1f77b4" stroke="#ffffff" stroke-width="1.5"/>
<circle cx="703.3" cy="118.1" r="5.5" fill="#1f77b4" stroke="#ffffff" stroke-width="1.5"/>
<circle cx="780.0" cy="104.6" r="5.5" fill="#1f77b4" stroke="#ffffff" stroke-width="1.5"/>
<path d="M 90.0,542.4 L 166.7,463.8 L 243.3,370.4 L 320.0,378.0 L 396.7,287.9 L 473.3,268.6 L 550.0,258.3 L 626.7,214.6 L 703.3,230.2 L 780.0,207.5" fill="none" stroke="#ff7f0e" stroke-width="3.5"/>
<circle cx="90.0" cy="542.4" r="5.5" fill="#ff7f0e" stroke="#ffffff" stroke-width="1.5"/>
<circle cx="166.7" cy="463.8" r="5.5" fill="#ff7f0e" stroke="#ffffff" stroke-width="1.5"/>
<circle cx="243.3" cy="370.4" r="5.5" fill="#ff7f0e" stroke="#ffffff" stroke-width="1.5"/>
<circle cx="320.0" cy="378.0" r="5.5" fill="#ff7f0e" stroke="#ffffff" stroke-width="1.5"/>
<circle cx="396.7" cy="287.9" r="5.5" fill="#ff7f0e" stroke="#ffffff" stroke-width="1.5"/>
<circle cx="473.3" cy="268.6" r="5.5" fill="#ff7f0e" stroke="#ffffff" stroke-width="1.5"/>
<circle cx="550.0" cy="258.3" r="5.5" fill="#ff7f0e" stroke="#ffffff" stroke-width="1.5"/>
<circle cx="626.7" cy="214.6" r="5.5" fill="#ff7f0e" stroke="#ffffff" stroke-width="1.5"/>
<circle cx="703.3" cy="230.2" r="5.5" fill="#ff7f0e" stroke="#ffffff" stroke-width="1.5"/>
<circle cx="780.0" cy="207.5" r="5.5" fill="#ff7f0e" stroke="#ffffff" stroke-width="1.5"/>
<path d="M 90.0,301.9 L 166.7,274.7 L 243.3,191.5 L 320.0,176.2 L 396.7,156.6 L 473.3,141.4 L 550.0,131.5 L 626.7,118.0 L 703.3,118.3 L 780.0,106.4" fill="none" stroke="#2ca02c" stroke-width="3.5"/>
<circle cx="90.0" cy="301.9" r="5.5" fill="#2ca02c" stroke="#ffffff" stroke-width="1.5"/>
<circle cx="166.7" cy="274.7" r="5.5" fill="#2ca02c" stroke="#ffffff" stroke-width="1.5"/>
<circle cx="243.3" cy="191.5" r="5.5" fill="#2ca02c" stroke="#ffffff" stroke-width="1.5"/>
<circle cx="320.0" cy="176.2" r="5.5" fill="#2ca02c" stroke="#ffffff" stroke-width="1.5"/>
<circle cx="396.7" cy="156.6" r="5.5" fill="#2ca02c" stroke="#ffffff" stroke-width="1.5"/>
<circle cx="473.3" cy="141.4" r="5.5" fill="#2ca02c" stroke="#ffffff" stroke-width="1.5"/>
<circle cx="550.0" cy="131.5" r="5.5" fill="#2ca02c" stroke="#ffffff" stroke-width="1.5"/>
<circle cx="626.7" cy="118.0" r="5.5" fill="#2ca02c" stroke="#ffffff" stroke-width="1.5"/>
<circle cx="703.3" cy="118.3" r="5.5" fill="#2ca02c" stroke="#ffffff" stroke-width="1.5"/>
<circle cx="780.0" cy="106.4" r="5.5" fill="#2ca02c" stroke="#ffffff" stroke-width="1.5"/>
<path d="M 90.0,296.3 L 166.7,267.0 L 243.3,188.8 L 320.0,179.0 L 396.7,156.2 L 473.3,147.8 L 550.0,140.3 L 626.7,126.1 L 703.3,102.5 L 780.0,93.7" fill="none" stroke="#d62728" stroke-width="3.5"/>
<circle cx="90.0" cy="296.3" r="5.5" fill="#d62728" stroke="#ffffff" stroke-width="1.5"/>
<circle cx="166.7" cy="267.0" r="5.5" fill="#d62728" stroke="#ffffff" stroke-width="1.5"/>
<circle cx="243.3" cy="188.8" r="5.5" fill="#d62728" stroke="#ffffff" stroke-width="1.5"/>
<circle cx="320.0" cy="179.0" r="5.5" fill="#d62728" stroke="#ffffff" stroke-width="1.5"/>
<circle cx="396.7" cy="156.2" r="5.5" fill="#d62728" stroke="#ffffff" stroke-width="1.5"/>
<circle cx="473.3" cy="147.8" r="5.5" fill="#d62728" stroke="#ffffff" stroke-width="1.5"/>
<circle cx="550.0" cy="140.3" r="5.5" fill="#d62728" stroke="#ffffff" stroke-width="1.5"/>
<circle cx="626.7" cy="126.1" r="5.5" fill="#d62728" stroke="#ffffff" stroke-width="1.5"/>
<circle cx="703.3" cy="102.5" r="5.5" fill="#d62728" stroke="#ffffff" stroke-width="1.5"/>
<circle cx="780.0" cy="93.7" r="5.5" fill="#d62728" stroke="#ffffff" stroke-width="1.5"/>
<rect x="800" y="65" width="280" height="520" fill="#f9fafb" stroke="#e5e7eb" rx="6"/>
<text x="810" y="85" font-weight="bold" class="legend-text">Propagation-Aware Envelopes (Min Var/k):</text>
<line x1="810" y1="105" x2="835" y2="105" stroke="#1f77b4" stroke-width="3.5"/>
<circle cx="822.5" cy="105" r="4" fill="#1f77b4"/>
<text x="842" y="109" class="legend-text" font-weight="600">Prop-Aware Additive</text>
<line x1="810" y1="127" x2="835" y2="127" stroke="#ff7f0e" stroke-width="3.5"/>
<circle cx="822.5" cy="127" r="4" fill="#ff7f0e"/>
<text x="842" y="131" class="legend-text" font-weight="600">Prop-Aware Multiplicative</text>
<line x1="810" y1="149" x2="835" y2="149" stroke="#2ca02c" stroke-width="3.5"/>
<circle cx="822.5" cy="149" r="4" fill="#2ca02c"/>
<text x="842" y="153" class="legend-text" font-weight="600">Prop-Aware Additive KCore</text>
<line x1="810" y1="171" x2="835" y2="171" stroke="#d62728" stroke-width="3.5"/>
<circle cx="822.5" cy="171" r="4" fill="#d62728"/>
<text x="842" y="175" class="legend-text" font-weight="600">Prop-Aware Multiplicative KCore</text>
<text x="810" y="203" font-weight="bold" class="legend-text">Baseline / Existing Algorithms:</text>
<line x1="810" y1="223" x2="835" y2="223" stroke="#9467bd" stroke-width="1.8" stroke-dasharray="6,4"/>
<circle cx="822.5" cy="223" r="3" fill="#9467bd"/>
<text x="842" y="227" class="legend-text">Random</text>
<line x1="810" y1="243" x2="835" y2="243" stroke="#8c564b" stroke-width="1.8" stroke-dasharray="3,3"/>
<circle cx="822.5" cy="243" r="3" fill="#8c564b"/>
<text x="842" y="247" class="legend-text">Myopic</text>
<line x1="810" y1="263" x2="835" y2="263" stroke="#e377c2" stroke-width="1.8" stroke-dasharray="6,4"/>
<circle cx="822.5" cy="263" r="3" fill="#e377c2"/>
<text x="842" y="267" class="legend-text">Naive Myopic</text>
<line x1="810" y1="283" x2="835" y2="283" stroke="#7f7f7f" stroke-width="1.8" stroke-dasharray="3,3"/>
<circle cx="822.5" cy="283" r="3" fill="#7f7f7f"/>
<text x="842" y="287" class="legend-text">Gonzalez</text>
<line x1="810" y1="303" x2="835" y2="303" stroke="#bcbd22" stroke-width="1.8" stroke-dasharray="6,4"/>
<circle cx="822.5" cy="303" r="3" fill="#bcbd22"/>
<text x="842" y="307" class="legend-text">Myopic BFS</text>
<line x1="810" y1="323" x2="835" y2="323" stroke="#17becf" stroke-width="1.8" stroke-dasharray="3,3"/>
<circle cx="822.5" cy="323" r="3" fill="#17becf"/>
<text x="842" y="327" class="legend-text">Naive Myopic BFS</text>
<line x1="810" y1="343" x2="835" y2="343" stroke="#aec7e8" stroke-width="1.8" stroke-dasharray="6,4"/>
<circle cx="822.5" cy="343" r="3" fill="#aec7e8"/>
<text x="842" y="347" class="legend-text">Myopic PPR</text>
<line x1="810" y1="363" x2="835" y2="363" stroke="#ffbb78" stroke-width="1.8" stroke-dasharray="3,3"/>
<circle cx="822.5" cy="363" r="3" fill="#ffbb78"/>
<text x="842" y="367" class="legend-text">Naive Myopic PPR</text>
<line x1="810" y1="383" x2="835" y2="383" stroke="#98df8a" stroke-width="1.8" stroke-dasharray="6,4"/>
<circle cx="822.5" cy="383" r="3" fill="#98df8a"/>
<text x="842" y="387" class="legend-text">LeastCentral</text>
<line x1="810" y1="403" x2="835" y2="403" stroke="#ff9896" stroke-width="1.8" stroke-dasharray="3,3"/>
<circle cx="822.5" cy="403" r="3" fill="#ff9896"/>
<text x="842" y="407" class="legend-text">LeastCentral_n</text>
<line x1="810" y1="423" x2="835" y2="423" stroke="#c5b0d5" stroke-width="1.8" stroke-dasharray="6,4"/>
<circle cx="822.5" cy="423" r="3" fill="#c5b0d5"/>
<text x="842" y="427" class="legend-text">MinDegree_hc</text>
<line x1="810" y1="443" x2="835" y2="443" stroke="#c49c94" stroke-width="1.8" stroke-dasharray="3,3"/>
<circle cx="822.5" cy="443" r="3" fill="#c49c94"/>
<text x="842" y="447" class="legend-text">MinDegree_hcn</text>
<line x1="810" y1="463" x2="835" y2="463" stroke="#f7b6d2" stroke-width="1.8" stroke-dasharray="6,4"/>
<circle cx="822.5" cy="463" r="3" fill="#f7b6d2"/>
<text x="842" y="467" class="legend-text">MinDegree_nd</text>
<line x1="810" y1="483" x2="835" y2="483" stroke="#c7c7c7" stroke-width="1.8" stroke-dasharray="3,3"/>
<circle cx="822.5" cy="483" r="3" fill="#c7c7c7"/>
<text x="842" y="487" class="legend-text">MinDegree_ndn</text>
</svg>